999
dxfrw 0.5.11
0
SECTION
2
HEADER
9
$ACADVER
1
AC1021
9
$HANDSEED
5
20000
9
$DWGCODEPAGE
3
ANSI_1252
9
$INSBASE
10
0
20
0
30
0
9
$EXTMIN
10
0
20
-15
30
0
9
$EXTMAX
10
290
20
62.1010101009
30
0
9
$LIMMIN
10
0
20
0
9
$LIMMAX
10
420
20
297
9
$ORTHOMODE
70
0
9
$LTSCALE
40
1
9
$TEXTSTYLE
7
STANDARD
9
$CLAYER
8
0
9
$DIMASZ
40
2.5
9
$DIMLFAC
40
1
9
$DIMSCALE
40
1
9
$DIMEXO
40
0.625
9
$DIMEXE
40
1.25
9
$DIMTXT
40
2.5
9
$DIMTSZ
40
0
9
$DIMAUNIT
70
0
9
$DIMADEC
70
0
9
$DIMLUNIT
70
2
9
$DIMSTYLE
2
Standard
9
$DIMGAP
40
0.625
9
$DIMTIH
70
0
9
$LUNITS
70
2
9
$LUPREC
70
4
9
$AUNITS
70
0
9
$AUPREC
70
2
9
$SPLINESEGS
70
8
9
$GRIDMODE
70
0
9
$SNAPSTYLE
70
0
9
$PINSBASE
10
0
20
0
30
0
9
$PLIMMIN
10
0
20
0
9
$PLIMMAX
10
210
20
297
9
$INSUNITS
70
4
9
$PSVPSCALE
40
1
0
ENDSEC
0
SECTION
2
CLASSES
0
ENDSEC
0
SECTION
2
TABLES
0
TABLE
2
VPORT
5
8
330
0
100
AcDbSymbolTable
70
1
0
VPORT
5
31
330
2
100
AcDbSymbolTableRecord
100
AcDbViewportTableRecord
2
*ACTIVE
70
0
10
0
20
0
11
1
21
1
12
146.757575757
22
43.6464646464
13
0
23
0
14
10
24
10
15
10
25
10
16
0
26
0
36
1
17
0
27
0
37
0
40
151.444444444
41
1.95357833656
42
50
43
0
44
0
50
0
51
0
71
0
72
100
73
1
74
3
75
0
76
0
77
0
78
0
281
0
65
1
110
0
120
0
130
0
111
1
121
0
131
0
112
0
122
1
132
0
79
0
146
0
348
10020
60
7
61
5
292
1
282
1
141
0
142
0
63
250
421
3358443
0
ENDTAB
0
TABLE
2
LTYPE
5
5
330
0
100
AcDbSymbolTable
70
4
0
LTYPE
5
14
330
5
100
AcDbSymbolTableRecord
100
AcDbLinetypeTableRecord
2
ByBlock
70
0
3

72
65
73
0
40
0
0
LTYPE
5
15
330
5
100
AcDbSymbolTableRecord
100
AcDbLinetypeTableRecord
2
ByLayer
70
0
3

72
65
73
0
40
0
0
LTYPE
5
16
330
5
100
AcDbSymbolTableRecord
100
AcDbLinetypeTableRecord
2
Continuous
70
0
3
Solid line
72
65
73
0
40
0
0
LTYPE
5
32
330
5
100
AcDbSymbolTableRecord
100
AcDbLinetypeTableRecord
2
DOT
70
0
3
Dot . . . . . . . . . . . . . . . . . . . . . .
72
65
73
2
40
6.35
49
0
74
0
49
-6.35
74
0
0
LTYPE
5
33
330
5
100
AcDbSymbolTableRecord
100
AcDbLinetypeTableRecord
2
DOT2
70
0
3
Dot (.5x) .....................................
72
65
73
2
40
3.175
49
0
74
0
49
-3.175
74
0
0
LTYPE
5
34
330
5
100
AcDbSymbolTableRecord
100
AcDbLinetypeTableRecord
2
DOTX2
70
0
3
Dot (2x) .  .  .  .  .  .  .  .  .  .  .  .  .
72
65
73
2
40
12.7
49
0
74
0
49
-12.7
74
0
0
LTYPE
5
35
330
5
100
AcDbSymbolTableRecord
100
AcDbLinetypeTableRecord
2
DASHED
70
0
3
Dot . . . . . . . . . . . . . . . . . . . . . .
72
65
73
2
40
19.05
49
12.7
74
0
49
-6.35
74
0
0
LTYPE
5
36
330
5
100
AcDbSymbolTableRecord
100
AcDbLinetypeTableRecord
2
DASHED2
70
0
3
Dashed (.5x) _ _ _ _ _ _ _ _ _ _ _ _ _ _ _ _ _
72
65
73
2
40
9.525
49
6.35
74
0
49
-3.175
74
0
0
LTYPE
5
37
330
5
100
AcDbSymbolTableRecord
100
AcDbLinetypeTableRecord
2
DASHEDX2
70
0
3
Dashed (2x) ____  ____  ____  ____  ____  ___
72
65
73
2
40
38.1
49
25.4
74
0
49
-12.7
74
0
0
LTYPE
5
38
330
5
100
AcDbSymbolTableRecord
100
AcDbLinetypeTableRecord
2
DASHDOT
70
0
3
Dash dot __ . __ . __ . __ . __ . __ . __ . __
72
65
73
4
40
25.4
49
12.7
74
0
49
-6.35
74
0
49
0
74
0
49
-6.35
74
0
0
LTYPE
5
39
330
5
100
AcDbSymbolTableRecord
100
AcDbLinetypeTableRecord
2
DASHDOT2
70
0
3
Dash dot (.5x) _._._._._._._._._._._._._._._.
72
65
73
4
40
12.7
49
6.35
74
0
49
-3.175
74
0
49
0
74
0
49
-3.175
74
0
0
LTYPE
5
3A
330
5
100
AcDbSymbolTableRecord
100
AcDbLinetypeTableRecord
2
DASHDOTX2
70
0
3
Dash dot (2x) ____  .  ____  .  ____  .  ___
72
65
73
4
40
50.8
49
25.4
74
0
49
-12.7
74
0
49
0
74
0
49
-12.7
74
0
0
LTYPE
5
3B
330
5
100
AcDbSymbolTableRecord
100
AcDbLinetypeTableRecord
2
DIVIDE
70
0
3
Divide ____ . . ____ . . ____ . . ____ . . ____
72
65
73
6
40
31.75
49
12.7
74
0
49
-6.35
74
0
49
0
74
0
49
-6.35
74
0
49
0
74
0
49
-6.35
74
0
0
LTYPE
5
3C
330
5
100
AcDbSymbolTableRecord
100
AcDbLinetypeTableRecord
2
DIVIDE2
70
0
3
Divide (.5x) __..__..__..__..__..__..__..__.._
72
65
73
6
40
15.875
49
6.35
74
0
49
-3.175
74
0
49
0
74
0
49
-3.175
74
0
49
0
74
0
49
-3.175
74
0
0
LTYPE
5
3D
330
5
100
AcDbSymbolTableRecord
100
AcDbLinetypeTableRecord
2
DIVIDEX2
70
0
3
Divide (2x) ________  .  .  ________  .  .  _
72
65
73
6
40
63.5
49
25.4
74
0
49
-12.7
74
0
49
0
74
0
49
-12.7
74
0
49
0
74
0
49
-12.7
74
0
0
LTYPE
5
3E
330
5
100
AcDbSymbolTableRecord
100
AcDbLinetypeTableRecord
2
BORDER
70
0
3
Border __ __ . __ __ . __ __ . __ __ . __ __ .
72
65
73
6
40
44.45
49
12.7
74
0
49
-6.35
74
0
49
12.7
74
0
49
-6.35
74
0
49
0
74
0
49
-6.35
74
0
0
LTYPE
5
3F
330
5
100
AcDbSymbolTableRecord
100
AcDbLinetypeTableRecord
2
BORDER2
70
0
3
Border (.5x) __.__.__.__.__.__.__.__.__.__.__.
72
65
73
6
40
22.225
49
6.35
74
0
49
-3.175
74
0
49
6.35
74
0
49
-3.175
74
0
49
0
74
0
49
-3.175
74
0
0
LTYPE
5
40
330
5
100
AcDbSymbolTableRecord
100
AcDbLinetypeTableRecord
2
BORDERX2
70
0
3
Border (2x) ____  ____  .  ____  ____  .  ___
72
65
73
6
40
88.9
49
25.4
74
0
49
-12.7
74
0
49
25.4
74
0
49
-12.7
74
0
49
0
74
0
49
-12.7
74
0
0
LTYPE
5
41
330
5
100
AcDbSymbolTableRecord
100
AcDbLinetypeTableRecord
2
CENTER
70
0
3
Center ____ _ ____ _ ____ _ ____ _ ____ _ ____
72
65
73
4
40
50.8
49
31.75
74
0
49
-6.35
74
0
49
6.35
74
0
49
-6.35
74
0
0
LTYPE
5
42
330
5
100
AcDbSymbolTableRecord
100
AcDbLinetypeTableRecord
2
CENTER2
70
0
3
Center (.5x) ___ _ ___ _ ___ _ ___ _ ___ _ ___
72
65
73
4
40
28.575
49
19.05
74
0
49
-3.175
74
0
49
3.175
74
0
49
-3.175
74
0
0
LTYPE
5
43
330
5
100
AcDbSymbolTableRecord
100
AcDbLinetypeTableRecord
2
CENTERX2
70
0
3
Center (2x) ________  __  ________  __  _____
72
65
73
4
40
101.6
49
63.5
74
0
49
-12.7
74
0
49
12.7
74
0
49
-12.7
74
0
0
ENDTAB
0
TABLE
2
LAYER
5
2
330
0
100
AcDbSymbolTable
70
1
0
LAYER
5
10
330
2
100
AcDbSymbolTableRecord
100
AcDbLayerTableRecord
2
0
70
0
62
7
6
CONTINUOUS
370
0
390
F
0
ENDTAB
0
TABLE
2
STYLE
5
3
330
0
100
AcDbSymbolTable
70
3
0
STYLE
5
44
330
2
100
AcDbSymbolTableRecord
100
AcDbTextStyleTableRecord
2
standard
70
0
40
0
41
1
50
0
71
0
42
1
3
standard
4

0
ENDTAB
0
TABLE
2
VIEW
5
6
330
0
100
AcDbSymbolTable
70
0
0
ENDTAB
0
TABLE
2
UCS
5
7
330
0
100
AcDbSymbolTable
70
0
0
ENDTAB
0
TABLE
2
APPID
5
9
330
0
100
AcDbSymbolTable
70
1
0
APPID
5
12
330
9
100
AcDbSymbolTableRecord
100
AcDbRegAppTableRecord
2
ACAD
70
0
0
ENDTAB
0
TABLE
2
DIMSTYLE
5
A
330
0
100
AcDbSymbolTable
70
1
100
AcDbDimStyleTable
71
1
0
DIMSTYLE
105
45
330
A
100
AcDbSymbolTableRecord
100
AcDbDimStyleTableRecord
2
Standard
70
0
40
1
41
2.5
42
0.625
43
0.38
44
1.25
45
0
46
0
47
0
48
0
140
2.5
141
0.09
142
0
143
25.4
144
1
145
0
146
1
147
0.625
148
0
71
0
72
0
73
0
74
1
75
0
76
0
77
0
78
0
79
0
170
0
171
2
172
0
173
0
174
0
175
0
176
0
177
0
178
0
179
0
271
4
272
4
273
2
274
2
275
0
276
0
277
2
278
46
279
0
280
0
281
0
282
0
283
1
284
0
285
0
286
0
288
0
289
3
340
Standard
341

371
-2
372
-2
0
ENDTAB
0
TABLE
2
BLOCK_RECORD
5
1
330
0
100
AcDbSymbolTable
70
2
0
BLOCK_RECORD
5
1F
330
1
100
AcDbSymbolTableRecord
100
AcDbBlockTableRecord
2
*Model_Space
70
0
280
1
281
0
0
BLOCK_RECORD
5
1E
330
1
100
AcDbSymbolTableRecord
100
AcDbBlockTableRecord
2
*Paper_Space
70
0
280
1
281
0
0
ENDTAB
0
ENDSEC
0
SECTION
2
BLOCKS
0
BLOCK
5
20
330
1F
100
AcDbEntity
8
0
100
AcDbBlockBegin
2
*Model_Space
70
0
10
0
20
0
30
0
3
*Model_Space
1

0
ENDBLK
5
21
330
1F
100
AcDbEntity
8
0
100
AcDbBlockEnd
0
BLOCK
5
1C
330
1B
100
AcDbEntity
8
0
100
AcDbBlockBegin
2
*Paper_Space
70
0
10
0
20
0
30
0
3
*Paper_Space
1

0
ENDBLK
5
1D
330
1F
100
AcDbEntity
8
0
100
AcDbBlockEnd
0
ENDSEC
0
SECTION
2
ENTITIES
0
LINE
5
46
100
AcDbEntity
8
0
6
ByLayer
62
256
370
-1
100
AcDbLine
10
290
20
0
11
290
21
22
0
LINE
5
47
100
AcDbEntity
8
0
6
ByLayer
62
256
370
-1
100
AcDbLine
10
0
20
22
11
0
21
0
0
LINE
5
48
100
AcDbEntity
8
0
6
ByLayer
62
256
370
-1
100
AcDbLine
10
281.5
20
22
11
281.5
21
37
0
LINE
5
49
100
AcDbEntity
8
0
6
ByLayer
62
256
370
-1
100
AcDbLine
10
8.5
20
37
11
8.5
21
22
0
LINE
5
4A
100
AcDbEntity
8
0
6
ByLayer
62
256
370
-1
100
AcDbLine
10
8.5
20
22
11
0
21
22
0
LINE
5
4B
100
AcDbEntity
8
0
6
ByLayer
62
256
370
-1
100
AcDbLine
10
0
20
0
11
57.5
21
0
0
LINE
5
4C
100
AcDbEntity
8
0
6
ByLayer
62
256
370
-1
100
AcDbLine
10
281.5
20
22
11
290
21
22
0
LINE
5
4D
100
AcDbEntity
8
0
6
ByLayer
62
256
370
-1
100
AcDbLine
10
290
20
0
11
232.5
21
0
0
LINE
5
4E
100
AcDbEntity
8
0
6
ByLayer
62
256
370
-1
100
AcDbLine
10
30.5
20
37
11
30.5
21
22
0
LINE
5
4F
100
AcDbEntity
8
0
6
ByLayer
62
256
370
-1
100
AcDbLine
10
259.5
20
22
11
259.5
21
37
0
LINE
5
50
100
AcDbEntity
8
0
6
ByLayer
62
256
370
-1
100
AcDbLine
10
30.5
20
22
11
259.5
21
22
0
LINE
5
51
100
AcDbEntity
8
0
6
ByLayer
62
256
370
-1
100
AcDbLine
10
30.5
20
37
11
8.5
21
37
0
LINE
5
52
100
AcDbEntity
8
0
6
ByLayer
62
256
370
-1
100
AcDbLine
10
259.5
20
37
11
281.5
21
37
0
LINE
5
53
100
AcDbEntity
8
0
6
ByLayer
62
256
370
-1
100
AcDbLine
10
57.5
20
-15
11
79.5
21
-15
0
LINE
5
54
100
AcDbEntity
8
0
6
ByLayer
62
256
370
-1
100
AcDbLine
10
79.5
20
-15
11
79.5
21
0
0
LINE
5
55
100
AcDbEntity
8
0
6
ByLayer
62
256
370
-1
100
AcDbLine
10
57.5
20
0
11
57.5
21
-15
0
LINE
5
56
100
AcDbEntity
8
0
6
ByLayer
62
256
370
-1
100
AcDbLine
10
232.5
20
-15
11
210.5
21
-15
0
LINE
5
57
100
AcDbEntity
8
0
6
ByLayer
62
256
370
-1
100
AcDbLine
10
210.5
20
-15
11
210.5
21
0
0
LINE
5
58
100
AcDbEntity
8
0
6
ByLayer
62
256
370
-1
100
AcDbLine
10
232.5
20
0
11
232.5
21
-15
0
LINE
5
59
100
AcDbEntity
8
0
6
ByLayer
62
256
370
-1
100
AcDbLine
10
79.5
20
0
11
210.5
21
0
0
LINE
5
5A
100
AcDbEntity
8
0
6
ByLayer
62
256
370
-1
100
AcDbLine
10
11.646899422
20
27.3654106667
11
11.6468992
21
26.4765442222
0
LINE
5
5B
100
AcDbEntity
8
0
6
ByLayer
62
256
370
-1
100
AcDbLine
10
11.6468992
20
26.4765442222
11
10.1698596444
21
27.3353217778
0
ARC
5
5C
100
AcDbEntity
8
0
6
ByLayer
62
256
370
-1
100
AcDbCircle
10
10.0581632
20
27.1431884444
40
0.222222222222
100
AcDbArc
50
59.82546
51
110.529098
0
ARC
5
5D
100
AcDbEntity
8
0
6
ByLayer
62
256
370
-1
100
AcDbCircle
10
10.0913436444
20
26.9209662222
40
0.444444444444
100
AcDbArc
50
104.477508
51
255.52247
0
LINE
5
5E
100
AcDbEntity
8
0
6
ByLayer
62
256
370
-1
100
AcDbLine
10
9.6468992
20
28.0320773333
11
9.6468992
21
28.920944
0
LINE
5
5F
100
AcDbEntity
8
0
6
ByLayer
62
256
370
-1
100
AcDbLine
10
9.6468992
20
28.920944
11
11.6468994222
21
28.3654106667
0
LINE
5
60
100
AcDbEntity
8
0
6
ByLayer
62
256
370
-1
100
AcDbLine
10
10.5357883111
20
28.4764995556
11
10.5357883111
21
28.920944
0
LINE
5
61
100
AcDbEntity
8
0
6
ByLayer
62
256
370
-1
100
AcDbLine
10
9.6468992
20
29.5876106667
11
9.6468992
21
30.0320551111
0
LINE
5
62
100
AcDbEntity
8
0
6
ByLayer
62
256
370
-1
100
AcDbLine
10
10.5357883111
20
30.0320551111
11
10.5357883111
21
29.8098328889
0
LINE
5
63
100
AcDbEntity
8
0
6
ByLayer
62
256
370
-1
100
AcDbLine
10
10.9802325333
20
30.4764995556
11
11.2024547556
21
30.4764995556
0
LINE
5
64
100
AcDbEntity
8
0
6
ByLayer
62
256
370
-1
100
AcDbLine
10
11.6468994222
20
30.0320551111
11
11.6468992
21
29.5876108889
0
ARC
5
65
100
AcDbEntity
8
0
6
ByLayer
62
256
370
-1
100
AcDbCircle
10
10.0913436444
20
30.0320551111
40
0.444444444444
100
AcDbArc
50
360
51
180
0
ARC
5
66
100
AcDbEntity
8
0
6
ByLayer
62
256
370
-1
100
AcDbCircle
10
10.9802325333
20
30.0320551111
40
0.444444444444
100
AcDbArc
50
90
51
180
0
ARC
5
67
100
AcDbEntity
8
0
6
ByLayer
62
256
370
-1
100
AcDbCircle
10
11.2024547556
20
30.0320551111
40
0.444444444444
100
AcDbArc
50
360
51
90
0
LINE
5
68
100
AcDbEntity
8
0
6
ByLayer
62
256
370
-1
100
AcDbLine
10
279.440000222
20
26.3288666667
11
279.44
21
25.4400002222
0
LINE
5
69
100
AcDbEntity
8
0
6
ByLayer
62
256
370
-1
100
AcDbLine
10
279.44
20
25.4400002222
11
277.962960444
21
26.2987777778
0
ARC
5
6A
100
AcDbEntity
8
0
6
ByLayer
62
256
370
-1
100
AcDbCircle
10
277.851264
20
26.1066444444
40
0.222222222222
100
AcDbArc
50
59.82546
51
110.529098
0
ARC
5
6B
100
AcDbEntity
8
0
6
ByLayer
62
256
370
-1
100
AcDbCircle
10
277.884444444
20
25.8844222222
40
0.444444444444
100
AcDbArc
50
104.477508
51
255.52247
0
LINE
5
6C
100
AcDbEntity
8
0
6
ByLayer
62
256
370
-1
100
AcDbLine
10
277.44
20
26.9955333333
11
277.44
21
27.8844
0
LINE
5
6D
100
AcDbEntity
8
0
6
ByLayer
62
256
370
-1
100
AcDbLine
10
277.44
20
27.8844
11
279.440000222
21
27.3288666667
0
LINE
5
6E
100
AcDbEntity
8
0
6
ByLayer
62
256
370
-1
100
AcDbLine
10
278.328889111
20
27.4399555556
11
278.328889111
21
27.8844
0
LINE
5
6F
100
AcDbEntity
8
0
6
ByLayer
62
256
370
-1
100
AcDbLine
10
277.44
20
28.5510666667
11
277.44
21
28.9955111111
0
LINE
5
70
100
AcDbEntity
8
0
6
ByLayer
62
256
370
-1
100
AcDbLine
10
278.328889111
20
28.9955111111
11
278.328889111
21
28.7732888889
0
LINE
5
71
100
AcDbEntity
8
0
6
ByLayer
62
256
370
-1
100
AcDbLine
10
278.773333333
20
29.4399555556
11
278.995555556
21
29.4399555556
0
LINE
5
72
100
AcDbEntity
8
0
6
ByLayer
62
256
370
-1
100
AcDbLine
10
279.440000222
20
28.9955111111
11
279.44
21
28.5510668889
0
ARC
5
73
100
AcDbEntity
8
0
6
ByLayer
62
256
370
-1
100
AcDbCircle
10
277.884444444
20
28.9955111111
40
0.444444444444
100
AcDbArc
50
360
51
180
0
ARC
5
74
100
AcDbEntity
8
0
6
ByLayer
62
256
370
-1
100
AcDbCircle
10
278.773333333
20
28.9955111111
40
0.444444444444
100
AcDbArc
50
90
51
180
0
ARC
5
75
100
AcDbEntity
8
0
6
ByLayer
62
256
370
-1
100
AcDbCircle
10
278.995555556
20
28.9955111111
40
0.444444444444
100
AcDbArc
50
360
51
90
0
LINE
5
76
100
AcDbEntity
8
0
6
ByLayer
62
256
370
-1
100
AcDbLine
10
279.151744222
20
33.1325786667
11
279.151744
21
32.2437122222
0
LINE
5
77
100
AcDbEntity
8
0
6
ByLayer
62
256
370
-1
100
AcDbLine
10
279.151744
20
32.2437122222
11
277.674704444
21
33.1024897778
0
ARC
5
78
100
AcDbEntity
8
0
6
ByLayer
62
256
370
-1
100
AcDbCircle
10
277.563008
20
32.9103564444
40
0.222222222222
100
AcDbArc
50
59.82546
51
110.529098
0
ARC
5
79
100
AcDbEntity
8
0
6
ByLayer
62
256
370
-1
100
AcDbCircle
10
277.596188444
20
32.6881342222
40
0.444444444444
100
AcDbArc
50
104.477508
51
255.52247
0
LINE
5
7A
100
AcDbEntity
8
0
6
ByLayer
62
256
370
-1
100
AcDbLine
10
279.151744222
20
34.688112
11
279.151744
21
33.7992455556
0
LINE
5
7B
100
AcDbEntity
8
0
6
ByLayer
62
256
370
-1
100
AcDbLine
10
279.151744
20
33.7992455556
11
277.674704444
21
34.6580231111
0
ARC
5
7C
100
AcDbEntity
8
0
6
ByLayer
62
256
370
-1
100
AcDbCircle
10
277.563008
20
34.4658897778
40
0.222222222222
100
AcDbArc
50
59.82546
51
110.529098
0
ARC
5
7D
100
AcDbEntity
8
0
6
ByLayer
62
256
370
-1
100
AcDbCircle
10
277.596188444
20
34.2436675556
40
0.444444444444
100
AcDbArc
50
104.477508
51
255.52247
0
LINE
5
7E
100
AcDbEntity
8
0
6
ByLayer
62
256
370
-1
100
AcDbLine
10
262.112384222
20
32.9359706667
11
262.112384
21
32.0471042222
0
LINE
5
7F
100
AcDbEntity
8
0
6
ByLayer
62
256
370
-1
100
AcDbLine
10
262.112384
20
32.0471042222
11
260.635344444
21
32.9058817778
0
ARC
5
80
100
AcDbEntity
8
0
6
ByLayer
62
256
370
-1
100
AcDbCircle
10
260.523648
20
32.7137484444
40
0.222222222222
100
AcDbArc
50
59.82546
51
110.529098
0
ARC
5
81
100
AcDbEntity
8
0
6
ByLayer
62
256
370
-1
100
AcDbCircle
10
260.556828444
20
32.4915262222
40
0.444444444444
100
AcDbArc
50
104.477508
51
255.52247
0
LINE
5
82
100
AcDbEntity
8
0
6
ByLayer
62
256
370
-1
100
AcDbLine
10
262.112384222
20
34.491504
11
262.112384
21
33.6026375556
0
LINE
5
83
100
AcDbEntity
8
0
6
ByLayer
62
256
370
-1
100
AcDbLine
10
262.112384
20
33.6026375556
11
260.635344444
21
34.4614151111
0
ARC
5
84
100
AcDbEntity
8
0
6
ByLayer
62
256
370
-1
100
AcDbCircle
10
260.523648
20
34.2692817778
40
0.222222222222
100
AcDbArc
50
59.82546
51
110.529098
0
ARC
5
85
100
AcDbEntity
8
0
6
ByLayer
62
256
370
-1
100
AcDbCircle
10
260.556828444
20
34.0470595556
40
0.444444444444
100
AcDbArc
50
104.477508
51
255.52247
0
LINE
5
86
100
AcDbEntity
8
0
6
ByLayer
62
256
370
-1
100
AcDbLine
10
11.600000222
20
33.5288666667
11
11.6
21
32.6400002222
0
LINE
5
87
100
AcDbEntity
8
0
6
ByLayer
62
256
370
-1
100
AcDbLine
10
11.6
20
32.6400002222
11
10.1229604444
21
33.4987777778
0
ARC
5
88
100
AcDbEntity
8
0
6
ByLayer
62
256
370
-1
100
AcDbCircle
10
10.011264
20
33.3066444444
40
0.222222222222
100
AcDbArc
50
59.82546
51
110.529098
0
ARC
5
89
100
AcDbEntity
8
0
6
ByLayer
62
256
370
-1
100
AcDbCircle
10
10.0444444444
20
33.0844222222
40
0.444444444444
100
AcDbArc
50
104.477508
51
255.52247
0
LINE
5
8A
100
AcDbEntity
8
0
6
ByLayer
62
256
370
-1
100
AcDbLine
10
11.600000222
20
35.0844
11
11.6
21
34.1955335556
0
LINE
5
8B
100
AcDbEntity
8
0
6
ByLayer
62
256
370
-1
100
AcDbLine
10
11.6
20
34.1955335556
11
10.1229604444
21
35.0543111111
0
ARC
5
8C
100
AcDbEntity
8
0
6
ByLayer
62
256
370
-1
100
AcDbCircle
10
10.011264
20
34.8621777778
40
0.222222222222
100
AcDbArc
50
59.82546
51
110.529098
0
ARC
5
8D
100
AcDbEntity
8
0
6
ByLayer
62
256
370
-1
100
AcDbCircle
10
10.0444444444
20
34.6399555556
40
0.444444444444
100
AcDbArc
50
104.477508
51
255.52247
0
LINE
5
8E
100
AcDbEntity
8
0
6
ByLayer
62
256
370
-1
100
AcDbLine
10
29.008000222
20
33.1448666667
11
29.008
21
32.2560002222
0
LINE
5
8F
100
AcDbEntity
8
0
6
ByLayer
62
256
370
-1
100
AcDbLine
10
29.008
20
32.2560002222
11
27.5309604444
21
33.1147777778
0
ARC
5
90
100
AcDbEntity
8
0
6
ByLayer
62
256
370
-1
100
AcDbCircle
10
27.419264
20
32.9226444444
40
0.222222222222
100
AcDbArc
50
59.82546
51
110.529098
0
ARC
5
91
100
AcDbEntity
8
0
6
ByLayer
62
256
370
-1
100
AcDbCircle
10
27.4524444444
20
32.7004222222
40
0.444444444444
100
AcDbArc
50
104.477508
51
255.52247
0
LINE
5
92
100
AcDbEntity
8
0
6
ByLayer
62
256
370
-1
100
AcDbLine
10
29.008000222
20
34.7004
11
29.008
21
33.8115335556
0
LINE
5
93
100
AcDbEntity
8
0
6
ByLayer
62
256
370
-1
100
AcDbLine
10
29.008
20
33.8115335556
11
27.5309604444
21
34.6703111111
0
ARC
5
94
100
AcDbEntity
8
0
6
ByLayer
62
256
370
-1
100
AcDbCircle
10
27.419264
20
34.4781777778
40
0.222222222222
100
AcDbArc
50
59.82546
51
110.529098
0
ARC
5
95
100
AcDbEntity
8
0
6
ByLayer
62
256
370
-1
100
AcDbCircle
10
27.4524444444
20
34.2559555556
40
0.444444444444
100
AcDbArc
50
104.477508
51
255.52247
0
LINE
5
96
100
AcDbEntity
8
0
6
ByLayer
62
256
370
-1
100
AcDbLine
10
60.408960222
20
-13.1194533333
11
60.40896
21
-14.0083197778
0
LINE
5
97
100
AcDbEntity
8
0
6
ByLayer
62
256
370
-1
100
AcDbLine
10
60.40896
20
-14.0083197778
11
58.9319204444
21
-13.1495422222
0
ARC
5
98
100
AcDbEntity
8
0
6
ByLayer
62
256
370
-1
100
AcDbCircle
10
58.820224
20
-13.3416755556
40
0.222222222222
100
AcDbArc
50
59.82546
51
110.529098
0
ARC
5
99
100
AcDbEntity
8
0
6
ByLayer
62
256
370
-1
100
AcDbCircle
10
58.8534044444
20
-13.5638977778
40
0.444444444444
100
AcDbArc
50
104.477508
51
255.52247
0
LINE
5
9A
100
AcDbEntity
8
0
6
ByLayer
62
256
370
-1
100
AcDbLine
10
60.408960222
20
-11.56392
11
60.40896
21
-12.4527864444
0
LINE
5
9B
100
AcDbEntity
8
0
6
ByLayer
62
256
370
-1
100
AcDbLine
10
60.40896
20
-12.4527864444
11
58.9319204444
21
-11.5940088889
0
ARC
5
9C
100
AcDbEntity
8
0
6
ByLayer
62
256
370
-1
100
AcDbCircle
10
58.820224
20
-11.7861422222
40
0.222222222222
100
AcDbArc
50
59.82546
51
110.529098
0
ARC
5
9D
100
AcDbEntity
8
0
6
ByLayer
62
256
370
-1
100
AcDbCircle
10
58.8534044444
20
-12.0083644444
40
0.444444444444
100
AcDbArc
50
104.477508
51
255.52247
0
LINE
5
9E
100
AcDbEntity
8
0
6
ByLayer
62
256
370
-1
100
AcDbLine
10
78.595200222
20
-13.2013733333
11
78.5952
21
-14.0902397778
0
LINE
5
9F
100
AcDbEntity
8
0
6
ByLayer
62
256
370
-1
100
AcDbLine
10
78.5952
20
-14.0902397778
11
77.1181604444
21
-13.2314622222
0
ARC
5
A0
100
AcDbEntity
8
0
6
ByLayer
62
256
370
-1
100
AcDbCircle
10
77.006464
20
-13.4235955556
40
0.222222222222
100
AcDbArc
50
59.82546
51
110.529098
0
ARC
5
A1
100
AcDbEntity
8
0
6
ByLayer
62
256
370
-1
100
AcDbCircle
10
77.0396444444
20
-13.6458177778
40
0.444444444444
100
AcDbArc
50
104.477508
51
255.52247
0
LINE
5
A2
100
AcDbEntity
8
0
6
ByLayer
62
256
370
-1
100
AcDbLine
10
78.595200222
20
-11.64584
11
78.5952
21
-12.5347064444
0
LINE
5
A3
100
AcDbEntity
8
0
6
ByLayer
62
256
370
-1
100
AcDbLine
10
78.5952
20
-12.5347064444
11
77.1181604444
21
-11.6759288889
0
ARC
5
A4
100
AcDbEntity
8
0
6
ByLayer
62
256
370
-1
100
AcDbCircle
10
77.006464
20
-11.8680622222
40
0.222222222222
100
AcDbArc
50
59.82546
51
110.529098
0
ARC
5
A5
100
AcDbEntity
8
0
6
ByLayer
62
256
370
-1
100
AcDbCircle
10
77.0396444444
20
-12.0902844444
40
0.444444444444
100
AcDbArc
50
104.477508
51
255.52247
0
LINE
5
A6
100
AcDbEntity
8
0
6
ByLayer
62
256
370
-1
100
AcDbLine
10
213.517440222
20
-12.7917733333
11
213.51744
21
-13.6806397778
0
LINE
5
A7
100
AcDbEntity
8
0
6
ByLayer
62
256
370
-1
100
AcDbLine
10
213.51744
20
-13.6806397778
11
212.040400444
21
-12.8218622222
0
ARC
5
A8
100
AcDbEntity
8
0
6
ByLayer
62
256
370
-1
100
AcDbCircle
10
211.928704
20
-13.0139955556
40
0.222222222222
100
AcDbArc
50
59.82546
51
110.529098
0
ARC
5
A9
100
AcDbEntity
8
0
6
ByLayer
62
256
370
-1
100
AcDbCircle
10
211.961884444
20
-13.2362177778
40
0.444444444444
100
AcDbArc
50
104.477508
51
255.52247
0
LINE
5
AA
100
AcDbEntity
8
0
6
ByLayer
62
256
370
-1
100
AcDbLine
10
213.517440222
20
-11.23624
11
213.51744
21
-12.1251064444
0
LINE
5
AB
100
AcDbEntity
8
0
6
ByLayer
62
256
370
-1
100
AcDbLine
10
213.51744
20
-12.1251064444
11
212.040400444
21
-11.2663288889
0
ARC
5
AC
100
AcDbEntity
8
0
6
ByLayer
62
256
370
-1
100
AcDbCircle
10
211.928704
20
-11.4584622222
40
0.222222222222
100
AcDbArc
50
59.82546
51
110.529098
0
ARC
5
AD
100
AcDbEntity
8
0
6
ByLayer
62
256
370
-1
100
AcDbCircle
10
211.961884444
20
-11.6806844444
40
0.444444444444
100
AcDbArc
50
104.477508
51
255.52247
0
LINE
5
AE
100
AcDbEntity
8
0
6
ByLayer
62
256
370
-1
100
AcDbLine
10
231.621760222
20
-13.1194533333
11
231.62176
21
-14.0083197778
0
LINE
5
AF
100
AcDbEntity
8
0
6
ByLayer
62
256
370
-1
100
AcDbLine
10
231.62176
20
-14.0083197778
11
230.144720444
21
-13.1495422222
0
ARC
5
B0
100
AcDbEntity
8
0
6
ByLayer
62
256
370
-1
100
AcDbCircle
10
230.033024
20
-13.3416755556
40
0.222222222222
100
AcDbArc
50
59.82546
51
110.529098
0
ARC
5
B1
100
AcDbEntity
8
0
6
ByLayer
62
256
370
-1
100
AcDbCircle
10
230.066204444
20
-13.5638977778
40
0.444444444444
100
AcDbArc
50
104.477508
51
255.52247
0
LINE
5
B2
100
AcDbEntity
8
0
6
ByLayer
62
256
370
-1
100
AcDbLine
10
231.621760222
20
-11.56392
11
231.62176
21
-12.4527864444
0
LINE
5
B3
100
AcDbEntity
8
0
6
ByLayer
62
256
370
-1
100
AcDbLine
10
231.62176
20
-12.4527864444
11
230.144720444
21
-11.5940088889
0
ARC
5
B4
100
AcDbEntity
8
0
6
ByLayer
62
256
370
-1
100
AcDbCircle
10
230.033024
20
-11.7861422222
40
0.222222222222
100
AcDbArc
50
59.82546
51
110.529098
0
ARC
5
B5
100
AcDbEntity
8
0
6
ByLayer
62
256
370
-1
100
AcDbCircle
10
230.066204444
20
-12.0083644444
40
0.444444444444
100
AcDbArc
50
104.477508
51
255.52247
0
LINE
5
B6
100
AcDbEntity
8
0
6
ByLayer
62
256
370
-1
100
AcDbLine
10
2.39619466667
20
19.299199778
11
1.50732822222
21
19.2992
0
LINE
5
B7
100
AcDbEntity
8
0
6
ByLayer
62
256
370
-1
100
AcDbLine
10
1.50732822222
20
19.2992
11
2.36610577778
21
20.7762395556
0
ARC
5
B8
100
AcDbEntity
8
0
6
ByLayer
62
256
370
-1
100
AcDbCircle
10
2.17397244444
20
20.887936
40
0.222222222222
100
AcDbArc
50
329.82546
51
20.529098
0
ARC
5
B9
100
AcDbEntity
8
0
6
ByLayer
62
256
370
-1
100
AcDbCircle
10
1.95175022222
20
20.8547555556
40
0.444444444444
100
AcDbArc
50
14.477508
51
165.52247
0
LINE
5
BA
100
AcDbEntity
8
0
6
ByLayer
62
256
370
-1
100
AcDbLine
10
3.951728
20
19.299199778
11
3.06286155556
21
19.2992
0
LINE
5
BB
100
AcDbEntity
8
0
6
ByLayer
62
256
370
-1
100
AcDbLine
10
3.06286155556
20
19.2992
11
3.92163911111
21
20.7762395556
0
ARC
5
BC
100
AcDbEntity
8
0
6
ByLayer
62
256
370
-1
100
AcDbCircle
10
3.72950577778
20
20.887936
40
0.222222222222
100
AcDbArc
50
329.82546
51
20.529098
0
ARC
5
BD
100
AcDbEntity
8
0
6
ByLayer
62
256
370
-1
100
AcDbCircle
10
3.50728355556
20
20.8547555556
40
0.444444444444
100
AcDbArc
50
14.477508
51
165.52247
0
LINE
5
BE
100
AcDbEntity
8
0
6
ByLayer
62
256
370
-1
100
AcDbLine
10
1.78486666667
20
1.19999977797
11
0.896000222222
21
1.2
0
LINE
5
BF
100
AcDbEntity
8
0
6
ByLayer
62
256
370
-1
100
AcDbLine
10
0.896000222222
20
1.2
11
1.75477777778
21
2.67703955556
0
ARC
5
C0
100
AcDbEntity
8
0
6
ByLayer
62
256
370
-1
100
AcDbCircle
10
1.56264444444
20
2.788736
40
0.222222222222
100
AcDbArc
50
329.82546
51
20.529098
0
ARC
5
C1
100
AcDbEntity
8
0
6
ByLayer
62
256
370
-1
100
AcDbCircle
10
1.34042222222
20
2.75555555556
40
0.444444444444
100
AcDbArc
50
14.477508
51
165.52247
0
LINE
5
C2
100
AcDbEntity
8
0
6
ByLayer
62
256
370
-1
100
AcDbLine
10
3.3404
20
1.19999977797
11
2.45153355556
21
1.2
0
LINE
5
C3
100
AcDbEntity
8
0
6
ByLayer
62
256
370
-1
100
AcDbLine
10
2.45153355556
20
1.2
11
3.31031111111
21
2.67703955556
0
ARC
5
C4
100
AcDbEntity
8
0
6
ByLayer
62
256
370
-1
100
AcDbCircle
10
3.11817777778
20
2.788736
40
0.222222222222
100
AcDbArc
50
329.82546
51
20.529098
0
ARC
5
C5
100
AcDbEntity
8
0
6
ByLayer
62
256
370
-1
100
AcDbCircle
10
2.89595555556
20
2.75555555556
40
0.444444444444
100
AcDbArc
50
14.477508
51
165.52247
0
LINE
5
C6
100
AcDbEntity
8
0
6
ByLayer
62
256
370
-1
100
AcDbLine
10
285.970466667
20
19.094399778
11
285.081600222
21
19.0944
0
LINE
5
C7
100
AcDbEntity
8
0
6
ByLayer
62
256
370
-1
100
AcDbLine
10
285.081600222
20
19.0944
11
285.940377778
21
20.5714395556
0
ARC
5
C8
100
AcDbEntity
8
0
6
ByLayer
62
256
370
-1
100
AcDbCircle
10
285.748244444
20
20.683136
40
0.222222222222
100
AcDbArc
50
329.82546
51
20.529098
0
ARC
5
C9
100
AcDbEntity
8
0
6
ByLayer
62
256
370
-1
100
AcDbCircle
10
285.526022222
20
20.6499555556
40
0.444444444444
100
AcDbArc
50
14.477508
51
165.52247
0
LINE
5
CA
100
AcDbEntity
8
0
6
ByLayer
62
256
370
-1
100
AcDbLine
10
287.526
20
19.094399778
11
286.637133556
21
19.0944
0
LINE
5
CB
100
AcDbEntity
8
0
6
ByLayer
62
256
370
-1
100
AcDbLine
10
286.637133556
20
19.0944
11
287.495911111
21
20.5714395556
0
ARC
5
CC
100
AcDbEntity
8
0
6
ByLayer
62
256
370
-1
100
AcDbCircle
10
287.303777778
20
20.683136
40
0.222222222222
100
AcDbArc
50
329.82546
51
20.529098
0
ARC
5
CD
100
AcDbEntity
8
0
6
ByLayer
62
256
370
-1
100
AcDbCircle
10
287.081555556
20
20.6499555556
40
0.444444444444
100
AcDbArc
50
14.477508
51
165.52247
0
LINE
5
CE
100
AcDbEntity
8
0
6
ByLayer
62
256
370
-1
100
AcDbLine
10
285.868066667
20
1.78879977797
11
284.979200222
21
1.7888
0
LINE
5
CF
100
AcDbEntity
8
0
6
ByLayer
62
256
370
-1
100
AcDbLine
10
284.979200222
20
1.7888
11
285.837977778
21
3.26583955556
0
ARC
5
D0
100
AcDbEntity
8
0
6
ByLayer
62
256
370
-1
100
AcDbCircle
10
285.645844444
20
3.377536
40
0.222222222222
100
AcDbArc
50
329.82546
51
20.529098
0
ARC
5
D1
100
AcDbEntity
8
0
6
ByLayer
62
256
370
-1
100
AcDbCircle
10
285.423622222
20
3.34435555556
40
0.444444444444
100
AcDbArc
50
14.477508
51
165.52247
0
LINE
5
D2
100
AcDbEntity
8
0
6
ByLayer
62
256
370
-1
100
AcDbLine
10
287.4236
20
1.78879977797
11
286.534733556
21
1.7888
0
LINE
5
D3
100
AcDbEntity
8
0
6
ByLayer
62
256
370
-1
100
AcDbLine
10
286.534733556
20
1.7888
11
287.393511111
21
3.26583955556
0
ARC
5
D4
100
AcDbEntity
8
0
6
ByLayer
62
256
370
-1
100
AcDbCircle
10
287.201377778
20
3.377536
40
0.222222222222
100
AcDbArc
50
329.82546
51
20.529098
0
ARC
5
D5
100
AcDbEntity
8
0
6
ByLayer
62
256
370
-1
100
AcDbCircle
10
286.979155556
20
3.34435555556
40
0.444444444444
100
AcDbArc
50
14.477508
51
165.52247
0
LINE
5
D6
100
AcDbEntity
8
0
6
ByLayer
62
256
370
-1
100
AcDbLine
10
288.822400222
20
10.5144666667
11
288.8224
21
9.62560022222
0
LINE
5
D7
100
AcDbEntity
8
0
6
ByLayer
62
256
370
-1
100
AcDbLine
10
288.8224
20
9.62560022222
11
287.345360444
21
10.4843777778
0
ARC
5
D8
100
AcDbEntity
8
0
6
ByLayer
62
256
370
-1
100
AcDbCircle
10
287.233664
20
10.2922444444
40
0.222222222222
100
AcDbArc
50
59.82546
51
110.529098
0
ARC
5
D9
100
AcDbEntity
8
0
6
ByLayer
62
256
370
-1
100
AcDbCircle
10
287.266844444
20
10.0700222222
40
0.444444444444
100
AcDbArc
50
104.477508
51
255.52247
0
LINE
5
DA
100
AcDbEntity
8
0
6
ByLayer
62
256
370
-1
100
AcDbLine
10
287.6677
20
12.0700222222
11
287.266844444
21
12.0700222222
0
LINE
5
DB
100
AcDbEntity
8
0
6
ByLayer
62
256
370
-1
100
AcDbLine
10
287.266844444
20
11.1811111111
11
287.489066889
21
11.1811111111
0
LINE
5
DC
100
AcDbEntity
8
0
6
ByLayer
62
256
370
-1
100
AcDbLine
10
287.933511111
20
11.6255777778
11
287.933511111
21
12.0432666667
0
ARC
5
DD
100
AcDbEntity
8
0
6
ByLayer
62
256
370
-1
100
AcDbCircle
10
287.6677
20
10.7366666667
40
1.33333333333
100
AcDbArc
50
30
51
90
0
ARC
5
DE
100
AcDbEntity
8
0
6
ByLayer
62
256
370
-1
100
AcDbCircle
10
287.266844444
20
11.6255777778
40
0.444444444444
100
AcDbArc
50
90
51
270
0
ARC
5
DF
100
AcDbEntity
8
0
6
ByLayer
62
256
370
-1
100
AcDbCircle
10
287.489066889
20
11.6255777778
40
0.444444444444
100
AcDbArc
50
270
51
360
0
ARC
5
E0
100
AcDbEntity
8
0
6
ByLayer
62
256
370
-1
100
AcDbCircle
10
287.064513333
20
13.1811333333
40
0.242113333333
100
AcDbArc
50
122.75695
51
237.243042
0
ARC
5
E1
100
AcDbEntity
8
0
6
ByLayer
62
256
370
-1
100
AcDbCircle
10
287.572728889
20
13.8329888889
40
1.06790888889
100
AcDbArc
50
233.232468
51
259.491135
0
ARC
5
E2
100
AcDbEntity
8
0
6
ByLayer
62
256
370
-1
100
AcDbCircle
10
288.072071111
20
13.8329888889
40
1.06790888889
100
AcDbArc
50
280.508865
51
306.767532
0
ARC
5
E3
100
AcDbEntity
8
0
6
ByLayer
62
256
370
-1
100
AcDbCircle
10
288.580286667
20
13.1811333333
40
0.242113333333
100
AcDbArc
50
302.756958
51
57.243042
0
ARC
5
E4
100
AcDbEntity
8
0
6
ByLayer
62
256
370
-1
100
AcDbCircle
10
288.072071111
20
12.5292777778
40
1.06790888889
100
AcDbArc
50
53.232452
51
79.491119
0
ARC
5
E5
100
AcDbEntity
8
0
6
ByLayer
62
256
370
-1
100
AcDbCircle
10
287.829275556
20
11.5356526667
40
2.08994
100
AcDbArc
50
77.913147
51
90.18851
0
ARC
5
E6
100
AcDbEntity
8
0
6
ByLayer
62
256
370
-1
100
AcDbCircle
10
287.815524444
20
11.5356526667
40
2.08994
100
AcDbArc
50
89.811493
51
102.08686
0
ARC
5
E7
100
AcDbEntity
8
0
6
ByLayer
62
256
370
-1
100
AcDbCircle
10
287.572728889
20
12.5292777778
40
1.06790888889
100
AcDbArc
50
100.50887
51
126.76754
0
ARC
5
E8
100
AcDbEntity
8
0
6
ByLayer
62
256
370
-1
100
AcDbCircle
10
287.829275556
20
14.826614
40
2.08994
100
AcDbArc
50
269.811493
51
282.086868
0
ARC
5
E9
100
AcDbEntity
8
0
6
ByLayer
62
256
370
-1
100
AcDbCircle
10
287.815524444
20
14.826614
40
2.08994
100
AcDbArc
50
257.913132
51
270.188507
0
LINE
5
EA
100
AcDbEntity
8
0
6
ByLayer
62
256
370
-1
100
AcDbLine
10
3.63840022203
20
10.3915866667
11
3.6384
21
9.50272022222
0
LINE
5
EB
100
AcDbEntity
8
0
6
ByLayer
62
256
370
-1
100
AcDbLine
10
3.6384
20
9.50272022222
11
2.16136044444
21
10.3614977778
0
ARC
5
EC
100
AcDbEntity
8
0
6
ByLayer
62
256
370
-1
100
AcDbCircle
10
2.049664
20
10.1693644444
40
0.222222222222
100
AcDbArc
50
59.82546
51
110.529098
0
ARC
5
ED
100
AcDbEntity
8
0
6
ByLayer
62
256
370
-1
100
AcDbCircle
10
2.08284444444
20
9.94714222222
40
0.444444444444
100
AcDbArc
50
104.477508
51
255.52247
0
LINE
5
EE
100
AcDbEntity
8
0
6
ByLayer
62
256
370
-1
100
AcDbLine
10
2.4837
20
11.9471422222
11
2.08284444444
21
11.9471422222
0
LINE
5
EF
100
AcDbEntity
8
0
6
ByLayer
62
256
370
-1
100
AcDbLine
10
2.08284444444
20
11.0582311111
11
2.30506688889
21
11.0582311111
0
LINE
5
F0
100
AcDbEntity
8
0
6
ByLayer
62
256
370
-1
100
AcDbLine
10
2.74951111111
20
11.5026977778
11
2.74951111111
21
11.9203866667
0
ARC
5
F1
100
AcDbEntity
8
0
6
ByLayer
62
256
370
-1
100
AcDbCircle
10
2.4837
20
10.6137866667
40
1.33333333333
100
AcDbArc
50
30
51
90
0
ARC
5
F2
100
AcDbEntity
8
0
6
ByLayer
62
256
370
-1
100
AcDbCircle
10
2.08284444444
20
11.5026977778
40
0.444444444444
100
AcDbArc
50
90
51
270
0
ARC
5
F3
100
AcDbEntity
8
0
6
ByLayer
62
256
370
-1
100
AcDbCircle
10
2.30506688889
20
11.5026977778
40
0.444444444444
100
AcDbArc
50
270
51
360
0
ARC
5
F4
100
AcDbEntity
8
0
6
ByLayer
62
256
370
-1
100
AcDbCircle
10
1.88051333333
20
13.0582533333
40
0.242113333333
100
AcDbArc
50
122.75695
51
237.243042
0
ARC
5
F5
100
AcDbEntity
8
0
6
ByLayer
62
256
370
-1
100
AcDbCircle
10
2.38872888889
20
13.7101088889
40
1.06790888889
100
AcDbArc
50
233.232468
51
259.491135
0
ARC
5
F6
100
AcDbEntity
8
0
6
ByLayer
62
256
370
-1
100
AcDbCircle
10
2.88807111111
20
13.7101088889
40
1.06790888889
100
AcDbArc
50
280.508865
51
306.767532
0
ARC
5
F7
100
AcDbEntity
8
0
6
ByLayer
62
256
370
-1
100
AcDbCircle
10
3.39628666667
20
13.0582533333
40
0.242113333333
100
AcDbArc
50
302.756958
51
57.243042
0
ARC
5
F8
100
AcDbEntity
8
0
6
ByLayer
62
256
370
-1
100
AcDbCircle
10
2.88807111111
20
12.4063977778
40
1.06790888889
100
AcDbArc
50
53.232452
51
79.491119
0
ARC
5
F9
100
AcDbEntity
8
0
6
ByLayer
62
256
370
-1
100
AcDbCircle
10
2.64527555556
20
11.4127726667
40
2.08994
100
AcDbArc
50
77.913147
51
90.18851
0
ARC
5
FA
100
AcDbEntity
8
0
6
ByLayer
62
256
370
-1
100
AcDbCircle
10
2.63152444444
20
11.4127726667
40
2.08994
100
AcDbArc
50
89.811493
51
102.08686
0
ARC
5
FB
100
AcDbEntity
8
0
6
ByLayer
62
256
370
-1
100
AcDbCircle
10
2.38872888889
20
12.4063977778
40
1.06790888889
100
AcDbArc
50
100.50887
51
126.76754
0
ARC
5
FC
100
AcDbEntity
8
0
6
ByLayer
62
256
370
-1
100
AcDbCircle
10
2.64527555556
20
14.703734
40
2.08994
100
AcDbArc
50
269.811493
51
282.086868
0
ARC
5
FD
100
AcDbEntity
8
0
6
ByLayer
62
256
370
-1
100
AcDbCircle
10
2.63152444444
20
14.703734
40
2.08994
100
AcDbArc
50
257.913132
51
270.188507
0
LINE
5
FE
100
AcDbEntity
8
0
6
ByLayer
62
256
370
-1
100
AcDbLine
10
58.7714844444
20
-7.40559022222
11
58.32704
21
-6.96114577778
0
LINE
5
FF
100
AcDbEntity
8
0
6
ByLayer
62
256
370
-1
100
AcDbLine
10
58.32704
20
-6.96114577778
11
60.3270402222
21
-6.96114577778
0
LINE
5
100
100
AcDbEntity
8
0
6
ByLayer
62
256
370
-1
100
AcDbLine
10
58.32704
20
-6.29447911111
11
58.32704
21
-5.40561244444
0
LINE
5
101
100
AcDbEntity
8
0
6
ByLayer
62
256
370
-1
100
AcDbLine
10
58.32704
20
-5.40561244444
11
60.3270402222
21
-5.96114577778
0
LINE
5
102
100
AcDbEntity
8
0
6
ByLayer
62
256
370
-1
100
AcDbLine
10
59.2159291111
20
-5.85005688889
11
59.2159291111
21
-5.40561244444
0
LINE
5
103
100
AcDbEntity
8
0
6
ByLayer
62
256
370
-1
100
AcDbLine
10
58.32704
20
-3.85005688889
11
58.32704
21
-4.738968
0
LINE
5
104
100
AcDbEntity
8
0
6
ByLayer
62
256
370
-1
100
AcDbLine
10
58.32704
20
-4.738968
11
59.2159291111
21
-4.738968
0
LINE
5
105
100
AcDbEntity
8
0
6
ByLayer
62
256
370
-1
100
AcDbLine
10
59.2159291111
20
-4.738968
11
59.2159291111
21
-4.29452355556
0
LINE
5
106
100
AcDbEntity
8
0
6
ByLayer
62
256
370
-1
100
AcDbLine
10
59.6603733333
20
-3.85005688889
11
59.8825955556
21
-3.85005688889
0
LINE
5
107
100
AcDbEntity
8
0
6
ByLayer
62
256
370
-1
100
AcDbLine
10
60.3270402222
20
-4.29452355556
11
60.3270402222
21
-4.738968
0
ARC
5
108
100
AcDbEntity
8
0
6
ByLayer
62
256
370
-1
100
AcDbCircle
10
59.6603733333
20
-4.29452355556
40
0.444444444444
100
AcDbArc
50
90
51
180
0
ARC
5
109
100
AcDbEntity
8
0
6
ByLayer
62
256
370
-1
100
AcDbCircle
10
59.8825955556
20
-4.29452355556
40
0.444444444444
100
AcDbArc
50
360
51
90
0
LINE
5
10A
100
AcDbEntity
8
0
6
ByLayer
62
256
370
-1
100
AcDbLine
10
230.090977052
20
-8.42218465422
11
229.646532608
21
-7.97774020978
0
LINE
5
10B
100
AcDbEntity
8
0
6
ByLayer
62
256
370
-1
100
AcDbLine
10
229.646532608
20
-7.97774020978
11
231.64653283
21
-7.97774020978
0
LINE
5
10C
100
AcDbEntity
8
0
6
ByLayer
62
256
370
-1
100
AcDbLine
10
229.646532608
20
-7.31107354311
11
229.646532608
21
-6.42220687644
0
LINE
5
10D
100
AcDbEntity
8
0
6
ByLayer
62
256
370
-1
100
AcDbLine
10
229.646532608
20
-6.42220687644
11
231.64653283
21
-6.97774020978
0
LINE
5
10E
100
AcDbEntity
8
0
6
ByLayer
62
256
370
-1
100
AcDbLine
10
230.535421719
20
-6.86665132089
11
230.535421719
21
-6.42220687644
0
LINE
5
10F
100
AcDbEntity
8
0
6
ByLayer
62
256
370
-1
100
AcDbLine
10
229.646532608
20
-4.86665132089
11
229.646532608
21
-5.755562432
0
LINE
5
110
100
AcDbEntity
8
0
6
ByLayer
62
256
370
-1
100
AcDbLine
10
229.646532608
20
-5.755562432
11
230.535421719
21
-5.755562432
0
LINE
5
111
100
AcDbEntity
8
0
6
ByLayer
62
256
370
-1
100
AcDbLine
10
230.535421719
20
-5.755562432
11
230.535421719
21
-5.31111798756
0
LINE
5
112
100
AcDbEntity
8
0
6
ByLayer
62
256
370
-1
100
AcDbLine
10
230.979865941
20
-4.86665132089
11
231.202088164
21
-4.86665132089
0
LINE
5
113
100
AcDbEntity
8
0
6
ByLayer
62
256
370
-1
100
AcDbLine
10
231.64653283
20
-5.31111798756
11
231.64653283
21
-5.755562432
0
ARC
5
114
100
AcDbEntity
8
0
6
ByLayer
62
256
370
-1
100
AcDbCircle
10
230.979865941
20
-5.31111798756
40
0.444444444444
100
AcDbArc
50
90
51
180
0
ARC
5
115
100
AcDbEntity
8
0
6
ByLayer
62
256
370
-1
100
AcDbCircle
10
231.202088164
20
-5.31111798756
40
0.444444444444
100
AcDbArc
50
360
51
90
0
MTEXT
5
116
100
AcDbEntity
8
0
6
ByLayer
62
256
370
-1
100
AcDbMText
10
124.202020202
20
62.1010101009
30
0
40
5
41
60.2777777778
71
1
72
1
1
Material MDF 6mm\PSatuan mm
7
standard
210
0
220
0
230
1
50
0
73
2
44
1
0
ENDSEC
0
SECTION
2
OBJECTS
0
DICTIONARY
5
C
330
0
100
AcDbDictionary
281
1
3
ACAD_GROUP
350
D
0
DICTIONARY
5
D
330
C
100
AcDbDictionary
281
1
0
ENDSEC
0
EOF
