solid OpenSCAD_Model
  facet normal 0.866045 0.499966 0
    outer loop
      vertex -5.986 69.57 0
      vertex -5.986 69.57 13.5
      vertex 0 59.201 13.5
    endloop
  endfacet
  facet normal 0.866045 0.499966 0
    outer loop
      vertex 0 59.201 0
      vertex -5.986 69.57 0
      vertex 0 59.201 13.5
    endloop
  endfacet
  facet normal 0 0 -1
    outer loop
      vertex -54.84 37.522 0
      vertex -53.287 43.325 0
      vertex -55.361 31.538 0
    endloop
  endfacet
  facet normal 0 0 -1
    outer loop
      vertex -55.361 31.538 0
      vertex -53.287 43.325 0
      vertex -50.751 48.77 0
    endloop
  endfacet
  facet normal 0 0 -1
    outer loop
      vertex -49.601 47.402 0
      vertex -50.751 48.77 0
      vertex -47.307 53.692 0
    endloop
  endfacet
  facet normal 0 0 -1
    outer loop
      vertex -46.401 47.402 0
      vertex -43.061 57.941 0
      vertex -38.141 61.388 0
    endloop
  endfacet
  facet normal 0 0 -1
    outer loop
      vertex -38.498 50.955 0
      vertex -38.141 61.388 0
      vertex -18.277 72.863 0
    endloop
  endfacet
  facet normal 0 0 -1
    outer loop
      vertex -14.1579 63.4048 0
      vertex -18.277 72.863 0
      vertex -5.986 69.57 0
    endloop
  endfacet
  facet normal 0 0 -1
    outer loop
      vertex -6.41571 60.8892 0
      vertex -5.986 69.57 0
      vertex 0 59.201 0
    endloop
  endfacet
  facet normal 0 0 -1
    outer loop
      vertex -23.438 42.261 0
      vertex 0 59.201 0
      vertex -3.405 47.104 0
    endloop
  endfacet
  facet normal 0 0 -1
    outer loop
      vertex -23.438 37.395 0
      vertex -3.405 47.104 0
      vertex -20.739 37.097 0
    endloop
  endfacet
  facet normal 0 0 -1
    outer loop
      vertex -24.194 35.069 0
      vertex -20.739 37.097 0
      vertex -18.967 34.029 0
    endloop
  endfacet
  facet normal 0 0 -1
    outer loop
      vertex -20.963 33.639 0
      vertex -18.967 34.029 0
      vertex -18.559 32.62 0
    endloop
  endfacet
  facet normal 0 0 -1
    outer loop
      vertex -20.163 32.253 0
      vertex -18.559 32.62 0
      vertex -18.852 31.183 0
    endloop
  endfacet
  facet normal 0 0 -1
    outer loop
      vertex -20.963 30.868 0
      vertex -18.852 31.183 0
      vertex -19.779 30.047 0
    endloop
  endfacet
  facet normal 0 0 -1
    outer loop
      vertex -33.659 28.192 0
      vertex -25.199 29.471 0
      vertex -25.199 9.18 0
    endloop
  endfacet
  facet normal 0 0 -1
    outer loop
      vertex -35.6767 8.27182 0
      vertex -25.199 9.18 0
      vertex -32.6 1.779 0
    endloop
  endfacet
  facet normal 0 0 -1
    outer loop
      vertex -41.7264 4.77903 0
      vertex -32.6 1.779 0
      vertex -32.6 -17 0
    endloop
  endfacet
  facet normal 0 0 -1
    outer loop
      vertex -40.8849 0 0
      vertex -32.6 -17 0
      vertex -40.8849 -17 0
    endloop
  endfacet
  facet normal 0 0 -1
    outer loop
      vertex -43.4189 5.75622 0
      vertex -32.6 -17 0
      vertex -40.8849 0 0
    endloop
  endfacet
  facet normal 0 0 -1
    outer loop
      vertex -7.21062 57.1494 0
      vertex 0 59.201 0
      vertex -8.663 55.8417 0
    endloop
  endfacet
  facet normal 0 0 -1
    outer loop
      vertex -55.361 31.538 0
      vertex -46.301 0 0
      vertex -55.351 9.049 0
    endloop
  endfacet
  facet normal 0 0 -1
    outer loop
      vertex -14.1579 63.4048 0
      vertex -5.986 69.57 0
      vertex -12.4654 64.382 0
    endloop
  endfacet
  facet normal 0 0 -1
    outer loop
      vertex -29.032 49.96 0
      vertex -15.713 59.912 0
      vertex -15.3067 58.0003 0
    endloop
  endfacet
  facet normal 0 0 -1
    outer loop
      vertex -31.267 50.955 0
      vertex -15.713 59.912 0
      vertex -29.032 49.96 0
    endloop
  endfacet
  facet normal 0 0 -1
    outer loop
      vertex -23.363 32.253 0
      vertex -25.417 32.951 0
      vertex -22.563 33.639 0
    endloop
  endfacet
  facet normal 0 0 -1
    outer loop
      vertex -27.053 48.523 0
      vertex -14.1579 56.4192 0
      vertex -12.4654 55.442 0
    endloop
  endfacet
  facet normal 0 0 -1
    outer loop
      vertex -23.438 42.261 0
      vertex -3.405 47.104 0
      vertex -23.182 39.828 0
    endloop
  endfacet
  facet normal 0 0 -1
    outer loop
      vertex -25.417 46.705 0
      vertex -8.663 55.8417 0
      vertex 0 59.201 0
    endloop
  endfacet
  facet normal 0 0 -1
    outer loop
      vertex -6.41571 58.9348 0
      vertex 0 59.201 0
      vertex -7.21062 57.1494 0
    endloop
  endfacet
  facet normal 0 0 -1
    outer loop
      vertex -6.41571 60.8892 0
      vertex 0 59.201 0
      vertex -6.41571 58.9348 0
    endloop
  endfacet
  facet normal 0 0 -1
    outer loop
      vertex -7.21062 62.6746 0
      vertex -5.986 69.57 0
      vertex -6.41571 60.8892 0
    endloop
  endfacet
  facet normal 0 0 -1
    outer loop
      vertex -12.4654 64.382 0
      vertex -5.986 69.57 0
      vertex -10.5217 64.5863 0
    endloop
  endfacet
  facet normal 0 0 -1
    outer loop
      vertex -8.663 63.9823 0
      vertex -5.986 69.57 0
      vertex -7.21062 62.6746 0
    endloop
  endfacet
  facet normal 0 0 -1
    outer loop
      vertex -10.5217 64.5863 0
      vertex -5.986 69.57 0
      vertex -8.663 63.9823 0
    endloop
  endfacet
  facet normal 0 0 -1
    outer loop
      vertex -33.659 51.464 0
      vertex -18.277 72.863 0
      vertex -14.1579 63.4048 0
    endloop
  endfacet
  facet normal 0 0 -1
    outer loop
      vertex -29.032 49.96 0
      vertex -14.1579 56.4192 0
      vertex -27.053 48.523 0
    endloop
  endfacet
  facet normal 0 0 -1
    outer loop
      vertex -20.163 32.253 0
      vertex -18.852 31.183 0
      vertex -20.963 30.868 0
    endloop
  endfacet
  facet normal 0 0 -1
    outer loop
      vertex -22.563 30.868 0
      vertex -20.963 30.868 0
      vertex -19.779 30.047 0
    endloop
  endfacet
  facet normal 0 0 -1
    outer loop
      vertex -20.963 33.639 0
      vertex -18.559 32.62 0
      vertex -20.163 32.253 0
    endloop
  endfacet
  facet normal 0 0 -1
    outer loop
      vertex -22.563 33.639 0
      vertex -18.967 34.029 0
      vertex -20.963 33.639 0
    endloop
  endfacet
  facet normal 0 0 -1
    outer loop
      vertex -46.326 37.395 0
      vertex -55.361 31.538 0
      vertex -46.582 39.828 0
    endloop
  endfacet
  facet normal 0 0 -1
    outer loop
      vertex -45.57 35.069 0
      vertex -55.361 31.538 0
      vertex -46.326 37.395 0
    endloop
  endfacet
  facet normal 0 0 -1
    outer loop
      vertex -44.348 32.951 0
      vertex -55.361 31.538 0
      vertex -45.57 35.069 0
    endloop
  endfacet
  facet normal 0 0 -1
    outer loop
      vertex -24.194 35.069 0
      vertex -22.563 33.639 0
      vertex -25.417 32.951 0
    endloop
  endfacet
  facet normal 0 0 -1
    outer loop
      vertex -42.711 31.133 0
      vertex -55.361 31.538 0
      vertex -44.348 32.951 0
    endloop
  endfacet
  facet normal 0 0 -1
    outer loop
      vertex -40.732 29.695 0
      vertex -55.361 31.538 0
      vertex -42.711 31.133 0
    endloop
  endfacet
  facet normal 0 0 -1
    outer loop
      vertex -27.053 31.133 0
      vertex -22.563 30.868 0
      vertex -19.779 30.047 0
    endloop
  endfacet
  facet normal 0 0 -1
    outer loop
      vertex -55.361 31.538 0
      vertex -40.732 29.695 0
      vertex -25.199 9.18 0
    endloop
  endfacet
  facet normal 0 0 -1
    outer loop
      vertex -27.053 31.133 0
      vertex -19.779 30.047 0
      vertex -21.128 29.471 0
    endloop
  endfacet
  facet normal 0 0 -1
    outer loop
      vertex -40.732 29.695 0
      vertex -38.498 28.701 0
      vertex -25.199 9.18 0
    endloop
  endfacet
  facet normal 0 0 -1
    outer loop
      vertex -27.053 31.133 0
      vertex -21.128 29.471 0
      vertex -25.199 29.471 0
    endloop
  endfacet
  facet normal 0 0 -1
    outer loop
      vertex -38.498 28.701 0
      vertex -36.105 28.192 0
      vertex -25.199 9.18 0
    endloop
  endfacet
  facet normal 0 0 -1
    outer loop
      vertex -31.267 28.701 0
      vertex -25.199 29.471 0
      vertex -33.659 28.192 0
    endloop
  endfacet
  facet normal 0 0 -1
    outer loop
      vertex -36.105 28.192 0
      vertex -33.659 28.192 0
      vertex -25.199 9.18 0
    endloop
  endfacet
  facet normal 0 0 -1
    outer loop
      vertex -27.053 31.133 0
      vertex -25.199 29.471 0
      vertex -29.032 29.695 0
    endloop
  endfacet
  facet normal 0 0 -1
    outer loop
      vertex -29.032 29.695 0
      vertex -25.199 29.471 0
      vertex -31.267 28.701 0
    endloop
  endfacet
  facet normal 0 0 -1
    outer loop
      vertex -22.563 30.868 0
      vertex -27.053 31.133 0
      vertex -23.363 32.253 0
    endloop
  endfacet
  facet normal 0 0 -1
    outer loop
      vertex -27.053 48.523 0
      vertex -8.663 55.8417 0
      vertex -25.417 46.705 0
    endloop
  endfacet
  facet normal 0 0 -1
    outer loop
      vertex -23.438 37.395 0
      vertex -20.739 37.097 0
      vertex -24.194 35.069 0
    endloop
  endfacet
  facet normal 0 0 -1
    outer loop
      vertex -23.182 39.828 0
      vertex -3.405 47.104 0
      vertex -23.438 37.395 0
    endloop
  endfacet
  facet normal 0 0 -1
    outer loop
      vertex -24.194 35.069 0
      vertex -18.967 34.029 0
      vertex -22.563 33.639 0
    endloop
  endfacet
  facet normal 0 0 -1
    outer loop
      vertex -24.194 44.587 0
      vertex 0 59.201 0
      vertex -23.438 42.261 0
    endloop
  endfacet
  facet normal 0 0 -1
    outer loop
      vertex -25.417 46.705 0
      vertex 0 59.201 0
      vertex -24.194 44.587 0
    endloop
  endfacet
  facet normal 0 0 -1
    outer loop
      vertex -27.053 48.523 0
      vertex -10.5217 55.2377 0
      vertex -8.663 55.8417 0
    endloop
  endfacet
  facet normal 0 0 -1
    outer loop
      vertex -25.417 32.951 0
      vertex -23.363 32.253 0
      vertex -27.053 31.133 0
    endloop
  endfacet
  facet normal 0 0 -1
    outer loop
      vertex -29.032 49.96 0
      vertex -15.3067 58.0003 0
      vertex -14.1579 56.4192 0
    endloop
  endfacet
  facet normal 0 0 -1
    outer loop
      vertex -27.053 48.523 0
      vertex -12.4654 55.442 0
      vertex -10.5217 55.2377 0
    endloop
  endfacet
  facet normal 0 0 -1
    outer loop
      vertex -36.105 51.464 0
      vertex -18.277 72.863 0
      vertex -33.659 51.464 0
    endloop
  endfacet
  facet normal 0 0 -1
    outer loop
      vertex -38.498 50.955 0
      vertex -18.277 72.863 0
      vertex -36.105 51.464 0
    endloop
  endfacet
  facet normal 0 0 -1
    outer loop
      vertex -40.732 49.96 0
      vertex -38.141 61.388 0
      vertex -38.498 50.955 0
    endloop
  endfacet
  facet normal 0 0 -1
    outer loop
      vertex -31.267 50.955 0
      vertex -14.1579 63.4048 0
      vertex -15.3067 61.8237 0
    endloop
  endfacet
  facet normal 0 0 -1
    outer loop
      vertex -42.711 48.523 0
      vertex -38.141 61.388 0
      vertex -40.732 49.96 0
    endloop
  endfacet
  facet normal 0 0 -1
    outer loop
      vertex -44.348 46.705 0
      vertex -38.141 61.388 0
      vertex -42.711 48.523 0
    endloop
  endfacet
  facet normal 0 0 -1
    outer loop
      vertex -55.361 31.538 0
      vertex -38.141 61.388 0
      vertex -44.348 46.705 0
    endloop
  endfacet
  facet normal 0 0 -1
    outer loop
      vertex -46.326 42.261 0
      vertex -55.361 31.538 0
      vertex -45.57 44.587 0
    endloop
  endfacet
  facet normal 0 0 -1
    outer loop
      vertex -35.6767 8.27182 0
      vertex -32.6 1.779 0
      vertex -36.4716 6.48641 0
    endloop
  endfacet
  facet normal 0 0 -1
    outer loop
      vertex -44.974 9.249 0
      vertex -55.361 31.538 0
      vertex -44.5677 11.1607 0
    endloop
  endfacet
  facet normal 0 0 -1
    outer loop
      vertex -33.659 51.464 0
      vertex -14.1579 63.4048 0
      vertex -31.267 50.955 0
    endloop
  endfacet
  facet normal 0 0 -1
    outer loop
      vertex -44.5677 7.33734 0
      vertex -55.361 31.538 0
      vertex -44.974 9.249 0
    endloop
  endfacet
  facet normal 0 0 -1
    outer loop
      vertex -43.4189 5.75622 0
      vertex -40.8849 0 0
      vertex -44.5677 7.33734 0
    endloop
  endfacet
  facet normal 0 0 -1
    outer loop
      vertex -41.7264 4.77903 0
      vertex -32.6 -17 0
      vertex -43.4189 5.75622 0
    endloop
  endfacet
  facet normal 0 0 -1
    outer loop
      vertex -39.7827 4.57475 0
      vertex -32.6 1.779 0
      vertex -41.7264 4.77903 0
    endloop
  endfacet
  facet normal 0 0 -1
    outer loop
      vertex -37.924 5.17868 0
      vertex -32.6 1.779 0
      vertex -39.7827 4.57475 0
    endloop
  endfacet
  facet normal 0 0 -1
    outer loop
      vertex -36.4716 6.48641 0
      vertex -32.6 1.779 0
      vertex -37.924 5.17868 0
    endloop
  endfacet
  facet normal 0 0 -1
    outer loop
      vertex -35.6767 10.2262 0
      vertex -25.199 9.18 0
      vertex -35.6767 8.27182 0
    endloop
  endfacet
  facet normal 0 0 -1
    outer loop
      vertex -39.7827 13.9233 0
      vertex -55.361 31.538 0
      vertex -37.924 13.3193 0
    endloop
  endfacet
  facet normal 0 0 -1
    outer loop
      vertex -36.4716 12.0116 0
      vertex -25.199 9.18 0
      vertex -35.6767 10.2262 0
    endloop
  endfacet
  facet normal 0 0 -1
    outer loop
      vertex -55.361 31.538 0
      vertex -25.199 9.18 0
      vertex -36.4716 12.0116 0
    endloop
  endfacet
  facet normal 0 0 -1
    outer loop
      vertex -55.361 31.538 0
      vertex -36.4716 12.0116 0
      vertex -37.924 13.3193 0
    endloop
  endfacet
  facet normal 0 0 -1
    outer loop
      vertex -41.7264 13.719 0
      vertex -55.361 31.538 0
      vertex -39.7827 13.9233 0
    endloop
  endfacet
  facet normal 0 0 -1
    outer loop
      vertex -43.4189 12.7418 0
      vertex -55.361 31.538 0
      vertex -41.7264 13.719 0
    endloop
  endfacet
  facet normal 0 0 -1
    outer loop
      vertex -44.5677 11.1607 0
      vertex -55.361 31.538 0
      vertex -43.4189 12.7418 0
    endloop
  endfacet
  facet normal 0 0 -1
    outer loop
      vertex -49.601 47.402 0
      vertex -47.307 53.692 0
      vertex -48.801 48.788 0
    endloop
  endfacet
  facet normal 0 0 -1
    outer loop
      vertex -55.361 31.538 0
      vertex -50.751 48.77 0
      vertex -49.601 47.402 0
    endloop
  endfacet
  facet normal 0 0 -1
    outer loop
      vertex -48.801 46.017 0
      vertex -55.361 31.538 0
      vertex -49.601 47.402 0
    endloop
  endfacet
  facet normal 0 0 -1
    outer loop
      vertex -48.801 48.788 0
      vertex -47.307 53.692 0
      vertex -43.061 57.941 0
    endloop
  endfacet
  facet normal 0 0 -1
    outer loop
      vertex -55.361 31.538 0
      vertex -47.201 46.017 0
      vertex -38.141 61.388 0
    endloop
  endfacet
  facet normal 0 0 -1
    outer loop
      vertex -48.801 48.788 0
      vertex -43.061 57.941 0
      vertex -47.201 48.788 0
    endloop
  endfacet
  facet normal 0 0 -1
    outer loop
      vertex -47.201 46.017 0
      vertex -46.401 47.402 0
      vertex -38.141 61.388 0
    endloop
  endfacet
  facet normal 0 0 -1
    outer loop
      vertex -47.201 48.788 0
      vertex -43.061 57.941 0
      vertex -46.401 47.402 0
    endloop
  endfacet
  facet normal 0 0 -1
    outer loop
      vertex -47.201 46.017 0
      vertex -55.361 31.538 0
      vertex -48.801 46.017 0
    endloop
  endfacet
  facet normal 0 0 -1
    outer loop
      vertex -46.301 0 0
      vertex -55.361 31.538 0
      vertex -44.5677 7.33734 0
    endloop
  endfacet
  facet normal 0 0 -1
    outer loop
      vertex -46.301 0 0
      vertex -44.5677 7.33734 0
      vertex -40.8849 0 0
    endloop
  endfacet
  facet normal 0 0 -1
    outer loop
      vertex -46.582 39.828 0
      vertex -55.361 31.538 0
      vertex -46.326 42.261 0
    endloop
  endfacet
  facet normal 0 0 -1
    outer loop
      vertex -45.57 44.587 0
      vertex -55.361 31.538 0
      vertex -44.348 46.705 0
    endloop
  endfacet
  facet normal 0 0 -1
    outer loop
      vertex -31.267 50.955 0
      vertex -15.3067 61.8237 0
      vertex -15.713 59.912 0
    endloop
  endfacet
  facet normal 0.962595 -0.270946 0
    outer loop
      vertex -3.405 47.104 0
      vertex 0 59.201 0
      vertex 0 59.201 13.5
    endloop
  endfacet
  facet normal 0.962595 -0.270946 0
    outer loop
      vertex -3.405 47.104 13.5
      vertex -3.405 47.104 0
      vertex 0 59.201 13.5
    endloop
  endfacet
  facet normal 0.258792 0.965933 0
    outer loop
      vertex -18.277 72.863 13.5
      vertex -5.986 69.57 13.5
      vertex -18.277 72.863 0
    endloop
  endfacet
  facet normal 0.258792 0.965933 0
    outer loop
      vertex -18.277 72.863 0
      vertex -5.986 69.57 13.5
      vertex -5.986 69.57 0
    endloop
  endfacet
  facet normal 0 0 1
    outer loop
      vertex -55.361 31.538 13.5
      vertex -55.351 9.049 13.5
      vertex -47.6 1.29886 13.5
    endloop
  endfacet
  facet normal 0 0 1
    outer loop
      vertex -39.1151 -17 13.5
      vertex -55.361 31.538 13.5
      vertex -47.6 1.29886 13.5
    endloop
  endfacet
  facet normal 0 0 1
    outer loop
      vertex -47.6 -17 13.5
      vertex -39.1151 -17 13.5
      vertex -47.6 1.29886 13.5
    endloop
  endfacet
  facet normal 0 0 1
    outer loop
      vertex -38.498 28.701 13.5
      vertex -40.732 29.695 13.5
      vertex -55.361 31.538 13.5
    endloop
  endfacet
  facet normal 0 0 1
    outer loop
      vertex -37.924 13.3193 13.5
      vertex -25.199 9.18 13.5
      vertex -55.361 31.538 13.5
    endloop
  endfacet
  facet normal 0 0 1
    outer loop
      vertex -45.57 35.069 13.5
      vertex -46.326 37.395 13.5
      vertex -55.361 31.538 13.5
    endloop
  endfacet
  facet normal 0 0 1
    outer loop
      vertex -40.732 29.695 13.5
      vertex -42.711 31.133 13.5
      vertex -55.361 31.538 13.5
    endloop
  endfacet
  facet normal 0 0 1
    outer loop
      vertex -44.348 32.951 13.5
      vertex -45.57 35.069 13.5
      vertex -55.361 31.538 13.5
    endloop
  endfacet
  facet normal 0 0 1
    outer loop
      vertex -20.963 33.639 13.5
      vertex -20.163 32.253 13.5
      vertex -18.559 32.62 13.5
    endloop
  endfacet
  facet normal 0 0 1
    outer loop
      vertex -25.417 32.951 13.5
      vertex -27.053 31.133 13.5
      vertex -23.363 32.253 13.5
    endloop
  endfacet
  facet normal 0 0 1
    outer loop
      vertex -24.194 35.069 13.5
      vertex -22.563 33.639 13.5
      vertex -18.967 34.029 13.5
    endloop
  endfacet
  facet normal 0 0 1
    outer loop
      vertex -45.57 44.587 13.5
      vertex -44.348 46.705 13.5
      vertex -38.141 61.388 13.5
    endloop
  endfacet
  facet normal 0 0 1
    outer loop
      vertex -45.57 44.587 13.5
      vertex -38.141 61.388 13.5
      vertex -55.361 31.538 13.5
    endloop
  endfacet
  facet normal 0 0 1
    outer loop
      vertex -49.601 47.402 13.5
      vertex -50.751 48.77 13.5
      vertex -55.361 31.538 13.5
    endloop
  endfacet
  facet normal 0 0 1
    outer loop
      vertex -50.751 48.77 13.5
      vertex -53.287 43.325 13.5
      vertex -55.361 31.538 13.5
    endloop
  endfacet
  facet normal 0 0 1
    outer loop
      vertex -53.287 43.325 13.5
      vertex -54.84 37.522 13.5
      vertex -55.361 31.538 13.5
    endloop
  endfacet
  facet normal 0 0 1
    outer loop
      vertex -27.053 31.133 13.5
      vertex -21.128 29.471 13.5
      vertex -19.779 30.047 13.5
    endloop
  endfacet
  facet normal 0 0 1
    outer loop
      vertex -29.032 49.96 13.5
      vertex -27.053 48.523 13.5
      vertex -14.1579 56.4192 13.5
    endloop
  endfacet
  facet normal 0 0 1
    outer loop
      vertex -8.663 63.9823 13.5
      vertex -7.21062 62.6746 13.5
      vertex 0 59.201 13.5
    endloop
  endfacet
  facet normal 0 0 1
    outer loop
      vertex -5.986 69.57 13.5
      vertex -18.277 72.863 13.5
      vertex -14.1579 63.4048 13.5
    endloop
  endfacet
  facet normal 0 0 1
    outer loop
      vertex -12.4654 64.382 13.5
      vertex -10.5217 64.5863 13.5
      vertex -5.986 69.57 13.5
    endloop
  endfacet
  facet normal 0 0 1
    outer loop
      vertex -12.4654 55.442 13.5
      vertex -14.1579 56.4192 13.5
      vertex -27.053 48.523 13.5
    endloop
  endfacet
  facet normal 0 0 1
    outer loop
      vertex -8.663 63.9823 13.5
      vertex -5.986 69.57 13.5
      vertex -10.5217 64.5863 13.5
    endloop
  endfacet
  facet normal 0 0 1
    outer loop
      vertex -6.41571 60.8892 13.5
      vertex -6.41571 58.9348 13.5
      vertex 0 59.201 13.5
    endloop
  endfacet
  facet normal 0 0 1
    outer loop
      vertex 0 59.201 13.5
      vertex -5.986 69.57 13.5
      vertex -8.663 63.9823 13.5
    endloop
  endfacet
  facet normal 0 0 1
    outer loop
      vertex -23.438 37.395 13.5
      vertex -24.194 35.069 13.5
      vertex -20.739 37.097 13.5
    endloop
  endfacet
  facet normal 0 0 1
    outer loop
      vertex 0 59.201 13.5
      vertex -7.21062 62.6746 13.5
      vertex -6.41571 60.8892 13.5
    endloop
  endfacet
  facet normal 0 0 1
    outer loop
      vertex -27.053 31.133 13.5
      vertex -19.779 30.047 13.5
      vertex -22.563 30.868 13.5
    endloop
  endfacet
  facet normal 0 0 1
    outer loop
      vertex 0 59.201 13.5
      vertex -6.41571 58.9348 13.5
      vertex -7.21062 57.1494 13.5
    endloop
  endfacet
  facet normal 0 0 1
    outer loop
      vertex -44.974 9.249 13.5
      vertex -44.5677 11.1607 13.5
      vertex -55.361 31.538 13.5
    endloop
  endfacet
  facet normal 0 0 1
    outer loop
      vertex 0 59.201 13.5
      vertex -7.21062 57.1494 13.5
      vertex -8.663 55.8417 13.5
    endloop
  endfacet
  facet normal 0 0 1
    outer loop
      vertex -25.417 46.705 13.5
      vertex -24.194 44.587 13.5
      vertex 0 59.201 13.5
    endloop
  endfacet
  facet normal 0 0 1
    outer loop
      vertex -27.053 31.133 13.5
      vertex -29.032 29.695 13.5
      vertex -25.199 29.471 13.5
    endloop
  endfacet
  facet normal 0 0 1
    outer loop
      vertex -20.163 32.253 13.5
      vertex -20.963 30.868 13.5
      vertex -18.852 31.183 13.5
    endloop
  endfacet
  facet normal 0 0 1
    outer loop
      vertex -20.963 33.639 13.5
      vertex -18.967 34.029 13.5
      vertex -22.563 33.639 13.5
    endloop
  endfacet
  facet normal 0 0 1
    outer loop
      vertex -18.559 32.62 13.5
      vertex -18.967 34.029 13.5
      vertex -20.963 33.639 13.5
    endloop
  endfacet
  facet normal 0 0 1
    outer loop
      vertex -29.032 49.96 13.5
      vertex -14.1579 56.4192 13.5
      vertex -15.3067 58.0003 13.5
    endloop
  endfacet
  facet normal 0 0 1
    outer loop
      vertex -18.852 31.183 13.5
      vertex -18.559 32.62 13.5
      vertex -20.163 32.253 13.5
    endloop
  endfacet
  facet normal 0 0 1
    outer loop
      vertex -27.053 48.523 13.5
      vertex -25.417 46.705 13.5
      vertex -8.663 55.8417 13.5
    endloop
  endfacet
  facet normal 0 0 1
    outer loop
      vertex -19.779 30.047 13.5
      vertex -18.852 31.183 13.5
      vertex -20.963 30.868 13.5
    endloop
  endfacet
  facet normal 0 0 1
    outer loop
      vertex -19.779 30.047 13.5
      vertex -20.963 30.868 13.5
      vertex -22.563 30.868 13.5
    endloop
  endfacet
  facet normal 0 0 1
    outer loop
      vertex -33.659 51.464 13.5
      vertex -31.267 50.955 13.5
      vertex -14.1579 63.4048 13.5
    endloop
  endfacet
  facet normal 0 0 1
    outer loop
      vertex -46.326 42.261 13.5
      vertex -45.57 44.587 13.5
      vertex -55.361 31.538 13.5
    endloop
  endfacet
  facet normal 0 0 1
    outer loop
      vertex -42.711 48.523 13.5
      vertex -40.732 49.96 13.5
      vertex -18.277 72.863 13.5
    endloop
  endfacet
  facet normal 0 0 1
    outer loop
      vertex -42.711 48.523 13.5
      vertex -38.141 61.388 13.5
      vertex -44.348 46.705 13.5
    endloop
  endfacet
  facet normal 0 0 1
    outer loop
      vertex -18.277 72.863 13.5
      vertex -38.141 61.388 13.5
      vertex -42.711 48.523 13.5
    endloop
  endfacet
  facet normal 0 0 1
    outer loop
      vertex -31.267 50.955 13.5
      vertex -29.032 49.96 13.5
      vertex -15.713 59.912 13.5
    endloop
  endfacet
  facet normal 0 0 1
    outer loop
      vertex -18.277 72.863 13.5
      vertex -40.732 49.96 13.5
      vertex -38.498 50.955 13.5
    endloop
  endfacet
  facet normal 0 0 1
    outer loop
      vertex -14.1579 63.4048 13.5
      vertex -18.277 72.863 13.5
      vertex -36.105 51.464 13.5
    endloop
  endfacet
  facet normal 0 0 1
    outer loop
      vertex -31.267 50.955 13.5
      vertex -15.713 59.912 13.5
      vertex -15.3067 61.8237 13.5
    endloop
  endfacet
  facet normal 0 0 1
    outer loop
      vertex -14.1579 63.4048 13.5
      vertex -36.105 51.464 13.5
      vertex -33.659 51.464 13.5
    endloop
  endfacet
  facet normal 0 0 1
    outer loop
      vertex -46.582 39.828 13.5
      vertex -46.326 42.261 13.5
      vertex -55.361 31.538 13.5
    endloop
  endfacet
  facet normal 0 0 1
    outer loop
      vertex -27.053 31.133 13.5
      vertex -25.199 29.471 13.5
      vertex -21.128 29.471 13.5
    endloop
  endfacet
  facet normal 0 0 1
    outer loop
      vertex -15.3067 58.0003 13.5
      vertex -15.713 59.912 13.5
      vertex -29.032 49.96 13.5
    endloop
  endfacet
  facet normal 0 0 1
    outer loop
      vertex -31.267 50.955 13.5
      vertex -15.3067 61.8237 13.5
      vertex -14.1579 63.4048 13.5
    endloop
  endfacet
  facet normal 0 0 1
    outer loop
      vertex -23.438 42.261 13.5
      vertex -23.182 39.828 13.5
      vertex -3.405 47.104 13.5
    endloop
  endfacet
  facet normal 0 0 1
    outer loop
      vertex 0 59.201 13.5
      vertex -8.663 55.8417 13.5
      vertex -25.417 46.705 13.5
    endloop
  endfacet
  facet normal 0 0 1
    outer loop
      vertex -3.405 47.104 13.5
      vertex 0 59.201 13.5
      vertex -24.194 44.587 13.5
    endloop
  endfacet
  facet normal 0 0 1
    outer loop
      vertex -3.405 47.104 13.5
      vertex -24.194 44.587 13.5
      vertex -23.438 42.261 13.5
    endloop
  endfacet
  facet normal 0 0 1
    outer loop
      vertex -20.739 37.097 13.5
      vertex -3.405 47.104 13.5
      vertex -23.182 39.828 13.5
    endloop
  endfacet
  facet normal 0 0 1
    outer loop
      vertex -24.194 35.069 13.5
      vertex -25.417 32.951 13.5
      vertex -22.563 33.639 13.5
    endloop
  endfacet
  facet normal 0 0 1
    outer loop
      vertex -20.739 37.097 13.5
      vertex -23.182 39.828 13.5
      vertex -23.438 37.395 13.5
    endloop
  endfacet
  facet normal 0 0 1
    outer loop
      vertex -18.967 34.029 13.5
      vertex -20.739 37.097 13.5
      vertex -24.194 35.069 13.5
    endloop
  endfacet
  facet normal 0 0 1
    outer loop
      vertex -23.363 32.253 13.5
      vertex -22.563 33.639 13.5
      vertex -25.417 32.951 13.5
    endloop
  endfacet
  facet normal 0 0 1
    outer loop
      vertex -25.199 9.18 13.5
      vertex -25.199 29.471 13.5
      vertex -29.032 29.695 13.5
    endloop
  endfacet
  facet normal 0 0 1
    outer loop
      vertex -25.199 9.18 13.5
      vertex -29.032 29.695 13.5
      vertex -31.267 28.701 13.5
    endloop
  endfacet
  facet normal 0 0 1
    outer loop
      vertex -25.199 9.18 13.5
      vertex -31.267 28.701 13.5
      vertex -33.659 28.192 13.5
    endloop
  endfacet
  facet normal 0 0 1
    outer loop
      vertex -25.199 9.18 13.5
      vertex -36.105 28.192 13.5
      vertex -55.361 31.538 13.5
    endloop
  endfacet
  facet normal 0 0 1
    outer loop
      vertex -25.199 9.18 13.5
      vertex -33.659 28.192 13.5
      vertex -36.105 28.192 13.5
    endloop
  endfacet
  facet normal 0 0 1
    outer loop
      vertex -36.105 28.192 13.5
      vertex -38.498 28.701 13.5
      vertex -55.361 31.538 13.5
    endloop
  endfacet
  facet normal 0 0 1
    outer loop
      vertex -42.711 31.133 13.5
      vertex -44.348 32.951 13.5
      vertex -55.361 31.538 13.5
    endloop
  endfacet
  facet normal 0 0 1
    outer loop
      vertex -27.053 48.523 13.5
      vertex -10.5217 55.2377 13.5
      vertex -12.4654 55.442 13.5
    endloop
  endfacet
  facet normal 0 0 1
    outer loop
      vertex -27.053 48.523 13.5
      vertex -8.663 55.8417 13.5
      vertex -10.5217 55.2377 13.5
    endloop
  endfacet
  facet normal 0 0 1
    outer loop
      vertex -44.5677 7.33734 13.5
      vertex -44.974 9.249 13.5
      vertex -55.361 31.538 13.5
    endloop
  endfacet
  facet normal 0 0 1
    outer loop
      vertex -44.5677 11.1607 13.5
      vertex -43.4189 12.7418 13.5
      vertex -55.361 31.538 13.5
    endloop
  endfacet
  facet normal 0 0 1
    outer loop
      vertex -39.7827 4.57475 13.5
      vertex -41.7264 4.77903 13.5
      vertex -39.1151 0 13.5
    endloop
  endfacet
  facet normal 0 0 1
    outer loop
      vertex -41.7264 13.719 13.5
      vertex -39.7827 13.9233 13.5
      vertex -55.361 31.538 13.5
    endloop
  endfacet
  facet normal 0 0 1
    outer loop
      vertex -35.6767 8.27182 13.5
      vertex -36.4716 6.48641 13.5
      vertex -34.379 0 13.5
    endloop
  endfacet
  facet normal 0 0 1
    outer loop
      vertex -39.7827 13.9233 13.5
      vertex -37.924 13.3193 13.5
      vertex -55.361 31.538 13.5
    endloop
  endfacet
  facet normal 0 0 1
    outer loop
      vertex -37.924 5.17868 13.5
      vertex -39.7827 4.57475 13.5
      vertex -34.379 0 13.5
    endloop
  endfacet
  facet normal 0 0 1
    outer loop
      vertex -35.6767 10.2262 13.5
      vertex -25.199 9.18 13.5
      vertex -36.4716 12.0116 13.5
    endloop
  endfacet
  facet normal 0 0 1
    outer loop
      vertex -34.379 0 13.5
      vertex -25.199 9.18 13.5
      vertex -35.6767 10.2262 13.5
    endloop
  endfacet
  facet normal 0 0 1
    outer loop
      vertex -36.4716 6.48641 13.5
      vertex -37.924 5.17868 13.5
      vertex -34.379 0 13.5
    endloop
  endfacet
  facet normal 0 0 1
    outer loop
      vertex -34.379 0 13.5
      vertex -35.6767 10.2262 13.5
      vertex -35.6767 8.27182 13.5
    endloop
  endfacet
  facet normal 0 0 1
    outer loop
      vertex -37.924 13.3193 13.5
      vertex -36.4716 12.0116 13.5
      vertex -25.199 9.18 13.5
    endloop
  endfacet
  facet normal 0 0 1
    outer loop
      vertex -48.801 46.017 13.5
      vertex -49.601 47.402 13.5
      vertex -55.361 31.538 13.5
    endloop
  endfacet
  facet normal 0 0 1
    outer loop
      vertex -41.7264 4.77903 13.5
      vertex -43.4189 5.75622 13.5
      vertex -39.1151 0 13.5
    endloop
  endfacet
  facet normal 0 0 1
    outer loop
      vertex -39.1151 0 13.5
      vertex -34.379 0 13.5
      vertex -39.7827 4.57475 13.5
    endloop
  endfacet
  facet normal 0 0 1
    outer loop
      vertex -43.4189 12.7418 13.5
      vertex -41.7264 13.719 13.5
      vertex -55.361 31.538 13.5
    endloop
  endfacet
  facet normal 0 0 1
    outer loop
      vertex -43.4189 5.75622 13.5
      vertex -44.5677 7.33734 13.5
      vertex -39.1151 -17 13.5
    endloop
  endfacet
  facet normal 0 0 1
    outer loop
      vertex -39.1151 -17 13.5
      vertex -39.1151 0 13.5
      vertex -43.4189 5.75622 13.5
    endloop
  endfacet
  facet normal 0 0 1
    outer loop
      vertex -39.1151 -17 13.5
      vertex -44.5677 7.33734 13.5
      vertex -55.361 31.538 13.5
    endloop
  endfacet
  facet normal 0 0 1
    outer loop
      vertex -49.601 47.402 13.5
      vertex -48.801 48.788 13.5
      vertex -47.307 53.692 13.5
    endloop
  endfacet
  facet normal 0 0 1
    outer loop
      vertex -47.307 53.692 13.5
      vertex -50.751 48.77 13.5
      vertex -49.601 47.402 13.5
    endloop
  endfacet
  facet normal 0 0 1
    outer loop
      vertex -48.801 48.788 13.5
      vertex -47.201 48.788 13.5
      vertex -43.061 57.941 13.5
    endloop
  endfacet
  facet normal 0 0 1
    outer loop
      vertex -43.061 57.941 13.5
      vertex -47.307 53.692 13.5
      vertex -48.801 48.788 13.5
    endloop
  endfacet
  facet normal 0 0 1
    outer loop
      vertex -38.141 61.388 13.5
      vertex -43.061 57.941 13.5
      vertex -47.201 48.788 13.5
    endloop
  endfacet
  facet normal 0 0 1
    outer loop
      vertex -38.141 61.388 13.5
      vertex -46.401 47.402 13.5
      vertex -55.361 31.538 13.5
    endloop
  endfacet
  facet normal 0 0 1
    outer loop
      vertex -38.141 61.388 13.5
      vertex -47.201 48.788 13.5
      vertex -46.401 47.402 13.5
    endloop
  endfacet
  facet normal 0 0 1
    outer loop
      vertex -46.401 47.402 13.5
      vertex -47.201 46.017 13.5
      vertex -55.361 31.538 13.5
    endloop
  endfacet
  facet normal 0 0 1
    outer loop
      vertex -47.201 46.017 13.5
      vertex -48.801 46.017 13.5
      vertex -55.361 31.538 13.5
    endloop
  endfacet
  facet normal 0 0 1
    outer loop
      vertex -14.1579 63.4048 13.5
      vertex -12.4654 64.382 13.5
      vertex -5.986 69.57 13.5
    endloop
  endfacet
  facet normal 0 0 1
    outer loop
      vertex -38.498 50.955 13.5
      vertex -36.105 51.464 13.5
      vertex -18.277 72.863 13.5
    endloop
  endfacet
  facet normal 0 0 1
    outer loop
      vertex -22.563 30.868 13.5
      vertex -23.363 32.253 13.5
      vertex -27.053 31.133 13.5
    endloop
  endfacet
  facet normal 0 0 1
    outer loop
      vertex -46.326 37.395 13.5
      vertex -46.582 39.828 13.5
      vertex -55.361 31.538 13.5
    endloop
  endfacet
  facet normal -1 -0.000444662 0
    outer loop
      vertex -55.3571 22.8177 11.1384
      vertex -55.351 9.049 13.5
      vertex -55.361 31.538 13.5
    endloop
  endfacet
  facet normal -1 -0.000444662 0
    outer loop
      vertex -55.3544 16.6116 8.56775
      vertex -55.351 9.049 13.5
      vertex -55.3555 19.1823 11.1384
    endloop
  endfacet
  facet normal -1 -0.000444662 0
    outer loop
      vertex -55.361 31.538 0
      vertex -55.3583 25.3884 4.93225
      vertex -55.361 31.538 13.5
    endloop
  endfacet
  facet normal -1 -0.000444662 0
    outer loop
      vertex -55.3583 25.3884 4.93225
      vertex -55.3583 25.3884 8.56775
      vertex -55.361 31.538 13.5
    endloop
  endfacet
  facet normal -1 -0.000444662 0
    outer loop
      vertex -55.3555 19.1823 11.1384
      vertex -55.351 9.049 13.5
      vertex -55.3571 22.8177 11.1384
    endloop
  endfacet
  facet normal -1 -0.000444662 0
    outer loop
      vertex -55.3583 25.3884 8.56775
      vertex -55.3571 22.8177 11.1384
      vertex -55.361 31.538 13.5
    endloop
  endfacet
  facet normal -1 -0.000444662 0
    outer loop
      vertex -55.351 9.049 0
      vertex -55.351 9.049 13.5
      vertex -55.3544 16.6116 8.56775
    endloop
  endfacet
  facet normal -1 -0.000444662 0
    outer loop
      vertex -55.351 9.049 0
      vertex -55.3544 16.6116 8.56775
      vertex -55.3544 16.6116 4.93225
    endloop
  endfacet
  facet normal -1 -0.000444662 0
    outer loop
      vertex -55.351 9.049 0
      vertex -55.3544 16.6116 4.93225
      vertex -55.3555 19.1823 2.36157
    endloop
  endfacet
  facet normal -1 -0.000444662 0
    outer loop
      vertex -55.351 9.049 0
      vertex -55.3555 19.1823 2.36157
      vertex -55.361 31.538 0
    endloop
  endfacet
  facet normal -1 -0.000444662 0
    outer loop
      vertex -55.3555 19.1823 2.36157
      vertex -55.3571 22.8177 2.36157
      vertex -55.361 31.538 0
    endloop
  endfacet
  facet normal -1 -0.000444662 0
    outer loop
      vertex -55.3583 25.3884 4.93225
      vertex -55.361 31.538 0
      vertex -55.3571 22.8177 2.36157
    endloop
  endfacet
  facet normal -0.996231 0.0867374 0
    outer loop
      vertex -55.361 31.538 13.5
      vertex -54.84 37.522 13.5
      vertex -55.361 31.538 0
    endloop
  endfacet
  facet normal -0.996231 0.0867374 0
    outer loop
      vertex -55.361 31.538 0
      vertex -54.84 37.522 13.5
      vertex -54.84 37.522 0
    endloop
  endfacet
  facet normal -0.707068 -0.707146 0
    outer loop
      vertex -55.351 9.049 0
      vertex -46.301 0 0
      vertex -46.301 0 6.03292
    endloop
  endfacet
  facet normal -0.707068 -0.707146 0
    outer loop
      vertex -47.6 1.29886 13.5
      vertex -55.351 9.049 0
      vertex -47.6 1.29886 7.47625
    endloop
  endfacet
  facet normal -0.707068 -0.707146 0
    outer loop
      vertex -47.6 1.29886 7.47625
      vertex -55.351 9.049 0
      vertex -46.301 0 6.03292
    endloop
  endfacet
  facet normal -0.707068 -0.707146 0
    outer loop
      vertex -55.351 9.049 13.5
      vertex -55.351 9.049 0
      vertex -47.6 1.29886 13.5
    endloop
  endfacet
  facet normal 0 -1 0
    outer loop
      vertex -46.301 0 0
      vertex -40.8849 0 0
      vertex -40.8774 0 0.00670585
    endloop
  endfacet
  facet normal 0 -1 0
    outer loop
      vertex -46.301 0 6.03292
      vertex -46.301 0 0
      vertex -40.8774 0 0.00670585
    endloop
  endfacet
  facet normal -0.668965 0 0.743294
    outer loop
      vertex -40.8849 -17 0
      vertex -40.8774 -17 0.00670585
      vertex -40.8774 0 0.00670585
    endloop
  endfacet
  facet normal -0.668965 0 0.743294
    outer loop
      vertex -40.8849 0 0
      vertex -40.8849 -17 0
      vertex -40.8774 0 0.00670585
    endloop
  endfacet
  facet normal 0 -1 0
    outer loop
      vertex -47.6 -17 7.47625
      vertex -40.8774 -17 0.00670585
      vertex -32.6 -17 0
    endloop
  endfacet
  facet normal 0 -1 0
    outer loop
      vertex -32.6 -17 0
      vertex -40.8774 -17 0.00670585
      vertex -40.8849 -17 0
    endloop
  endfacet
  facet normal 0 -1 0
    outer loop
      vertex -47.6 -17 7.47625
      vertex -32.6 -17 0
      vertex -32.6 -17 6.24597
    endloop
  endfacet
  facet normal 0 -1 0
    outer loop
      vertex -47.6 -17 7.47625
      vertex -39.1226 -17 13.4933
      vertex -39.1151 -17 13.5
    endloop
  endfacet
  facet normal 0 -1 0
    outer loop
      vertex -47.6 -17 7.47625
      vertex -32.6 -17 6.24597
      vertex -39.1226 -17 13.4933
    endloop
  endfacet
  facet normal 0 -1 0
    outer loop
      vertex -47.6 -17 7.47625
      vertex -39.1151 -17 13.5
      vertex -47.6 -17 13.5
    endloop
  endfacet
  facet normal 1 0 0
    outer loop
      vertex -32.6 -17 0
      vertex -32.6 1.779 0
      vertex -32.6 1.779 6.24597
    endloop
  endfacet
  facet normal 1 0 0
    outer loop
      vertex -32.6 -17 6.24597
      vertex -32.6 -17 0
      vertex -32.6 1.779 6.24597
    endloop
  endfacet
  facet normal 0.707107 -0.707107 0
    outer loop
      vertex -34.379 0 8.22264
      vertex -32.6 1.779 6.24597
      vertex -25.199 9.18 0
    endloop
  endfacet
  facet normal 0.707107 -0.707107 0
    outer loop
      vertex -25.199 9.18 0
      vertex -32.6 1.779 6.24597
      vertex -32.6 1.779 0
    endloop
  endfacet
  facet normal 0.707107 -0.707107 0
    outer loop
      vertex -34.379 0 8.22264
      vertex -25.199 9.18 0
      vertex -25.199 9.18 13.5
    endloop
  endfacet
  facet normal 0.707107 -0.707107 0
    outer loop
      vertex -34.379 0 8.22264
      vertex -25.199 9.18 13.5
      vertex -34.379 0 13.5
    endloop
  endfacet
  facet normal 1 0 0
    outer loop
      vertex -25.199 25.3884 8.56775
      vertex -25.199 29.471 0
      vertex -25.199 29.471 13.5
    endloop
  endfacet
  facet normal 1 0 0
    outer loop
      vertex -25.199 19.1823 2.36157
      vertex -25.199 16.6116 4.93225
      vertex -25.199 9.18 0
    endloop
  endfacet
  facet normal 1 0 0
    outer loop
      vertex -25.199 9.18 13.5
      vertex -25.199 9.18 0
      vertex -25.199 16.6116 8.56775
    endloop
  endfacet
  facet normal 1 0 0
    outer loop
      vertex -25.199 9.18 13.5
      vertex -25.199 19.1823 11.1384
      vertex -25.199 29.471 13.5
    endloop
  endfacet
  facet normal 1 0 0
    outer loop
      vertex -25.199 9.18 13.5
      vertex -25.199 16.6116 8.56775
      vertex -25.199 19.1823 11.1384
    endloop
  endfacet
  facet normal 1 0 0
    outer loop
      vertex -25.199 19.1823 11.1384
      vertex -25.199 22.8177 11.1384
      vertex -25.199 29.471 13.5
    endloop
  endfacet
  facet normal 1 0 0
    outer loop
      vertex -25.199 25.3884 4.93225
      vertex -25.199 29.471 0
      vertex -25.199 25.3884 8.56775
    endloop
  endfacet
  facet normal 1 0 0
    outer loop
      vertex -25.199 22.8177 2.36157
      vertex -25.199 29.471 0
      vertex -25.199 25.3884 4.93225
    endloop
  endfacet
  facet normal 1 0 0
    outer loop
      vertex -25.199 9.18 0
      vertex -25.199 29.471 0
      vertex -25.199 22.8177 2.36157
    endloop
  endfacet
  facet normal 1 0 0
    outer loop
      vertex -25.199 9.18 0
      vertex -25.199 22.8177 2.36157
      vertex -25.199 19.1823 2.36157
    endloop
  endfacet
  facet normal 1 0 0
    outer loop
      vertex -25.199 16.6116 4.93225
      vertex -25.199 16.6116 8.56775
      vertex -25.199 9.18 0
    endloop
  endfacet
  facet normal 1 0 0
    outer loop
      vertex -25.199 22.8177 11.1384
      vertex -25.199 25.3884 8.56775
      vertex -25.199 29.471 13.5
    endloop
  endfacet
  facet normal 0 -1 0
    outer loop
      vertex -25.199 29.471 0
      vertex -21.128 29.471 0
      vertex -21.128 29.471 13.5
    endloop
  endfacet
  facet normal 0 -1 0
    outer loop
      vertex -25.199 29.471 13.5
      vertex -25.199 29.471 0
      vertex -21.128 29.471 13.5
    endloop
  endfacet
  facet normal 0.392685 -0.919673 0
    outer loop
      vertex -21.128 29.471 0
      vertex -19.779 30.047 0
      vertex -19.779 30.047 13.5
    endloop
  endfacet
  facet normal 0.392685 -0.919673 0
    outer loop
      vertex -21.128 29.471 13.5
      vertex -21.128 29.471 0
      vertex -19.779 30.047 13.5
    endloop
  endfacet
  facet normal 0.774777 -0.632234 0
    outer loop
      vertex -19.779 30.047 0
      vertex -18.852 31.183 0
      vertex -18.852 31.183 13.5
    endloop
  endfacet
  facet normal 0.774777 -0.632234 0
    outer loop
      vertex -19.779 30.047 13.5
      vertex -19.779 30.047 0
      vertex -18.852 31.183 13.5
    endloop
  endfacet
  facet normal 0.979839 -0.199786 0
    outer loop
      vertex -18.852 31.183 0
      vertex -18.559 32.62 0
      vertex -18.559 32.62 13.5
    endloop
  endfacet
  facet normal 0.979839 -0.199786 0
    outer loop
      vertex -18.852 31.183 13.5
      vertex -18.852 31.183 0
      vertex -18.559 32.62 13.5
    endloop
  endfacet
  facet normal 0.96054 0.278141 0
    outer loop
      vertex -18.967 34.029 0
      vertex -18.967 34.029 13.5
      vertex -18.559 32.62 13.5
    endloop
  endfacet
  facet normal 0.96054 0.278141 0
    outer loop
      vertex -18.559 32.62 0
      vertex -18.967 34.029 0
      vertex -18.559 32.62 13.5
    endloop
  endfacet
  facet normal 0.865941 0.500146 0
    outer loop
      vertex -20.739 37.097 0
      vertex -20.739 37.097 13.5
      vertex -18.967 34.029 13.5
    endloop
  endfacet
  facet normal 0.865941 0.500146 0
    outer loop
      vertex -18.967 34.029 0
      vertex -20.739 37.097 0
      vertex -18.967 34.029 13.5
    endloop
  endfacet
  facet normal 0.49997 -0.866042 0
    outer loop
      vertex -9.95492 43.3227 4.93225
      vertex -3.405 47.104 0
      vertex -3.405 47.104 13.5
    endloop
  endfacet
  facet normal 0.49997 -0.866042 0
    outer loop
      vertex -9.95492 43.3227 8.56775
      vertex -9.95492 43.3227 4.93225
      vertex -3.405 47.104 13.5
    endloop
  endfacet
  facet normal 0.49997 -0.866042 0
    outer loop
      vertex -20.739 37.097 13.5
      vertex -20.739 37.097 0
      vertex -17.556 38.9345 8.56775
    endloop
  endfacet
  facet normal 0.49997 -0.866042 0
    outer loop
      vertex -20.739 37.097 13.5
      vertex -15.3297 40.2198 11.1384
      vertex -3.405 47.104 13.5
    endloop
  endfacet
  facet normal 0.49997 -0.866042 0
    outer loop
      vertex -20.739 37.097 13.5
      vertex -17.556 38.9345 8.56775
      vertex -15.3297 40.2198 11.1384
    endloop
  endfacet
  facet normal 0.49997 -0.866042 0
    outer loop
      vertex -15.3297 40.2198 11.1384
      vertex -12.1812 42.0374 11.1384
      vertex -3.405 47.104 13.5
    endloop
  endfacet
  facet normal 0.49997 -0.866042 0
    outer loop
      vertex -12.1812 42.0374 2.36157
      vertex -3.405 47.104 0
      vertex -9.95492 43.3227 4.93225
    endloop
  endfacet
  facet normal 0.49997 -0.866042 0
    outer loop
      vertex -20.739 37.097 0
      vertex -3.405 47.104 0
      vertex -12.1812 42.0374 2.36157
    endloop
  endfacet
  facet normal 0.49997 -0.866042 0
    outer loop
      vertex -20.739 37.097 0
      vertex -12.1812 42.0374 2.36157
      vertex -15.3297 40.2198 2.36157
    endloop
  endfacet
  facet normal 0.49997 -0.866042 0
    outer loop
      vertex -17.556 38.9345 8.56775
      vertex -20.739 37.097 0
      vertex -17.556 38.9345 4.93225
    endloop
  endfacet
  facet normal 0.49997 -0.866042 0
    outer loop
      vertex -12.1812 42.0374 11.1384
      vertex -9.95492 43.3227 8.56775
      vertex -3.405 47.104 13.5
    endloop
  endfacet
  facet normal 0.49997 -0.866042 0
    outer loop
      vertex -15.3297 40.2198 2.36157
      vertex -17.556 38.9345 4.93225
      vertex -20.739 37.097 0
    endloop
  endfacet
  facet normal -0.500213 0.865902 0
    outer loop
      vertex -24.8258 69.0799 4.93225
      vertex -18.277 72.863 13.5
      vertex -18.277 72.863 0
    endloop
  endfacet
  facet normal -0.500213 0.865902 0
    outer loop
      vertex -38.141 61.388 13.5
      vertex -32.4257 64.6896 8.56775
      vertex -38.141 61.388 0
    endloop
  endfacet
  facet normal -0.500213 0.865902 0
    outer loop
      vertex -32.4257 64.6896 8.56775
      vertex -32.4257 64.6896 4.93225
      vertex -38.141 61.388 0
    endloop
  endfacet
  facet normal -0.500213 0.865902 0
    outer loop
      vertex -27.0518 67.794 11.1384
      vertex -18.277 72.863 13.5
      vertex -24.8258 69.0799 8.56775
    endloop
  endfacet
  facet normal -0.500213 0.865902 0
    outer loop
      vertex -38.141 61.388 0
      vertex -30.1998 65.9755 2.36157
      vertex -18.277 72.863 0
    endloop
  endfacet
  facet normal -0.500213 0.865902 0
    outer loop
      vertex -30.1998 65.9755 2.36157
      vertex -27.0518 67.794 2.36157
      vertex -18.277 72.863 0
    endloop
  endfacet
  facet normal -0.500213 0.865902 0
    outer loop
      vertex -27.0518 67.794 2.36157
      vertex -24.8258 69.0799 4.93225
      vertex -18.277 72.863 0
    endloop
  endfacet
  facet normal -0.500213 0.865902 0
    outer loop
      vertex -24.8258 69.0799 8.56775
      vertex -18.277 72.863 13.5
      vertex -24.8258 69.0799 4.93225
    endloop
  endfacet
  facet normal -0.500213 0.865902 0
    outer loop
      vertex -38.141 61.388 13.5
      vertex -18.277 72.863 13.5
      vertex -27.0518 67.794 11.1384
    endloop
  endfacet
  facet normal -0.500213 0.865902 0
    outer loop
      vertex -38.141 61.388 13.5
      vertex -27.0518 67.794 11.1384
      vertex -30.1998 65.9755 11.1384
    endloop
  endfacet
  facet normal -0.500213 0.865902 0
    outer loop
      vertex -38.141 61.388 13.5
      vertex -30.1998 65.9755 11.1384
      vertex -32.4257 64.6896 8.56775
    endloop
  endfacet
  facet normal -0.500213 0.865902 0
    outer loop
      vertex -30.1998 65.9755 2.36157
      vertex -38.141 61.388 0
      vertex -32.4257 64.6896 4.93225
    endloop
  endfacet
  facet normal -0.573797 0.818997 0
    outer loop
      vertex -43.061 57.941 13.5
      vertex -38.141 61.388 13.5
      vertex -43.061 57.941 0
    endloop
  endfacet
  facet normal -0.573797 0.818997 0
    outer loop
      vertex -43.061 57.941 0
      vertex -38.141 61.388 13.5
      vertex -38.141 61.388 0
    endloop
  endfacet
  facet normal -0.707356 0.706857 0
    outer loop
      vertex -47.307 53.692 13.5
      vertex -43.061 57.941 13.5
      vertex -47.307 53.692 0
    endloop
  endfacet
  facet normal -0.707356 0.706857 0
    outer loop
      vertex -47.307 53.692 0
      vertex -43.061 57.941 13.5
      vertex -43.061 57.941 0
    endloop
  endfacet
  facet normal -0.819341 0.573306 0
    outer loop
      vertex -50.751 48.77 13.5
      vertex -47.307 53.692 13.5
      vertex -50.751 48.77 0
    endloop
  endfacet
  facet normal -0.819341 0.573306 0
    outer loop
      vertex -50.751 48.77 0
      vertex -47.307 53.692 13.5
      vertex -47.307 53.692 0
    endloop
  endfacet
  facet normal -0.906502 0.422202 0
    outer loop
      vertex -53.287 43.325 13.5
      vertex -50.751 48.77 13.5
      vertex -53.287 43.325 0
    endloop
  endfacet
  facet normal -0.906502 0.422202 0
    outer loop
      vertex -53.287 43.325 0
      vertex -50.751 48.77 13.5
      vertex -50.751 48.77 0
    endloop
  endfacet
  facet normal -0.966005 0.258523 0
    outer loop
      vertex -54.84 37.522 13.5
      vertex -53.287 43.325 13.5
      vertex -54.84 37.522 0
    endloop
  endfacet
  facet normal -0.966005 0.258523 0
    outer loop
      vertex -54.84 37.522 0
      vertex -53.287 43.325 13.5
      vertex -53.287 43.325 0
    endloop
  endfacet
  facet normal 0.978148 0.207912 0
    outer loop
      vertex -15.713 59.912 0
      vertex -15.713 59.912 13.5
      vertex -15.3067 58.0003 13.5
    endloop
  endfacet
  facet normal 0.978148 0.207912 0
    outer loop
      vertex -15.3067 58.0003 0
      vertex -15.713 59.912 0
      vertex -15.3067 58.0003 13.5
    endloop
  endfacet
  facet normal 0.978148 -0.207912 0
    outer loop
      vertex -15.713 59.912 0
      vertex -15.3067 61.8237 0
      vertex -15.3067 61.8237 13.5
    endloop
  endfacet
  facet normal 0.978148 -0.207912 0
    outer loop
      vertex -15.713 59.912 13.5
      vertex -15.713 59.912 0
      vertex -15.3067 61.8237 13.5
    endloop
  endfacet
  facet normal 0.809017 -0.587785 0
    outer loop
      vertex -15.3067 61.8237 0
      vertex -14.1579 63.4048 0
      vertex -14.1579 63.4048 13.5
    endloop
  endfacet
  facet normal 0.809017 -0.587785 0
    outer loop
      vertex -15.3067 61.8237 13.5
      vertex -15.3067 61.8237 0
      vertex -14.1579 63.4048 13.5
    endloop
  endfacet
  facet normal 0.5 -0.866025 0
    outer loop
      vertex -14.1579 63.4048 0
      vertex -12.4654 64.382 0
      vertex -12.4654 64.382 13.5
    endloop
  endfacet
  facet normal 0.5 -0.866025 0
    outer loop
      vertex -14.1579 63.4048 13.5
      vertex -14.1579 63.4048 0
      vertex -12.4654 64.382 13.5
    endloop
  endfacet
  facet normal 0.104528 -0.994522 0
    outer loop
      vertex -12.4654 64.382 0
      vertex -10.5217 64.5863 0
      vertex -10.5217 64.5863 13.5
    endloop
  endfacet
  facet normal 0.104528 -0.994522 0
    outer loop
      vertex -12.4654 64.382 13.5
      vertex -12.4654 64.382 0
      vertex -10.5217 64.5863 13.5
    endloop
  endfacet
  facet normal -0.309017 -0.951056 0
    outer loop
      vertex -10.5217 64.5863 0
      vertex -8.663 63.9823 0
      vertex -8.663 63.9823 13.5
    endloop
  endfacet
  facet normal -0.309017 -0.951056 0
    outer loop
      vertex -10.5217 64.5863 13.5
      vertex -10.5217 64.5863 0
      vertex -8.663 63.9823 13.5
    endloop
  endfacet
  facet normal -0.66913 -0.743145 0
    outer loop
      vertex -8.663 63.9823 0
      vertex -7.21062 62.6746 0
      vertex -7.21062 62.6746 13.5
    endloop
  endfacet
  facet normal -0.66913 -0.743145 0
    outer loop
      vertex -8.663 63.9823 13.5
      vertex -8.663 63.9823 0
      vertex -7.21062 62.6746 13.5
    endloop
  endfacet
  facet normal -0.913545 -0.406737 0
    outer loop
      vertex -6.41571 60.8892 0
      vertex -6.41571 60.8892 13.5
      vertex -7.21062 62.6746 0
    endloop
  endfacet
  facet normal -0.913545 -0.406737 0
    outer loop
      vertex -7.21062 62.6746 0
      vertex -6.41571 60.8892 13.5
      vertex -7.21062 62.6746 13.5
    endloop
  endfacet
  facet normal -1 0 0
    outer loop
      vertex -6.41571 58.9348 13.5
      vertex -6.41571 60.8892 13.5
      vertex -6.41571 58.9348 0
    endloop
  endfacet
  facet normal -1 0 0
    outer loop
      vertex -6.41571 58.9348 0
      vertex -6.41571 60.8892 13.5
      vertex -6.41571 60.8892 0
    endloop
  endfacet
  facet normal -0.913545 0.406737 0
    outer loop
      vertex -7.21062 57.1494 13.5
      vertex -6.41571 58.9348 13.5
      vertex -7.21062 57.1494 0
    endloop
  endfacet
  facet normal -0.913545 0.406737 0
    outer loop
      vertex -7.21062 57.1494 0
      vertex -6.41571 58.9348 13.5
      vertex -6.41571 58.9348 0
    endloop
  endfacet
  facet normal -0.66913 0.743145 0
    outer loop
      vertex -8.663 55.8417 13.5
      vertex -7.21062 57.1494 13.5
      vertex -8.663 55.8417 0
    endloop
  endfacet
  facet normal -0.66913 0.743145 0
    outer loop
      vertex -8.663 55.8417 0
      vertex -7.21062 57.1494 13.5
      vertex -7.21062 57.1494 0
    endloop
  endfacet
  facet normal -0.309017 0.951056 0
    outer loop
      vertex -10.5217 55.2377 13.5
      vertex -8.663 55.8417 13.5
      vertex -10.5217 55.2377 0
    endloop
  endfacet
  facet normal -0.309017 0.951056 0
    outer loop
      vertex -10.5217 55.2377 0
      vertex -8.663 55.8417 13.5
      vertex -8.663 55.8417 0
    endloop
  endfacet
  facet normal 0.104528 0.994522 0
    outer loop
      vertex -12.4654 55.442 13.5
      vertex -10.5217 55.2377 13.5
      vertex -12.4654 55.442 0
    endloop
  endfacet
  facet normal 0.104528 0.994522 0
    outer loop
      vertex -12.4654 55.442 0
      vertex -10.5217 55.2377 13.5
      vertex -10.5217 55.2377 0
    endloop
  endfacet
  facet normal 0.5 0.866025 0
    outer loop
      vertex -14.1579 56.4192 13.5
      vertex -12.4654 55.442 13.5
      vertex -14.1579 56.4192 0
    endloop
  endfacet
  facet normal 0.5 0.866025 0
    outer loop
      vertex -14.1579 56.4192 0
      vertex -12.4654 55.442 13.5
      vertex -12.4654 55.442 0
    endloop
  endfacet
  facet normal 0.809017 0.587785 0
    outer loop
      vertex -15.3067 58.0003 0
      vertex -15.3067 58.0003 13.5
      vertex -14.1579 56.4192 13.5
    endloop
  endfacet
  facet normal 0.809017 0.587785 0
    outer loop
      vertex -14.1579 56.4192 0
      vertex -15.3067 58.0003 0
      vertex -14.1579 56.4192 13.5
    endloop
  endfacet
  facet normal 0.865925 0.500173 0
    outer loop
      vertex -23.363 32.253 0
      vertex -23.363 32.253 13.5
      vertex -22.563 30.868 13.5
    endloop
  endfacet
  facet normal 0.865925 0.500173 0
    outer loop
      vertex -22.563 30.868 0
      vertex -23.363 32.253 0
      vertex -22.563 30.868 13.5
    endloop
  endfacet
  facet normal 0.866082 -0.499903 0
    outer loop
      vertex -23.363 32.253 0
      vertex -22.563 33.639 0
      vertex -22.563 33.639 13.5
    endloop
  endfacet
  facet normal 0.866082 -0.499903 0
    outer loop
      vertex -23.363 32.253 13.5
      vertex -23.363 32.253 0
      vertex -22.563 33.639 13.5
    endloop
  endfacet
  facet normal 0 -1 0
    outer loop
      vertex -22.563 33.639 0
      vertex -20.963 33.639 0
      vertex -20.963 33.639 13.5
    endloop
  endfacet
  facet normal 0 -1 0
    outer loop
      vertex -22.563 33.639 13.5
      vertex -22.563 33.639 0
      vertex -20.963 33.639 13.5
    endloop
  endfacet
  facet normal -0.866082 -0.499903 0
    outer loop
      vertex -20.163 32.253 0
      vertex -20.163 32.253 13.5
      vertex -20.963 33.639 0
    endloop
  endfacet
  facet normal -0.866082 -0.499903 0
    outer loop
      vertex -20.963 33.639 0
      vertex -20.163 32.253 13.5
      vertex -20.963 33.639 13.5
    endloop
  endfacet
  facet normal -0.865925 0.500173 0
    outer loop
      vertex -20.963 30.868 13.5
      vertex -20.163 32.253 13.5
      vertex -20.963 30.868 0
    endloop
  endfacet
  facet normal -0.865925 0.500173 0
    outer loop
      vertex -20.963 30.868 0
      vertex -20.163 32.253 13.5
      vertex -20.163 32.253 0
    endloop
  endfacet
  facet normal 0 1 0
    outer loop
      vertex -22.563 30.868 13.5
      vertex -20.963 30.868 13.5
      vertex -22.563 30.868 0
    endloop
  endfacet
  facet normal 0 1 0
    outer loop
      vertex -22.563 30.868 0
      vertex -20.963 30.868 13.5
      vertex -20.963 30.868 0
    endloop
  endfacet
  facet normal 0.99451 0.104642 0
    outer loop
      vertex -46.582 39.828 0
      vertex -46.582 39.828 13.5
      vertex -46.326 37.395 13.5
    endloop
  endfacet
  facet normal 0.99451 0.104642 0
    outer loop
      vertex -46.326 37.395 0
      vertex -46.582 39.828 0
      vertex -46.326 37.395 13.5
    endloop
  endfacet
  facet normal 0.99451 -0.104642 0
    outer loop
      vertex -46.582 39.828 0
      vertex -46.326 42.261 0
      vertex -46.326 42.261 13.5
    endloop
  endfacet
  facet normal 0.99451 -0.104642 0
    outer loop
      vertex -46.582 39.828 13.5
      vertex -46.582 39.828 0
      vertex -46.326 42.261 13.5
    endloop
  endfacet
  facet normal 0.951028 -0.309105 0
    outer loop
      vertex -46.326 42.261 0
      vertex -45.57 44.587 0
      vertex -45.57 44.587 13.5
    endloop
  endfacet
  facet normal 0.951028 -0.309105 0
    outer loop
      vertex -46.326 42.261 13.5
      vertex -46.326 42.261 0
      vertex -45.57 44.587 13.5
    endloop
  endfacet
  facet normal 0.866172 -0.499746 0
    outer loop
      vertex -45.57 44.587 0
      vertex -44.348 46.705 0
      vertex -44.348 46.705 13.5
    endloop
  endfacet
  facet normal 0.866172 -0.499746 0
    outer loop
      vertex -45.57 44.587 13.5
      vertex -45.57 44.587 0
      vertex -44.348 46.705 13.5
    endloop
  endfacet
  facet normal 0.743132 -0.669145 0
    outer loop
      vertex -44.348 46.705 0
      vertex -42.711 48.523 0
      vertex -42.711 48.523 13.5
    endloop
  endfacet
  facet normal 0.743132 -0.669145 0
    outer loop
      vertex -44.348 46.705 13.5
      vertex -44.348 46.705 0
      vertex -42.711 48.523 13.5
    endloop
  endfacet
  facet normal 0.587564 -0.809178 0
    outer loop
      vertex -42.711 48.523 0
      vertex -40.732 49.96 0
      vertex -40.732 49.96 13.5
    endloop
  endfacet
  facet normal 0.587564 -0.809178 0
    outer loop
      vertex -42.711 48.523 13.5
      vertex -42.711 48.523 0
      vertex -40.732 49.96 13.5
    endloop
  endfacet
  facet normal 0.406859 -0.913491 0
    outer loop
      vertex -40.732 49.96 0
      vertex -38.498 50.955 0
      vertex -38.498 50.955 13.5
    endloop
  endfacet
  facet normal 0.406859 -0.913491 0
    outer loop
      vertex -40.732 49.96 13.5
      vertex -40.732 49.96 0
      vertex -38.498 50.955 13.5
    endloop
  endfacet
  facet normal 0.208049 -0.978118 0
    outer loop
      vertex -38.498 50.955 0
      vertex -36.105 51.464 0
      vertex -36.105 51.464 13.5
    endloop
  endfacet
  facet normal 0.208049 -0.978118 0
    outer loop
      vertex -38.498 50.955 13.5
      vertex -38.498 50.955 0
      vertex -36.105 51.464 13.5
    endloop
  endfacet
  facet normal 0 -1 0
    outer loop
      vertex -36.105 51.464 0
      vertex -33.659 51.464 0
      vertex -33.659 51.464 13.5
    endloop
  endfacet
  facet normal 0 -1 0
    outer loop
      vertex -36.105 51.464 13.5
      vertex -36.105 51.464 0
      vertex -33.659 51.464 13.5
    endloop
  endfacet
  facet normal -0.208133 -0.978101 0
    outer loop
      vertex -33.659 51.464 0
      vertex -31.267 50.955 0
      vertex -31.267 50.955 13.5
    endloop
  endfacet
  facet normal -0.208133 -0.978101 0
    outer loop
      vertex -33.659 51.464 13.5
      vertex -33.659 51.464 0
      vertex -31.267 50.955 13.5
    endloop
  endfacet
  facet normal -0.406707 -0.913559 0
    outer loop
      vertex -31.267 50.955 0
      vertex -29.032 49.96 0
      vertex -29.032 49.96 13.5
    endloop
  endfacet
  facet normal -0.406707 -0.913559 0
    outer loop
      vertex -31.267 50.955 13.5
      vertex -31.267 50.955 0
      vertex -29.032 49.96 13.5
    endloop
  endfacet
  facet normal -0.587564 -0.809178 0
    outer loop
      vertex -29.032 49.96 0
      vertex -27.053 48.523 0
      vertex -27.053 48.523 13.5
    endloop
  endfacet
  facet normal -0.587564 -0.809178 0
    outer loop
      vertex -29.032 49.96 13.5
      vertex -29.032 49.96 0
      vertex -27.053 48.523 13.5
    endloop
  endfacet
  facet normal -0.743335 -0.66892 0
    outer loop
      vertex -25.417 46.705 0
      vertex -25.417 46.705 13.5
      vertex -27.053 48.523 0
    endloop
  endfacet
  facet normal -0.743335 -0.66892 0
    outer loop
      vertex -27.053 48.523 0
      vertex -25.417 46.705 13.5
      vertex -27.053 48.523 13.5
    endloop
  endfacet
  facet normal -0.865995 -0.500053 0
    outer loop
      vertex -24.194 44.587 0
      vertex -24.194 44.587 13.5
      vertex -25.417 46.705 0
    endloop
  endfacet
  facet normal -0.865995 -0.500053 0
    outer loop
      vertex -25.417 46.705 0
      vertex -24.194 44.587 13.5
      vertex -25.417 46.705 13.5
    endloop
  endfacet
  facet normal -0.951028 -0.309105 0
    outer loop
      vertex -23.438 42.261 0
      vertex -23.438 42.261 13.5
      vertex -24.194 44.587 0
    endloop
  endfacet
  facet normal -0.951028 -0.309105 0
    outer loop
      vertex -24.194 44.587 0
      vertex -23.438 42.261 13.5
      vertex -24.194 44.587 13.5
    endloop
  endfacet
  facet normal -0.99451 -0.104642 0
    outer loop
      vertex -23.182 39.828 0
      vertex -23.182 39.828 13.5
      vertex -23.438 42.261 0
    endloop
  endfacet
  facet normal -0.99451 -0.104642 0
    outer loop
      vertex -23.438 42.261 0
      vertex -23.182 39.828 13.5
      vertex -23.438 42.261 13.5
    endloop
  endfacet
  facet normal -0.99451 0.104642 0
    outer loop
      vertex -23.438 37.395 13.5
      vertex -23.182 39.828 13.5
      vertex -23.438 37.395 0
    endloop
  endfacet
  facet normal -0.99451 0.104642 0
    outer loop
      vertex -23.438 37.395 0
      vertex -23.182 39.828 13.5
      vertex -23.182 39.828 0
    endloop
  endfacet
  facet normal -0.951028 0.309105 0
    outer loop
      vertex -24.194 35.069 13.5
      vertex -23.438 37.395 13.5
      vertex -24.194 35.069 0
    endloop
  endfacet
  facet normal -0.951028 0.309105 0
    outer loop
      vertex -24.194 35.069 0
      vertex -23.438 37.395 13.5
      vertex -23.438 37.395 0
    endloop
  endfacet
  facet normal -0.865995 0.500053 0
    outer loop
      vertex -25.417 32.951 13.5
      vertex -24.194 35.069 13.5
      vertex -25.417 32.951 0
    endloop
  endfacet
  facet normal -0.865995 0.500053 0
    outer loop
      vertex -25.417 32.951 0
      vertex -24.194 35.069 13.5
      vertex -24.194 35.069 0
    endloop
  endfacet
  facet normal -0.743335 0.66892 0
    outer loop
      vertex -27.053 31.133 13.5
      vertex -25.417 32.951 13.5
      vertex -27.053 31.133 0
    endloop
  endfacet
  facet normal -0.743335 0.66892 0
    outer loop
      vertex -27.053 31.133 0
      vertex -25.417 32.951 13.5
      vertex -25.417 32.951 0
    endloop
  endfacet
  facet normal -0.587831 0.808983 0
    outer loop
      vertex -29.032 29.695 13.5
      vertex -27.053 31.133 13.5
      vertex -29.032 29.695 0
    endloop
  endfacet
  facet normal -0.587831 0.808983 0
    outer loop
      vertex -29.032 29.695 0
      vertex -27.053 31.133 13.5
      vertex -27.053 31.133 0
    endloop
  endfacet
  facet normal -0.406366 0.91371 0
    outer loop
      vertex -31.267 28.701 13.5
      vertex -29.032 29.695 13.5
      vertex -31.267 28.701 0
    endloop
  endfacet
  facet normal -0.406366 0.91371 0
    outer loop
      vertex -31.267 28.701 0
      vertex -29.032 29.695 13.5
      vertex -29.032 29.695 0
    endloop
  endfacet
  facet normal -0.208133 0.978101 0
    outer loop
      vertex -33.659 28.192 13.5
      vertex -31.267 28.701 13.5
      vertex -33.659 28.192 0
    endloop
  endfacet
  facet normal -0.208133 0.978101 0
    outer loop
      vertex -33.659 28.192 0
      vertex -31.267 28.701 13.5
      vertex -31.267 28.701 0
    endloop
  endfacet
  facet normal 0 1 0
    outer loop
      vertex -36.105 28.192 13.5
      vertex -33.659 28.192 13.5
      vertex -36.105 28.192 0
    endloop
  endfacet
  facet normal 0 1 0
    outer loop
      vertex -36.105 28.192 0
      vertex -33.659 28.192 13.5
      vertex -33.659 28.192 0
    endloop
  endfacet
  facet normal 0.208049 0.978118 0
    outer loop
      vertex -38.498 28.701 13.5
      vertex -36.105 28.192 13.5
      vertex -38.498 28.701 0
    endloop
  endfacet
  facet normal 0.208049 0.978118 0
    outer loop
      vertex -38.498 28.701 0
      vertex -36.105 28.192 13.5
      vertex -36.105 28.192 0
    endloop
  endfacet
  facet normal 0.406518 0.913643 0
    outer loop
      vertex -40.732 29.695 13.5
      vertex -38.498 28.701 13.5
      vertex -40.732 29.695 0
    endloop
  endfacet
  facet normal 0.406518 0.913643 0
    outer loop
      vertex -40.732 29.695 0
      vertex -38.498 28.701 13.5
      vertex -38.498 28.701 0
    endloop
  endfacet
  facet normal 0.587831 0.808983 0
    outer loop
      vertex -42.711 31.133 13.5
      vertex -40.732 29.695 13.5
      vertex -42.711 31.133 0
    endloop
  endfacet
  facet normal 0.587831 0.808983 0
    outer loop
      vertex -42.711 31.133 0
      vertex -40.732 29.695 13.5
      vertex -40.732 29.695 0
    endloop
  endfacet
  facet normal 0.743132 0.669145 0
    outer loop
      vertex -44.348 32.951 0
      vertex -44.348 32.951 13.5
      vertex -42.711 31.133 13.5
    endloop
  endfacet
  facet normal 0.743132 0.669145 0
    outer loop
      vertex -42.711 31.133 0
      vertex -44.348 32.951 0
      vertex -42.711 31.133 13.5
    endloop
  endfacet
  facet normal 0.866172 0.499746 0
    outer loop
      vertex -45.57 35.069 0
      vertex -45.57 35.069 13.5
      vertex -44.348 32.951 13.5
    endloop
  endfacet
  facet normal 0.866172 0.499746 0
    outer loop
      vertex -44.348 32.951 0
      vertex -45.57 35.069 0
      vertex -44.348 32.951 13.5
    endloop
  endfacet
  facet normal 0.951028 0.309105 0
    outer loop
      vertex -46.326 37.395 0
      vertex -46.326 37.395 13.5
      vertex -45.57 35.069 13.5
    endloop
  endfacet
  facet normal 0.951028 0.309105 0
    outer loop
      vertex -45.57 35.069 0
      vertex -46.326 37.395 0
      vertex -45.57 35.069 13.5
    endloop
  endfacet
  facet normal 0.978148 0.207912 0
    outer loop
      vertex -44.974 9.249 0
      vertex -44.974 9.249 13.5
      vertex -44.5677 7.33734 13.5
    endloop
  endfacet
  facet normal 0.978148 0.207912 0
    outer loop
      vertex -44.5677 7.33734 0
      vertex -44.974 9.249 0
      vertex -44.5677 7.33734 13.5
    endloop
  endfacet
  facet normal 0.978148 -0.207912 0
    outer loop
      vertex -44.974 9.249 0
      vertex -44.5677 11.1607 0
      vertex -44.5677 11.1607 13.5
    endloop
  endfacet
  facet normal 0.978148 -0.207912 0
    outer loop
      vertex -44.974 9.249 13.5
      vertex -44.974 9.249 0
      vertex -44.5677 11.1607 13.5
    endloop
  endfacet
  facet normal 0.809017 -0.587785 0
    outer loop
      vertex -44.5677 11.1607 0
      vertex -43.4189 12.7418 0
      vertex -43.4189 12.7418 13.5
    endloop
  endfacet
  facet normal 0.809017 -0.587785 0
    outer loop
      vertex -44.5677 11.1607 13.5
      vertex -44.5677 11.1607 0
      vertex -43.4189 12.7418 13.5
    endloop
  endfacet
  facet normal 0.5 -0.866025 0
    outer loop
      vertex -43.4189 12.7418 0
      vertex -41.7264 13.719 0
      vertex -41.7264 13.719 13.5
    endloop
  endfacet
  facet normal 0.5 -0.866025 0
    outer loop
      vertex -43.4189 12.7418 13.5
      vertex -43.4189 12.7418 0
      vertex -41.7264 13.719 13.5
    endloop
  endfacet
  facet normal 0.104528 -0.994522 0
    outer loop
      vertex -41.7264 13.719 0
      vertex -39.7827 13.9233 0
      vertex -39.7827 13.9233 13.5
    endloop
  endfacet
  facet normal 0.104528 -0.994522 0
    outer loop
      vertex -41.7264 13.719 13.5
      vertex -41.7264 13.719 0
      vertex -39.7827 13.9233 13.5
    endloop
  endfacet
  facet normal -0.309017 -0.951056 0
    outer loop
      vertex -39.7827 13.9233 0
      vertex -37.924 13.3193 0
      vertex -37.924 13.3193 13.5
    endloop
  endfacet
  facet normal -0.309017 -0.951056 0
    outer loop
      vertex -39.7827 13.9233 13.5
      vertex -39.7827 13.9233 0
      vertex -37.924 13.3193 13.5
    endloop
  endfacet
  facet normal -0.66913 -0.743145 0
    outer loop
      vertex -37.924 13.3193 0
      vertex -36.4716 12.0116 0
      vertex -36.4716 12.0116 13.5
    endloop
  endfacet
  facet normal -0.66913 -0.743145 0
    outer loop
      vertex -37.924 13.3193 13.5
      vertex -37.924 13.3193 0
      vertex -36.4716 12.0116 13.5
    endloop
  endfacet
  facet normal -0.913545 -0.406737 0
    outer loop
      vertex -35.6767 10.2262 0
      vertex -35.6767 10.2262 13.5
      vertex -36.4716 12.0116 0
    endloop
  endfacet
  facet normal -0.913545 -0.406737 0
    outer loop
      vertex -36.4716 12.0116 0
      vertex -35.6767 10.2262 13.5
      vertex -36.4716 12.0116 13.5
    endloop
  endfacet
  facet normal -1 0 0
    outer loop
      vertex -35.6767 8.27182 13.5
      vertex -35.6767 10.2262 13.5
      vertex -35.6767 8.27182 0
    endloop
  endfacet
  facet normal -1 0 0
    outer loop
      vertex -35.6767 8.27182 0
      vertex -35.6767 10.2262 13.5
      vertex -35.6767 10.2262 0
    endloop
  endfacet
  facet normal -0.913545 0.406737 0
    outer loop
      vertex -36.4716 6.48641 13.5
      vertex -35.6767 8.27182 13.5
      vertex -36.4716 6.48641 0
    endloop
  endfacet
  facet normal -0.913545 0.406737 0
    outer loop
      vertex -36.4716 6.48641 0
      vertex -35.6767 8.27182 13.5
      vertex -35.6767 8.27182 0
    endloop
  endfacet
  facet normal -0.66913 0.743145 0
    outer loop
      vertex -37.924 5.17868 13.5
      vertex -36.4716 6.48641 13.5
      vertex -37.924 5.17868 0
    endloop
  endfacet
  facet normal -0.66913 0.743145 0
    outer loop
      vertex -37.924 5.17868 0
      vertex -36.4716 6.48641 13.5
      vertex -36.4716 6.48641 0
    endloop
  endfacet
  facet normal -0.309017 0.951056 0
    outer loop
      vertex -39.7827 4.57475 13.5
      vertex -37.924 5.17868 13.5
      vertex -39.7827 4.57475 0
    endloop
  endfacet
  facet normal -0.309017 0.951056 0
    outer loop
      vertex -39.7827 4.57475 0
      vertex -37.924 5.17868 13.5
      vertex -37.924 5.17868 0
    endloop
  endfacet
  facet normal 0.104528 0.994522 0
    outer loop
      vertex -41.7264 4.77903 13.5
      vertex -39.7827 4.57475 13.5
      vertex -41.7264 4.77903 0
    endloop
  endfacet
  facet normal 0.104528 0.994522 0
    outer loop
      vertex -41.7264 4.77903 0
      vertex -39.7827 4.57475 13.5
      vertex -39.7827 4.57475 0
    endloop
  endfacet
  facet normal 0.5 0.866025 0
    outer loop
      vertex -43.4189 5.75622 13.5
      vertex -41.7264 4.77903 13.5
      vertex -43.4189 5.75622 0
    endloop
  endfacet
  facet normal 0.5 0.866025 0
    outer loop
      vertex -43.4189 5.75622 0
      vertex -41.7264 4.77903 13.5
      vertex -41.7264 4.77903 0
    endloop
  endfacet
  facet normal 0.809017 0.587785 0
    outer loop
      vertex -44.5677 7.33734 0
      vertex -44.5677 7.33734 13.5
      vertex -43.4189 5.75622 13.5
    endloop
  endfacet
  facet normal 0.809017 0.587785 0
    outer loop
      vertex -43.4189 5.75622 0
      vertex -44.5677 7.33734 0
      vertex -43.4189 5.75622 13.5
    endloop
  endfacet
  facet normal 0.865925 0.500173 0
    outer loop
      vertex -49.601 47.402 0
      vertex -49.601 47.402 13.5
      vertex -48.801 46.017 13.5
    endloop
  endfacet
  facet normal 0.865925 0.500173 0
    outer loop
      vertex -48.801 46.017 0
      vertex -49.601 47.402 0
      vertex -48.801 46.017 13.5
    endloop
  endfacet
  facet normal 0.866082 -0.499903 0
    outer loop
      vertex -49.601 47.402 0
      vertex -48.801 48.788 0
      vertex -48.801 48.788 13.5
    endloop
  endfacet
  facet normal 0.866082 -0.499903 0
    outer loop
      vertex -49.601 47.402 13.5
      vertex -49.601 47.402 0
      vertex -48.801 48.788 13.5
    endloop
  endfacet
  facet normal 0 -1 0
    outer loop
      vertex -48.801 48.788 0
      vertex -47.201 48.788 0
      vertex -47.201 48.788 13.5
    endloop
  endfacet
  facet normal 0 -1 0
    outer loop
      vertex -48.801 48.788 13.5
      vertex -48.801 48.788 0
      vertex -47.201 48.788 13.5
    endloop
  endfacet
  facet normal -0.866082 -0.499903 0
    outer loop
      vertex -46.401 47.402 0
      vertex -46.401 47.402 13.5
      vertex -47.201 48.788 0
    endloop
  endfacet
  facet normal -0.866082 -0.499903 0
    outer loop
      vertex -47.201 48.788 0
      vertex -46.401 47.402 13.5
      vertex -47.201 48.788 13.5
    endloop
  endfacet
  facet normal -0.865925 0.500173 0
    outer loop
      vertex -47.201 46.017 13.5
      vertex -46.401 47.402 13.5
      vertex -47.201 46.017 0
    endloop
  endfacet
  facet normal -0.865925 0.500173 0
    outer loop
      vertex -47.201 46.017 0
      vertex -46.401 47.402 13.5
      vertex -46.401 47.402 0
    endloop
  endfacet
  facet normal 0 1 0
    outer loop
      vertex -48.801 46.017 13.5
      vertex -47.201 46.017 13.5
      vertex -48.801 46.017 0
    endloop
  endfacet
  facet normal 0 1 0
    outer loop
      vertex -48.801 46.017 0
      vertex -47.201 46.017 13.5
      vertex -47.201 46.017 0
    endloop
  endfacet
  facet normal 0 -1 0
    outer loop
      vertex -39.1226 0 13.4933
      vertex -34.379 0 8.22264
      vertex -34.379 0 13.5
    endloop
  endfacet
  facet normal 0 -1 0
    outer loop
      vertex -39.1151 0 13.5
      vertex -39.1226 0 13.4933
      vertex -34.379 0 13.5
    endloop
  endfacet
  facet normal 0.668965 0 -0.743294
    outer loop
      vertex -39.1226 0 13.4933
      vertex -39.1151 0 13.5
      vertex -39.1226 -17 13.4933
    endloop
  endfacet
  facet normal 0.668965 0 -0.743294
    outer loop
      vertex -39.1226 -17 13.4933
      vertex -39.1151 0 13.5
      vertex -39.1151 -17 13.5
    endloop
  endfacet
  facet normal -1 0 0
    outer loop
      vertex -47.6 -17 13.5
      vertex -47.6 1.29886 13.5
      vertex -47.6 -17 7.47625
    endloop
  endfacet
  facet normal -1 0 0
    outer loop
      vertex -47.6 -17 7.47625
      vertex -47.6 1.29886 13.5
      vertex -47.6 1.29886 7.47625
    endloop
  endfacet
  facet normal 4.63518e-024 -1 -7.57007e-008
    outer loop
      vertex -55.3583 25.3884 4.93225
      vertex -25.199 25.3884 4.93225
      vertex -25.199 25.3884 8.56775
    endloop
  endfacet
  facet normal 4.63518e-024 -1 -7.57007e-008
    outer loop
      vertex -55.3583 25.3884 8.56775
      vertex -55.3583 25.3884 4.93225
      vertex -25.199 25.3884 8.56775
    endloop
  endfacet
  facet normal -4.32964e-017 -0.707107 0.707107
    outer loop
      vertex -55.3583 25.3884 4.93225
      vertex -55.3571 22.8177 2.36157
      vertex -25.199 22.8177 2.36157
    endloop
  endfacet
  facet normal -4.32964e-017 -0.707107 0.707107
    outer loop
      vertex -25.199 25.3884 4.93225
      vertex -55.3583 25.3884 4.93225
      vertex -25.199 22.8177 2.36157
    endloop
  endfacet
  facet normal -6.12303e-017 -7.57007e-008 1
    outer loop
      vertex -55.3571 22.8177 2.36157
      vertex -55.3555 19.1823 2.36157
      vertex -25.199 19.1823 2.36157
    endloop
  endfacet
  facet normal -6.12303e-017 -7.57007e-008 1
    outer loop
      vertex -25.199 22.8177 2.36157
      vertex -55.3571 22.8177 2.36157
      vertex -25.199 19.1823 2.36157
    endloop
  endfacet
  facet normal -4.32964e-017 0.707107 0.707107
    outer loop
      vertex -55.3544 16.6116 4.93225
      vertex -25.199 16.6116 4.93225
      vertex -55.3555 19.1823 2.36157
    endloop
  endfacet
  facet normal -4.32964e-017 0.707107 0.707107
    outer loop
      vertex -55.3555 19.1823 2.36157
      vertex -25.199 16.6116 4.93225
      vertex -25.199 19.1823 2.36157
    endloop
  endfacet
  facet normal -4.63518e-024 1 7.57007e-008
    outer loop
      vertex -55.3544 16.6116 8.56775
      vertex -25.199 16.6116 8.56775
      vertex -55.3544 16.6116 4.93225
    endloop
  endfacet
  facet normal -4.63518e-024 1 7.57007e-008
    outer loop
      vertex -55.3544 16.6116 4.93225
      vertex -25.199 16.6116 8.56775
      vertex -25.199 16.6116 4.93225
    endloop
  endfacet
  facet normal 4.32964e-017 0.707107 -0.707107
    outer loop
      vertex -25.199 19.1823 11.1384
      vertex -25.199 16.6116 8.56775
      vertex -55.3555 19.1823 11.1384
    endloop
  endfacet
  facet normal 4.32964e-017 0.707107 -0.707107
    outer loop
      vertex -55.3555 19.1823 11.1384
      vertex -25.199 16.6116 8.56775
      vertex -55.3544 16.6116 8.56775
    endloop
  endfacet
  facet normal 6.12303e-017 7.57007e-008 -1
    outer loop
      vertex -25.199 22.8177 11.1384
      vertex -25.199 19.1823 11.1384
      vertex -55.3571 22.8177 11.1384
    endloop
  endfacet
  facet normal 6.12303e-017 7.57007e-008 -1
    outer loop
      vertex -55.3571 22.8177 11.1384
      vertex -25.199 19.1823 11.1384
      vertex -55.3555 19.1823 11.1384
    endloop
  endfacet
  facet normal 4.32964e-017 -0.707107 -0.707107
    outer loop
      vertex -55.3583 25.3884 8.56775
      vertex -25.199 25.3884 8.56775
      vertex -25.199 22.8177 11.1384
    endloop
  endfacet
  facet normal 4.32964e-017 -0.707107 -0.707107
    outer loop
      vertex -55.3571 22.8177 11.1384
      vertex -55.3583 25.3884 8.56775
      vertex -25.199 22.8177 11.1384
    endloop
  endfacet
  facet normal -0.743294 0 -0.668965
    outer loop
      vertex -45.0538 -12.3884 4.64712
      vertex -47.6 -17 7.47625
      vertex -46.7735 -9.81775 6.55789
    endloop
  endfacet
  facet normal -0.743294 0 -0.668965
    outer loop
      vertex -45.0538 -3.61157 4.64712
      vertex -46.301 0 6.03292
      vertex -40.8774 0 0.00670585
    endloop
  endfacet
  facet normal -0.743294 0 -0.668965
    outer loop
      vertex -40.9021 -9.81775 0.0341082
      vertex -40.8774 0 0.00670585
      vertex -40.8774 -17 0.00670585
    endloop
  endfacet
  facet normal -0.743294 0 -0.668965
    outer loop
      vertex -47.6 1.29886 7.47625
      vertex -46.301 0 6.03292
      vertex -46.7735 -6.18225 6.55789
    endloop
  endfacet
  facet normal -0.743294 0 -0.668965
    outer loop
      vertex -47.6 1.29886 7.47625
      vertex -46.7735 -6.18225 6.55789
      vertex -47.6 -17 7.47625
    endloop
  endfacet
  facet normal -0.743294 0 -0.668965
    outer loop
      vertex -45.0538 -3.61157 4.64712
      vertex -40.8774 0 0.00670585
      vertex -42.6218 -3.61157 1.94488
    endloop
  endfacet
  facet normal -0.743294 0 -0.668965
    outer loop
      vertex -42.6218 -3.61157 1.94488
      vertex -40.8774 0 0.00670585
      vertex -40.9021 -6.18225 0.0341084
    endloop
  endfacet
  facet normal -0.743294 0 -0.668965
    outer loop
      vertex -47.6 -17 7.47625
      vertex -45.0538 -12.3884 4.64712
      vertex -40.8774 -17 0.00670585
    endloop
  endfacet
  facet normal -0.743294 0 -0.668965
    outer loop
      vertex -45.0538 -12.3884 4.64712
      vertex -42.6218 -12.3884 1.94488
      vertex -40.8774 -17 0.00670585
    endloop
  endfacet
  facet normal -0.743294 0 -0.668965
    outer loop
      vertex -40.9021 -6.18225 0.0341084
      vertex -40.8774 0 0.00670585
      vertex -40.9021 -9.81775 0.0341082
    endloop
  endfacet
  facet normal -0.743294 0 -0.668965
    outer loop
      vertex -42.6218 -12.3884 1.94488
      vertex -40.9021 -9.81775 0.0341082
      vertex -40.8774 -17 0.00670585
    endloop
  endfacet
  facet normal -0.743294 0 -0.668965
    outer loop
      vertex -46.7735 -6.18225 6.55789
      vertex -46.301 0 6.03292
      vertex -45.0538 -3.61157 4.64712
    endloop
  endfacet
  facet normal -0.743294 0 -0.668965
    outer loop
      vertex -46.7735 -9.81775 6.55789
      vertex -47.6 -17 7.47625
      vertex -46.7735 -6.18225 6.55789
    endloop
  endfacet
  facet normal 0.743294 0 0.668965
    outer loop
      vertex -33.2265 -6.18225 6.94211
      vertex -32.6 -17 6.24597
      vertex -32.6 1.779 6.24597
    endloop
  endfacet
  facet normal 0.743294 0 0.668965
    outer loop
      vertex -34.9462 -12.3884 8.85288
      vertex -37.3782 -12.3884 11.5551
      vertex -39.1226 -17 13.4933
    endloop
  endfacet
  facet normal 0.743294 0 0.668965
    outer loop
      vertex -39.1226 0 13.4933
      vertex -39.1226 -17 13.4933
      vertex -39.0979 -6.18225 13.4659
    endloop
  endfacet
  facet normal 0.743294 0 0.668965
    outer loop
      vertex -39.1226 0 13.4933
      vertex -37.3782 -3.61157 11.5551
      vertex -34.379 0 8.22264
    endloop
  endfacet
  facet normal 0.743294 0 0.668965
    outer loop
      vertex -39.1226 0 13.4933
      vertex -39.0979 -6.18225 13.4659
      vertex -37.3782 -3.61157 11.5551
    endloop
  endfacet
  facet normal 0.743294 0 0.668965
    outer loop
      vertex -34.379 0 8.22264
      vertex -34.9462 -3.61157 8.85288
      vertex -32.6 1.779 6.24597
    endloop
  endfacet
  facet normal 0.743294 0 0.668965
    outer loop
      vertex -33.2265 -9.81775 6.94211
      vertex -32.6 -17 6.24597
      vertex -33.2265 -6.18225 6.94211
    endloop
  endfacet
  facet normal 0.743294 0 0.668965
    outer loop
      vertex -37.3782 -12.3884 11.5551
      vertex -39.0979 -9.81775 13.4659
      vertex -39.1226 -17 13.4933
    endloop
  endfacet
  facet normal 0.743294 0 0.668965
    outer loop
      vertex -34.9462 -12.3884 8.85288
      vertex -32.6 -17 6.24597
      vertex -33.2265 -9.81775 6.94211
    endloop
  endfacet
  facet normal 0.743294 0 0.668965
    outer loop
      vertex -39.1226 -17 13.4933
      vertex -32.6 -17 6.24597
      vertex -34.9462 -12.3884 8.85288
    endloop
  endfacet
  facet normal 0.743294 0 0.668965
    outer loop
      vertex -34.9462 -3.61157 8.85288
      vertex -33.2265 -6.18225 6.94211
      vertex -32.6 1.779 6.24597
    endloop
  endfacet
  facet normal 0.743294 0 0.668965
    outer loop
      vertex -39.0979 -6.18225 13.4659
      vertex -39.1226 -17 13.4933
      vertex -39.0979 -9.81775 13.4659
    endloop
  endfacet
  facet normal 0.743294 0 0.668965
    outer loop
      vertex -37.3782 -3.61157 11.5551
      vertex -34.9462 -3.61157 8.85288
      vertex -34.379 0 8.22264
    endloop
  endfacet
  facet normal 0.612372 0.353553 -0.707107
    outer loop
      vertex -30.1998 65.9755 11.1384
      vertex -15.3297 40.2198 11.1384
      vertex -32.4257 64.6896 8.56775
    endloop
  endfacet
  facet normal 0.612372 0.353553 -0.707107
    outer loop
      vertex -32.4257 64.6896 8.56775
      vertex -15.3297 40.2198 11.1384
      vertex -17.556 38.9345 8.56775
    endloop
  endfacet
  facet normal 0.866025 0.5 7.57007e-008
    outer loop
      vertex -32.4257 64.6896 8.56775
      vertex -17.556 38.9345 8.56775
      vertex -17.556 38.9345 4.93225
    endloop
  endfacet
  facet normal 0.866025 0.5 7.57007e-008
    outer loop
      vertex -32.4257 64.6896 4.93225
      vertex -32.4257 64.6896 8.56775
      vertex -17.556 38.9345 4.93225
    endloop
  endfacet
  facet normal 0.612372 0.353553 0.707107
    outer loop
      vertex -32.4257 64.6896 4.93225
      vertex -17.556 38.9345 4.93225
      vertex -15.3297 40.2198 2.36157
    endloop
  endfacet
  facet normal 0.612372 0.353553 0.707107
    outer loop
      vertex -30.1998 65.9755 2.36157
      vertex -32.4257 64.6896 4.93225
      vertex -15.3297 40.2198 2.36157
    endloop
  endfacet
  facet normal -6.55587e-008 -3.78504e-008 1
    outer loop
      vertex -30.1998 65.9755 2.36157
      vertex -15.3297 40.2198 2.36157
      vertex -12.1812 42.0374 2.36157
    endloop
  endfacet
  facet normal -6.55587e-008 -3.78504e-008 1
    outer loop
      vertex -27.0518 67.794 2.36157
      vertex -30.1998 65.9755 2.36157
      vertex -12.1812 42.0374 2.36157
    endloop
  endfacet
  facet normal -0.612372 -0.353553 0.707107
    outer loop
      vertex -27.0518 67.794 2.36157
      vertex -12.1812 42.0374 2.36157
      vertex -9.95492 43.3227 4.93225
    endloop
  endfacet
  facet normal -0.612372 -0.353553 0.707107
    outer loop
      vertex -24.8258 69.0799 4.93225
      vertex -27.0518 67.794 2.36157
      vertex -9.95492 43.3227 4.93225
    endloop
  endfacet
  facet normal -0.866025 -0.5 -7.57007e-008
    outer loop
      vertex -24.8258 69.0799 4.93225
      vertex -9.95492 43.3227 4.93225
      vertex -24.8258 69.0799 8.56775
    endloop
  endfacet
  facet normal -0.866025 -0.5 -7.57007e-008
    outer loop
      vertex -24.8258 69.0799 8.56775
      vertex -9.95492 43.3227 4.93225
      vertex -9.95492 43.3227 8.56775
    endloop
  endfacet
  facet normal -0.612372 -0.353553 -0.707107
    outer loop
      vertex -24.8258 69.0799 8.56775
      vertex -9.95492 43.3227 8.56775
      vertex -27.0518 67.794 11.1384
    endloop
  endfacet
  facet normal -0.612372 -0.353553 -0.707107
    outer loop
      vertex -27.0518 67.794 11.1384
      vertex -9.95492 43.3227 8.56775
      vertex -12.1812 42.0374 11.1384
    endloop
  endfacet
  facet normal 6.55587e-008 3.78504e-008 -1
    outer loop
      vertex -27.0518 67.794 11.1384
      vertex -12.1812 42.0374 11.1384
      vertex -30.1998 65.9755 11.1384
    endloop
  endfacet
  facet normal 6.55587e-008 3.78504e-008 -1
    outer loop
      vertex -30.1998 65.9755 11.1384
      vertex -12.1812 42.0374 11.1384
      vertex -15.3297 40.2198 11.1384
    endloop
  endfacet
  facet normal 0.668965 7.57007e-008 -0.743294
    outer loop
      vertex -39.0979 -6.18225 13.4659
      vertex -39.0979 -9.81775 13.4659
      vertex -46.7735 -6.18225 6.55789
    endloop
  endfacet
  facet normal 0.668965 7.57007e-008 -0.743294
    outer loop
      vertex -46.7735 -6.18225 6.55789
      vertex -39.0979 -9.81775 13.4659
      vertex -46.7735 -9.81775 6.55789
    endloop
  endfacet
  facet normal 0.473029 -0.707107 -0.525588
    outer loop
      vertex -46.7735 -6.18225 6.55789
      vertex -45.0538 -3.61157 4.64712
      vertex -37.3782 -3.61157 11.5551
    endloop
  endfacet
  facet normal 0.473029 -0.707107 -0.525588
    outer loop
      vertex -39.0979 -6.18225 13.4659
      vertex -46.7735 -6.18225 6.55789
      vertex -37.3782 -3.61157 11.5551
    endloop
  endfacet
  facet normal 5.06411e-008 -1 -5.62679e-008
    outer loop
      vertex -45.0538 -3.61157 4.64712
      vertex -42.6218 -3.61157 1.94488
      vertex -34.9462 -3.61157 8.85288
    endloop
  endfacet
  facet normal 5.06411e-008 -1 -5.62679e-008
    outer loop
      vertex -37.3782 -3.61157 11.5551
      vertex -45.0538 -3.61157 4.64712
      vertex -34.9462 -3.61157 8.85288
    endloop
  endfacet
  facet normal -0.47303 -0.707107 0.525588
    outer loop
      vertex -42.6218 -3.61157 1.94488
      vertex -40.9021 -6.18225 0.0341084
      vertex -33.2265 -6.18225 6.94211
    endloop
  endfacet
  facet normal -0.47303 -0.707107 0.525588
    outer loop
      vertex -34.9462 -3.61157 8.85288
      vertex -42.6218 -3.61157 1.94488
      vertex -33.2265 -6.18225 6.94211
    endloop
  endfacet
  facet normal -0.668965 -7.57007e-008 0.743294
    outer loop
      vertex -40.9021 -6.18225 0.0341084
      vertex -40.9021 -9.81775 0.0341082
      vertex -33.2265 -9.81775 6.94211
    endloop
  endfacet
  facet normal -0.668965 -7.57007e-008 0.743294
    outer loop
      vertex -33.2265 -6.18225 6.94211
      vertex -40.9021 -6.18225 0.0341084
      vertex -33.2265 -9.81775 6.94211
    endloop
  endfacet
  facet normal -0.473029 0.707107 0.525588
    outer loop
      vertex -34.9462 -12.3884 8.85288
      vertex -33.2265 -9.81775 6.94211
      vertex -42.6218 -12.3884 1.94488
    endloop
  endfacet
  facet normal -0.473029 0.707107 0.525588
    outer loop
      vertex -42.6218 -12.3884 1.94488
      vertex -33.2265 -9.81775 6.94211
      vertex -40.9021 -9.81775 0.0341082
    endloop
  endfacet
  facet normal -5.06411e-008 1 5.62679e-008
    outer loop
      vertex -37.3782 -12.3884 11.5551
      vertex -34.9462 -12.3884 8.85288
      vertex -45.0538 -12.3884 4.64712
    endloop
  endfacet
  facet normal -5.06411e-008 1 5.62679e-008
    outer loop
      vertex -45.0538 -12.3884 4.64712
      vertex -34.9462 -12.3884 8.85288
      vertex -42.6218 -12.3884 1.94488
    endloop
  endfacet
  facet normal 0.47303 0.707107 -0.525588
    outer loop
      vertex -39.0979 -9.81775 13.4659
      vertex -37.3782 -12.3884 11.5551
      vertex -46.7735 -9.81775 6.55789
    endloop
  endfacet
  facet normal 0.47303 0.707107 -0.525588
    outer loop
      vertex -46.7735 -9.81775 6.55789
      vertex -37.3782 -12.3884 11.5551
      vertex -45.0538 -12.3884 4.64712
    endloop
  endfacet
endsolid OpenSCAD_Model
