solid OpenSCAD_Model
  facet normal 0 0 -1
    outer loop
      vertex -7.44086 -0.939999 0
      vertex -7.44086 0.939999 0
      vertex -6.97332 -2.76093 0
    endloop
  endfacet
  facet normal 0 0 -1
    outer loop
      vertex -6.97332 -2.76093 0
      vertex -7.44086 0.939999 0
      vertex -6.97332 2.76093 0
    endloop
  endfacet
  facet normal 0 0 -1
    outer loop
      vertex -6.97332 -2.76093 0
      vertex -6.97332 2.76093 0
      vertex -6.06763 4.40839 0
    endloop
  endfacet
  facet normal 0 0 -1
    outer loop
      vertex -6.97332 -2.76093 0
      vertex -6.06763 4.40839 0
      vertex -4.78068 5.77885 0
    endloop
  endfacet
  facet normal 0 0 -1
    outer loop
      vertex -6.97332 -2.76093 0
      vertex -4.78068 5.77885 0
      vertex -3.19334 6.7862 0
    endloop
  endfacet
  facet normal 0 0 -1
    outer loop
      vertex -6.97332 -2.76093 0
      vertex -3.19334 6.7862 0
      vertex -1.40536 7.36715 0
    endloop
  endfacet
  facet normal 0 0 -1
    outer loop
      vertex -6.97332 -2.76093 0
      vertex -1.40536 7.36715 0
      vertex 0.470929 7.4852 0
    endloop
  endfacet
  facet normal 0 0 -1
    outer loop
      vertex -6.97332 -2.76093 0
      vertex 0.470929 7.4852 0
      vertex 2.31763 7.13292 0
    endloop
  endfacet
  facet normal 0 0 -1
    outer loop
      vertex -6.97332 -2.76093 0
      vertex 2.31763 7.13292 0
      vertex 4.0187 6.33246 0
    endloop
  endfacet
  facet normal 0 0 -1
    outer loop
      vertex 0.109883 1.74655 0
      vertex 4.0187 6.33246 0
      vertex 5.46726 5.1341 0
    endloop
  endfacet
  facet normal 0 0 -1
    outer loop
      vertex 0.937697 1.47757 0
      vertex 5.46726 5.1341 0
      vertex 6.5723 3.61315 0
    endloop
  endfacet
  facet normal 0 0 -1
    outer loop
      vertex 1.69502 0.435207 0
      vertex 6.5723 3.61315 0
      vertex 7.26437 1.86517 0
    endloop
  endfacet
  facet normal 0 0 -1
    outer loop
      vertex 1.69502 -0.435207 0
      vertex 7.26437 1.86517 0
      vertex 7.5 0 0
    endloop
  endfacet
  facet normal 0 0 -1
    outer loop
      vertex 0.937697 -1.47757 0
      vertex 7.5 0 0
      vertex 7.26437 -1.86517 0
    endloop
  endfacet
  facet normal 0 0 -1
    outer loop
      vertex -6.97332 -2.76093 0
      vertex 7.26437 -1.86517 0
      vertex 6.5723 -3.61315 0
    endloop
  endfacet
  facet normal 0 0 -1
    outer loop
      vertex -6.97332 -2.76093 0
      vertex 6.5723 -3.61315 0
      vertex 5.46726 -5.1341 0
    endloop
  endfacet
  facet normal 0 0 -1
    outer loop
      vertex -6.97332 -2.76093 0
      vertex 5.46726 -5.1341 0
      vertex 4.0187 -6.33246 0
    endloop
  endfacet
  facet normal 0 0 -1
    outer loop
      vertex -6.97332 -2.76093 0
      vertex 4.0187 -6.33246 0
      vertex 2.31763 -7.13292 0
    endloop
  endfacet
  facet normal 0 0 -1
    outer loop
      vertex -6.97332 -2.76093 0
      vertex 2.31763 -7.13292 0
      vertex 0.470929 -7.4852 0
    endloop
  endfacet
  facet normal 0 0 -1
    outer loop
      vertex -6.97332 -2.76093 0
      vertex 0.470929 -7.4852 0
      vertex -1.40536 -7.36715 0
    endloop
  endfacet
  facet normal 0 0 -1
    outer loop
      vertex -6.97332 -2.76093 0
      vertex -1.40536 -7.36715 0
      vertex -3.19334 -6.7862 0
    endloop
  endfacet
  facet normal 0 0 -1
    outer loop
      vertex -6.97332 -2.76093 0
      vertex -3.19334 -6.7862 0
      vertex -4.78068 -5.77885 0
    endloop
  endfacet
  facet normal 0 0 -1
    outer loop
      vertex -6.97332 -2.76093 0
      vertex -4.78068 -5.77885 0
      vertex -6.06763 -4.40839 0
    endloop
  endfacet
  facet normal 0 0 -1
    outer loop
      vertex -1.62711 -0.644218 0
      vertex -6.97332 -2.76093 0
      vertex -1.7362 -0.219333 0
    endloop
  endfacet
  facet normal 0 0 -1
    outer loop
      vertex -6.97332 -2.76093 0
      vertex -1.7362 0.219333 0
      vertex -1.7362 -0.219333 0
    endloop
  endfacet
  facet normal 0 0 -1
    outer loop
      vertex -1.41578 -1.02862 0
      vertex -6.97332 -2.76093 0
      vertex -1.62711 -0.644218 0
    endloop
  endfacet
  facet normal 0 0 -1
    outer loop
      vertex -0.745114 -1.58345 0
      vertex -6.97332 -2.76093 0
      vertex -1.11549 -1.3484 0
    endloop
  endfacet
  facet normal 0 0 -1
    outer loop
      vertex -6.97332 -2.76093 0
      vertex -1.41578 -1.02862 0
      vertex -1.11549 -1.3484 0
    endloop
  endfacet
  facet normal 0 0 -1
    outer loop
      vertex 0.54078 -1.66435 0
      vertex 7.26437 -1.86517 0
      vertex 0.109883 -1.74655 0
    endloop
  endfacet
  facet normal 0 0 -1
    outer loop
      vertex -6.97332 -2.76093 0
      vertex -0.745114 -1.58345 0
      vertex -0.327917 -1.719 0
    endloop
  endfacet
  facet normal 0 0 -1
    outer loop
      vertex -6.97332 -2.76093 0
      vertex -0.327917 -1.719 0
      vertex 0.109883 -1.74655 0
    endloop
  endfacet
  facet normal 0 0 -1
    outer loop
      vertex -6.97332 -2.76093 0
      vertex 0.109883 -1.74655 0
      vertex 7.26437 -1.86517 0
    endloop
  endfacet
  facet normal 0 0 -1
    outer loop
      vertex 0.937697 -1.47757 0
      vertex 7.26437 -1.86517 0
      vertex 0.54078 -1.66435 0
    endloop
  endfacet
  facet normal 0 0 -1
    outer loop
      vertex 1.2757 -1.19796 0
      vertex 7.5 0 0
      vertex 0.937697 -1.47757 0
    endloop
  endfacet
  facet normal 0 0 -1
    outer loop
      vertex 1.53354 -0.843069 0
      vertex 7.5 0 0
      vertex 1.2757 -1.19796 0
    endloop
  endfacet
  facet normal 0 0 -1
    outer loop
      vertex 1.69502 -0.435207 0
      vertex 7.5 0 0
      vertex 1.53354 -0.843069 0
    endloop
  endfacet
  facet normal 0 0 -1
    outer loop
      vertex 1.75 0 0
      vertex 7.26437 1.86517 0
      vertex 1.69502 -0.435207 0
    endloop
  endfacet
  facet normal 0 0 -1
    outer loop
      vertex 1.69502 0.435207 0
      vertex 7.26437 1.86517 0
      vertex 1.75 0 0
    endloop
  endfacet
  facet normal 0 0 -1
    outer loop
      vertex 1.53354 0.843069 0
      vertex 6.5723 3.61315 0
      vertex 1.69502 0.435207 0
    endloop
  endfacet
  facet normal 0 0 -1
    outer loop
      vertex 1.2757 1.19796 0
      vertex 6.5723 3.61315 0
      vertex 1.53354 0.843069 0
    endloop
  endfacet
  facet normal 0 0 -1
    outer loop
      vertex 0.937697 1.47757 0
      vertex 6.5723 3.61315 0
      vertex 1.2757 1.19796 0
    endloop
  endfacet
  facet normal 0 0 -1
    outer loop
      vertex 0.54078 1.66435 0
      vertex 5.46726 5.1341 0
      vertex 0.937697 1.47757 0
    endloop
  endfacet
  facet normal 0 0 -1
    outer loop
      vertex 0.109883 1.74655 0
      vertex 5.46726 5.1341 0
      vertex 0.54078 1.66435 0
    endloop
  endfacet
  facet normal 0 0 -1
    outer loop
      vertex -0.327917 1.719 0
      vertex 4.0187 6.33246 0
      vertex 0.109883 1.74655 0
    endloop
  endfacet
  facet normal 0 0 -1
    outer loop
      vertex -0.745114 1.58345 0
      vertex 4.0187 6.33246 0
      vertex -0.327917 1.719 0
    endloop
  endfacet
  facet normal 0 0 -1
    outer loop
      vertex -1.11549 1.3484 0
      vertex 4.0187 6.33246 0
      vertex -0.745114 1.58345 0
    endloop
  endfacet
  facet normal 0 0 -1
    outer loop
      vertex -6.97332 -2.76093 0
      vertex 4.0187 6.33246 0
      vertex -1.11549 1.3484 0
    endloop
  endfacet
  facet normal 0 0 -1
    outer loop
      vertex -1.62711 0.644218 0
      vertex -6.97332 -2.76093 0
      vertex -1.41578 1.02862 0
    endloop
  endfacet
  facet normal 0 0 -1
    outer loop
      vertex -1.7362 0.219333 0
      vertex -6.97332 -2.76093 0
      vertex -1.62711 0.644218 0
    endloop
  endfacet
  facet normal 0 0 -1
    outer loop
      vertex -1.41578 1.02862 0
      vertex -6.97332 -2.76093 0
      vertex -1.11549 1.3484 0
    endloop
  endfacet
  facet normal -1 0 0
    outer loop
      vertex -7.44086 -0.939999 0
      vertex -7.44086 -0.939999 2.1
      vertex -7.44086 0.939999 0
    endloop
  endfacet
  facet normal -1 0 0
    outer loop
      vertex -7.44086 0.939999 0
      vertex -7.44086 -0.939999 2.1
      vertex -7.44086 0.939999 2.1
    endloop
  endfacet
  facet normal -0.968583 -0.24869 0
    outer loop
      vertex -7.44086 -0.939999 0
      vertex -6.97332 -2.76093 0
      vertex -7.44086 -0.939999 2.1
    endloop
  endfacet
  facet normal -0.968583 -0.24869 0
    outer loop
      vertex -7.44086 -0.939999 2.1
      vertex -6.97332 -2.76093 0
      vertex -6.97332 -2.76093 2.1
    endloop
  endfacet
  facet normal -0.876306 -0.481754 0
    outer loop
      vertex -6.97332 -2.76093 0
      vertex -6.06763 -4.40839 0
      vertex -6.97332 -2.76093 2.1
    endloop
  endfacet
  facet normal -0.876306 -0.481754 0
    outer loop
      vertex -6.97332 -2.76093 2.1
      vertex -6.06763 -4.40839 0
      vertex -6.06763 -4.40839 2.1
    endloop
  endfacet
  facet normal -0.728969 -0.684547 0
    outer loop
      vertex -6.06763 -4.40839 0
      vertex -4.78068 -5.77885 0
      vertex -6.06763 -4.40839 2.1
    endloop
  endfacet
  facet normal -0.728969 -0.684547 0
    outer loop
      vertex -6.06763 -4.40839 2.1
      vertex -4.78068 -5.77885 0
      vertex -4.78068 -5.77885 2.1
    endloop
  endfacet
  facet normal -0.535827 -0.844328 0
    outer loop
      vertex -4.78068 -5.77885 2.1
      vertex -4.78068 -5.77885 0
      vertex -3.19334 -6.7862 0
    endloop
  endfacet
  facet normal -0.535827 -0.844328 0
    outer loop
      vertex -3.19334 -6.7862 2.1
      vertex -4.78068 -5.77885 2.1
      vertex -3.19334 -6.7862 0
    endloop
  endfacet
  facet normal -0.309017 -0.951057 0
    outer loop
      vertex -3.19334 -6.7862 2.1
      vertex -3.19334 -6.7862 0
      vertex -1.40536 -7.36715 0
    endloop
  endfacet
  facet normal -0.309017 -0.951057 0
    outer loop
      vertex -1.40536 -7.36715 2.1
      vertex -3.19334 -6.7862 2.1
      vertex -1.40536 -7.36715 0
    endloop
  endfacet
  facet normal -0.0627905 -0.998027 0
    outer loop
      vertex -1.40536 -7.36715 2.1
      vertex -1.40536 -7.36715 0
      vertex 0.470929 -7.4852 0
    endloop
  endfacet
  facet normal -0.0627905 -0.998027 0
    outer loop
      vertex 0.470929 -7.4852 2.1
      vertex -1.40536 -7.36715 2.1
      vertex 0.470929 -7.4852 0
    endloop
  endfacet
  facet normal 0.187381 -0.982287 0
    outer loop
      vertex 0.470929 -7.4852 2.1
      vertex 0.470929 -7.4852 0
      vertex 2.31763 -7.13292 0
    endloop
  endfacet
  facet normal 0.187381 -0.982287 0
    outer loop
      vertex 2.31763 -7.13292 2.1
      vertex 0.470929 -7.4852 2.1
      vertex 2.31763 -7.13292 0
    endloop
  endfacet
  facet normal 0.425779 -0.904827 0
    outer loop
      vertex 2.31763 -7.13292 2.1
      vertex 2.31763 -7.13292 0
      vertex 4.0187 -6.33246 0
    endloop
  endfacet
  facet normal 0.425779 -0.904827 0
    outer loop
      vertex 4.0187 -6.33246 2.1
      vertex 2.31763 -7.13292 2.1
      vertex 4.0187 -6.33246 0
    endloop
  endfacet
  facet normal 0.637424 -0.770513 0
    outer loop
      vertex 4.0187 -6.33246 2.1
      vertex 4.0187 -6.33246 0
      vertex 5.46726 -5.1341 0
    endloop
  endfacet
  facet normal 0.637424 -0.770513 0
    outer loop
      vertex 5.46726 -5.1341 2.1
      vertex 4.0187 -6.33246 2.1
      vertex 5.46726 -5.1341 0
    endloop
  endfacet
  facet normal 0.809017 -0.587785 0
    outer loop
      vertex 5.46726 -5.1341 2.1
      vertex 5.46726 -5.1341 0
      vertex 6.5723 -3.61315 0
    endloop
  endfacet
  facet normal 0.809017 -0.587785 0
    outer loop
      vertex 6.5723 -3.61315 2.1
      vertex 5.46726 -5.1341 2.1
      vertex 6.5723 -3.61315 0
    endloop
  endfacet
  facet normal 0.929776 -0.368125 0
    outer loop
      vertex 6.5723 -3.61315 2.1
      vertex 6.5723 -3.61315 0
      vertex 7.26437 -1.86517 0
    endloop
  endfacet
  facet normal 0.929776 -0.368125 0
    outer loop
      vertex 7.26437 -1.86517 2.1
      vertex 6.5723 -3.61315 2.1
      vertex 7.26437 -1.86517 0
    endloop
  endfacet
  facet normal 0.992115 -0.125333 0
    outer loop
      vertex 7.26437 -1.86517 2.1
      vertex 7.26437 -1.86517 0
      vertex 7.5 0 0
    endloop
  endfacet
  facet normal 0.992115 -0.125333 0
    outer loop
      vertex 7.5 0 2.1
      vertex 7.26437 -1.86517 2.1
      vertex 7.5 0 0
    endloop
  endfacet
  facet normal 0.992115 0.125333 0
    outer loop
      vertex 7.5 0 0
      vertex 7.26437 1.86517 0
      vertex 7.26437 1.86517 2.1
    endloop
  endfacet
  facet normal 0.992115 0.125333 0
    outer loop
      vertex 7.5 0 2.1
      vertex 7.5 0 0
      vertex 7.26437 1.86517 2.1
    endloop
  endfacet
  facet normal 0.929776 0.368125 0
    outer loop
      vertex 7.26437 1.86517 0
      vertex 6.5723 3.61315 0
      vertex 6.5723 3.61315 2.1
    endloop
  endfacet
  facet normal 0.929776 0.368125 0
    outer loop
      vertex 7.26437 1.86517 2.1
      vertex 7.26437 1.86517 0
      vertex 6.5723 3.61315 2.1
    endloop
  endfacet
  facet normal 0.809017 0.587785 0
    outer loop
      vertex 6.5723 3.61315 0
      vertex 5.46726 5.1341 0
      vertex 5.46726 5.1341 2.1
    endloop
  endfacet
  facet normal 0.809017 0.587785 0
    outer loop
      vertex 6.5723 3.61315 2.1
      vertex 6.5723 3.61315 0
      vertex 5.46726 5.1341 2.1
    endloop
  endfacet
  facet normal 0.637424 0.770513 0
    outer loop
      vertex 4.0187 6.33246 0
      vertex 4.0187 6.33246 2.1
      vertex 5.46726 5.1341 0
    endloop
  endfacet
  facet normal 0.637424 0.770513 0
    outer loop
      vertex 5.46726 5.1341 0
      vertex 4.0187 6.33246 2.1
      vertex 5.46726 5.1341 2.1
    endloop
  endfacet
  facet normal 0.425779 0.904827 0
    outer loop
      vertex 2.31763 7.13292 0
      vertex 2.31763 7.13292 2.1
      vertex 4.0187 6.33246 0
    endloop
  endfacet
  facet normal 0.425779 0.904827 0
    outer loop
      vertex 4.0187 6.33246 0
      vertex 2.31763 7.13292 2.1
      vertex 4.0187 6.33246 2.1
    endloop
  endfacet
  facet normal 0.187381 0.982287 0
    outer loop
      vertex 0.470929 7.4852 0
      vertex 0.470929 7.4852 2.1
      vertex 2.31763 7.13292 0
    endloop
  endfacet
  facet normal 0.187381 0.982287 0
    outer loop
      vertex 2.31763 7.13292 0
      vertex 0.470929 7.4852 2.1
      vertex 2.31763 7.13292 2.1
    endloop
  endfacet
  facet normal -0.0627905 0.998027 0
    outer loop
      vertex -1.40536 7.36715 0
      vertex -1.40536 7.36715 2.1
      vertex 0.470929 7.4852 0
    endloop
  endfacet
  facet normal -0.0627905 0.998027 0
    outer loop
      vertex 0.470929 7.4852 0
      vertex -1.40536 7.36715 2.1
      vertex 0.470929 7.4852 2.1
    endloop
  endfacet
  facet normal -0.309017 0.951057 0
    outer loop
      vertex -3.19334 6.7862 0
      vertex -3.19334 6.7862 2.1
      vertex -1.40536 7.36715 0
    endloop
  endfacet
  facet normal -0.309017 0.951057 0
    outer loop
      vertex -1.40536 7.36715 0
      vertex -3.19334 6.7862 2.1
      vertex -1.40536 7.36715 2.1
    endloop
  endfacet
  facet normal -0.535827 0.844328 0
    outer loop
      vertex -4.78068 5.77885 0
      vertex -4.78068 5.77885 2.1
      vertex -3.19334 6.7862 0
    endloop
  endfacet
  facet normal -0.535827 0.844328 0
    outer loop
      vertex -3.19334 6.7862 0
      vertex -4.78068 5.77885 2.1
      vertex -3.19334 6.7862 2.1
    endloop
  endfacet
  facet normal -0.728969 0.684547 0
    outer loop
      vertex -6.06763 4.40839 0
      vertex -6.06763 4.40839 2.1
      vertex -4.78068 5.77885 0
    endloop
  endfacet
  facet normal -0.728969 0.684547 0
    outer loop
      vertex -4.78068 5.77885 0
      vertex -6.06763 4.40839 2.1
      vertex -4.78068 5.77885 2.1
    endloop
  endfacet
  facet normal -0.876306 0.481754 0
    outer loop
      vertex -6.97332 2.76093 0
      vertex -6.97332 2.76093 2.1
      vertex -6.06763 4.40839 0
    endloop
  endfacet
  facet normal -0.876306 0.481754 0
    outer loop
      vertex -6.06763 4.40839 0
      vertex -6.97332 2.76093 2.1
      vertex -6.06763 4.40839 2.1
    endloop
  endfacet
  facet normal -0.968583 0.24869 0
    outer loop
      vertex -7.44086 0.939999 0
      vertex -7.44086 0.939999 2.1
      vertex -6.97332 2.76093 0
    endloop
  endfacet
  facet normal -0.968583 0.24869 0
    outer loop
      vertex -6.97332 2.76093 0
      vertex -7.44086 0.939999 2.1
      vertex -6.97332 2.76093 2.1
    endloop
  endfacet
  facet normal 0.968583 -0.24869 0
    outer loop
      vertex -1.62711 0.644218 0
      vertex -1.62711 0.644218 2.1
      vertex -1.7362 0.219333 2.1
    endloop
  endfacet
  facet normal 0.968583 -0.24869 0
    outer loop
      vertex -1.7362 0.219333 0
      vertex -1.62711 0.644218 0
      vertex -1.7362 0.219333 2.1
    endloop
  endfacet
  facet normal 1 0 0
    outer loop
      vertex -1.7362 0.219333 0
      vertex -1.7362 0.219333 2.1
      vertex -1.7362 -0.219333 2.1
    endloop
  endfacet
  facet normal 1 0 0
    outer loop
      vertex -1.7362 -0.219333 0
      vertex -1.7362 0.219333 0
      vertex -1.7362 -0.219333 2.1
    endloop
  endfacet
  facet normal 0.876307 -0.481754 0
    outer loop
      vertex -1.41578 1.02862 0
      vertex -1.41578 1.02862 2.1
      vertex -1.62711 0.644218 2.1
    endloop
  endfacet
  facet normal 0.876307 -0.481754 0
    outer loop
      vertex -1.62711 0.644218 0
      vertex -1.41578 1.02862 0
      vertex -1.62711 0.644218 2.1
    endloop
  endfacet
  facet normal 0.728968 -0.684547 0
    outer loop
      vertex -1.11549 1.3484 0
      vertex -1.11549 1.3484 2.1
      vertex -1.41578 1.02862 2.1
    endloop
  endfacet
  facet normal 0.728968 -0.684547 0
    outer loop
      vertex -1.41578 1.02862 0
      vertex -1.11549 1.3484 0
      vertex -1.41578 1.02862 2.1
    endloop
  endfacet
  facet normal 0.535827 -0.844328 0
    outer loop
      vertex -0.745114 1.58345 0
      vertex -0.745114 1.58345 2.1
      vertex -1.11549 1.3484 2.1
    endloop
  endfacet
  facet normal 0.535827 -0.844328 0
    outer loop
      vertex -1.11549 1.3484 0
      vertex -0.745114 1.58345 0
      vertex -1.11549 1.3484 2.1
    endloop
  endfacet
  facet normal 0.309018 -0.951056 0
    outer loop
      vertex -0.327917 1.719 0
      vertex -0.327917 1.719 2.1
      vertex -0.745114 1.58345 2.1
    endloop
  endfacet
  facet normal 0.309018 -0.951056 0
    outer loop
      vertex -0.745114 1.58345 0
      vertex -0.327917 1.719 0
      vertex -0.745114 1.58345 2.1
    endloop
  endfacet
  facet normal 0.0627904 -0.998027 0
    outer loop
      vertex 0.109883 1.74655 0
      vertex 0.109883 1.74655 2.1
      vertex -0.327917 1.719 2.1
    endloop
  endfacet
  facet normal 0.0627904 -0.998027 0
    outer loop
      vertex -0.327917 1.719 0
      vertex 0.109883 1.74655 0
      vertex -0.327917 1.719 2.1
    endloop
  endfacet
  facet normal -0.187381 -0.982287 0
    outer loop
      vertex 0.54078 1.66435 0
      vertex 0.54078 1.66435 2.1
      vertex 0.109883 1.74655 2.1
    endloop
  endfacet
  facet normal -0.187381 -0.982287 0
    outer loop
      vertex 0.109883 1.74655 0
      vertex 0.54078 1.66435 0
      vertex 0.109883 1.74655 2.1
    endloop
  endfacet
  facet normal -0.425779 -0.904827 0
    outer loop
      vertex 0.937697 1.47757 0
      vertex 0.937697 1.47757 2.1
      vertex 0.54078 1.66435 2.1
    endloop
  endfacet
  facet normal -0.425779 -0.904827 0
    outer loop
      vertex 0.54078 1.66435 0
      vertex 0.937697 1.47757 0
      vertex 0.54078 1.66435 2.1
    endloop
  endfacet
  facet normal -0.637425 -0.770512 0
    outer loop
      vertex 1.2757 1.19796 0
      vertex 1.2757 1.19796 2.1
      vertex 0.937697 1.47757 2.1
    endloop
  endfacet
  facet normal -0.637425 -0.770512 0
    outer loop
      vertex 0.937697 1.47757 0
      vertex 1.2757 1.19796 0
      vertex 0.937697 1.47757 2.1
    endloop
  endfacet
  facet normal -0.809016 -0.587786 0
    outer loop
      vertex 1.53354 0.843069 2.1
      vertex 1.2757 1.19796 2.1
      vertex 1.53354 0.843069 0
    endloop
  endfacet
  facet normal -0.809016 -0.587786 0
    outer loop
      vertex 1.53354 0.843069 0
      vertex 1.2757 1.19796 2.1
      vertex 1.2757 1.19796 0
    endloop
  endfacet
  facet normal -0.929776 -0.368125 0
    outer loop
      vertex 1.69502 0.435207 2.1
      vertex 1.53354 0.843069 2.1
      vertex 1.69502 0.435207 0
    endloop
  endfacet
  facet normal -0.929776 -0.368125 0
    outer loop
      vertex 1.69502 0.435207 0
      vertex 1.53354 0.843069 2.1
      vertex 1.53354 0.843069 0
    endloop
  endfacet
  facet normal -0.992115 -0.125332 0
    outer loop
      vertex 1.75 0 2.1
      vertex 1.69502 0.435207 2.1
      vertex 1.75 0 0
    endloop
  endfacet
  facet normal -0.992115 -0.125332 0
    outer loop
      vertex 1.75 0 0
      vertex 1.69502 0.435207 2.1
      vertex 1.69502 0.435207 0
    endloop
  endfacet
  facet normal -0.992115 0.125332 0
    outer loop
      vertex 1.75 0 2.1
      vertex 1.75 0 0
      vertex 1.69502 -0.435207 2.1
    endloop
  endfacet
  facet normal -0.992115 0.125332 0
    outer loop
      vertex 1.69502 -0.435207 2.1
      vertex 1.75 0 0
      vertex 1.69502 -0.435207 0
    endloop
  endfacet
  facet normal -0.929776 0.368125 0
    outer loop
      vertex 1.69502 -0.435207 2.1
      vertex 1.69502 -0.435207 0
      vertex 1.53354 -0.843069 2.1
    endloop
  endfacet
  facet normal -0.929776 0.368125 0
    outer loop
      vertex 1.53354 -0.843069 2.1
      vertex 1.69502 -0.435207 0
      vertex 1.53354 -0.843069 0
    endloop
  endfacet
  facet normal -0.809016 0.587786 0
    outer loop
      vertex 1.53354 -0.843069 2.1
      vertex 1.53354 -0.843069 0
      vertex 1.2757 -1.19796 2.1
    endloop
  endfacet
  facet normal -0.809016 0.587786 0
    outer loop
      vertex 1.2757 -1.19796 2.1
      vertex 1.53354 -0.843069 0
      vertex 1.2757 -1.19796 0
    endloop
  endfacet
  facet normal -0.637425 0.770512 0
    outer loop
      vertex 1.2757 -1.19796 2.1
      vertex 1.2757 -1.19796 0
      vertex 0.937697 -1.47757 2.1
    endloop
  endfacet
  facet normal -0.637425 0.770512 0
    outer loop
      vertex 0.937697 -1.47757 2.1
      vertex 1.2757 -1.19796 0
      vertex 0.937697 -1.47757 0
    endloop
  endfacet
  facet normal -0.425779 0.904827 0
    outer loop
      vertex 0.937697 -1.47757 2.1
      vertex 0.937697 -1.47757 0
      vertex 0.54078 -1.66435 2.1
    endloop
  endfacet
  facet normal -0.425779 0.904827 0
    outer loop
      vertex 0.54078 -1.66435 2.1
      vertex 0.937697 -1.47757 0
      vertex 0.54078 -1.66435 0
    endloop
  endfacet
  facet normal -0.187381 0.982287 0
    outer loop
      vertex 0.54078 -1.66435 2.1
      vertex 0.54078 -1.66435 0
      vertex 0.109883 -1.74655 2.1
    endloop
  endfacet
  facet normal -0.187381 0.982287 0
    outer loop
      vertex 0.109883 -1.74655 2.1
      vertex 0.54078 -1.66435 0
      vertex 0.109883 -1.74655 0
    endloop
  endfacet
  facet normal 0.0627904 0.998027 0
    outer loop
      vertex 0.109883 -1.74655 2.1
      vertex 0.109883 -1.74655 0
      vertex -0.327917 -1.719 2.1
    endloop
  endfacet
  facet normal 0.0627904 0.998027 0
    outer loop
      vertex -0.327917 -1.719 2.1
      vertex 0.109883 -1.74655 0
      vertex -0.327917 -1.719 0
    endloop
  endfacet
  facet normal 0.309018 0.951056 0
    outer loop
      vertex -0.327917 -1.719 2.1
      vertex -0.327917 -1.719 0
      vertex -0.745114 -1.58345 2.1
    endloop
  endfacet
  facet normal 0.309018 0.951056 0
    outer loop
      vertex -0.745114 -1.58345 2.1
      vertex -0.327917 -1.719 0
      vertex -0.745114 -1.58345 0
    endloop
  endfacet
  facet normal 0.535827 0.844328 0
    outer loop
      vertex -0.745114 -1.58345 2.1
      vertex -0.745114 -1.58345 0
      vertex -1.11549 -1.3484 2.1
    endloop
  endfacet
  facet normal 0.535827 0.844328 0
    outer loop
      vertex -1.11549 -1.3484 2.1
      vertex -0.745114 -1.58345 0
      vertex -1.11549 -1.3484 0
    endloop
  endfacet
  facet normal 0.728968 0.684547 0
    outer loop
      vertex -1.41578 -1.02862 2.1
      vertex -1.11549 -1.3484 2.1
      vertex -1.11549 -1.3484 0
    endloop
  endfacet
  facet normal 0.728968 0.684547 0
    outer loop
      vertex -1.41578 -1.02862 0
      vertex -1.41578 -1.02862 2.1
      vertex -1.11549 -1.3484 0
    endloop
  endfacet
  facet normal 0.876307 0.481754 0
    outer loop
      vertex -1.62711 -0.644218 2.1
      vertex -1.41578 -1.02862 2.1
      vertex -1.41578 -1.02862 0
    endloop
  endfacet
  facet normal 0.876307 0.481754 0
    outer loop
      vertex -1.62711 -0.644218 0
      vertex -1.62711 -0.644218 2.1
      vertex -1.41578 -1.02862 0
    endloop
  endfacet
  facet normal 0.968583 0.24869 0
    outer loop
      vertex -1.7362 -0.219333 2.1
      vertex -1.62711 -0.644218 2.1
      vertex -1.62711 -0.644218 0
    endloop
  endfacet
  facet normal 0.968583 0.24869 0
    outer loop
      vertex -1.7362 -0.219333 0
      vertex -1.7362 -0.219333 2.1
      vertex -1.62711 -0.644218 0
    endloop
  endfacet
  facet normal 0 0 1
    outer loop
      vertex -7.44086 0.939999 2.1
      vertex -7.44086 -0.939999 2.1
      vertex -6.97332 -2.76093 2.1
    endloop
  endfacet
  facet normal 0 0 1
    outer loop
      vertex -4.78068 -5.77885 2.1
      vertex -7.44086 0.939999 2.1
      vertex -6.06763 -4.40839 2.1
    endloop
  endfacet
  facet normal 0 0 1
    outer loop
      vertex -6.06763 -4.40839 2.1
      vertex -7.44086 0.939999 2.1
      vertex -6.97332 -2.76093 2.1
    endloop
  endfacet
  facet normal 0 0 1
    outer loop
      vertex -3.19334 -6.7862 2.1
      vertex -7.44086 0.939999 2.1
      vertex -4.78068 -5.77885 2.1
    endloop
  endfacet
  facet normal 0 0 1
    outer loop
      vertex -1.40536 -7.36715 2.1
      vertex -7.44086 0.939999 2.1
      vertex -3.19334 -6.7862 2.1
    endloop
  endfacet
  facet normal 0 0 1
    outer loop
      vertex 0.470929 -7.4852 2.1
      vertex -7.44086 0.939999 2.1
      vertex -1.40536 -7.36715 2.1
    endloop
  endfacet
  facet normal 0 0 1
    outer loop
      vertex 2.31763 -7.13292 2.1
      vertex -7.44086 0.939999 2.1
      vertex 0.470929 -7.4852 2.1
    endloop
  endfacet
  facet normal 0 0 1
    outer loop
      vertex 4.0187 -6.33246 2.1
      vertex -7.44086 0.939999 2.1
      vertex 2.31763 -7.13292 2.1
    endloop
  endfacet
  facet normal 0 0 1
    outer loop
      vertex 5.46726 -5.1341 2.1
      vertex -7.44086 0.939999 2.1
      vertex 4.0187 -6.33246 2.1
    endloop
  endfacet
  facet normal 0 0 1
    outer loop
      vertex -0.745114 -1.58345 2.1
      vertex -7.44086 0.939999 2.1
      vertex 5.46726 -5.1341 2.1
    endloop
  endfacet
  facet normal 0 0 1
    outer loop
      vertex -0.745114 -1.58345 2.1
      vertex -1.11549 -1.3484 2.1
      vertex -7.44086 0.939999 2.1
    endloop
  endfacet
  facet normal 0 0 1
    outer loop
      vertex 1.2757 1.19796 2.1
      vertex 1.53354 0.843069 2.1
      vertex 7.26437 1.86517 2.1
    endloop
  endfacet
  facet normal 0 0 1
    outer loop
      vertex 5.46726 5.1341 2.1
      vertex -7.44086 0.939999 2.1
      vertex 6.5723 3.61315 2.1
    endloop
  endfacet
  facet normal 0 0 1
    outer loop
      vertex 4.0187 6.33246 2.1
      vertex -7.44086 0.939999 2.1
      vertex 5.46726 5.1341 2.1
    endloop
  endfacet
  facet normal 0 0 1
    outer loop
      vertex 2.31763 7.13292 2.1
      vertex -7.44086 0.939999 2.1
      vertex 4.0187 6.33246 2.1
    endloop
  endfacet
  facet normal 0 0 1
    outer loop
      vertex 0.470929 7.4852 2.1
      vertex -7.44086 0.939999 2.1
      vertex 2.31763 7.13292 2.1
    endloop
  endfacet
  facet normal 0 0 1
    outer loop
      vertex -1.40536 7.36715 2.1
      vertex -7.44086 0.939999 2.1
      vertex 0.470929 7.4852 2.1
    endloop
  endfacet
  facet normal 0 0 1
    outer loop
      vertex -3.19334 6.7862 2.1
      vertex -7.44086 0.939999 2.1
      vertex -1.40536 7.36715 2.1
    endloop
  endfacet
  facet normal 0 0 1
    outer loop
      vertex -4.78068 5.77885 2.1
      vertex -7.44086 0.939999 2.1
      vertex -3.19334 6.7862 2.1
    endloop
  endfacet
  facet normal 0 0 1
    outer loop
      vertex -6.06763 4.40839 2.1
      vertex -7.44086 0.939999 2.1
      vertex -4.78068 5.77885 2.1
    endloop
  endfacet
  facet normal 0 0 1
    outer loop
      vertex -6.97332 2.76093 2.1
      vertex -7.44086 0.939999 2.1
      vertex -6.06763 4.40839 2.1
    endloop
  endfacet
  facet normal 0 0 1
    outer loop
      vertex 0.937697 -1.47757 2.1
      vertex 0.54078 -1.66435 2.1
      vertex 6.5723 -3.61315 2.1
    endloop
  endfacet
  facet normal 0 0 1
    outer loop
      vertex -1.7362 0.219333 2.1
      vertex -1.62711 0.644218 2.1
      vertex -7.44086 0.939999 2.1
    endloop
  endfacet
  facet normal 0 0 1
    outer loop
      vertex -1.41578 -1.02862 2.1
      vertex -1.62711 -0.644218 2.1
      vertex -7.44086 0.939999 2.1
    endloop
  endfacet
  facet normal 0 0 1
    outer loop
      vertex -1.41578 1.02862 2.1
      vertex -1.11549 1.3484 2.1
      vertex -7.44086 0.939999 2.1
    endloop
  endfacet
  facet normal 0 0 1
    outer loop
      vertex 1.69502 -0.435207 2.1
      vertex 1.53354 -0.843069 2.1
      vertex 7.26437 -1.86517 2.1
    endloop
  endfacet
  facet normal 0 0 1
    outer loop
      vertex -1.41578 1.02862 2.1
      vertex -7.44086 0.939999 2.1
      vertex -1.62711 0.644218 2.1
    endloop
  endfacet
  facet normal 0 0 1
    outer loop
      vertex -0.327917 1.719 2.1
      vertex 0.109883 1.74655 2.1
      vertex 6.5723 3.61315 2.1
    endloop
  endfacet
  facet normal 0 0 1
    outer loop
      vertex 1.69502 0.435207 2.1
      vertex 1.75 0 2.1
      vertex 7.5 0 2.1
    endloop
  endfacet
  facet normal 0 0 1
    outer loop
      vertex -0.745114 1.58345 2.1
      vertex -7.44086 0.939999 2.1
      vertex -1.11549 1.3484 2.1
    endloop
  endfacet
  facet normal 0 0 1
    outer loop
      vertex -0.327917 1.719 2.1
      vertex -7.44086 0.939999 2.1
      vertex -0.745114 1.58345 2.1
    endloop
  endfacet
  facet normal 0 0 1
    outer loop
      vertex 0.109883 1.74655 2.1
      vertex 0.54078 1.66435 2.1
      vertex 6.5723 3.61315 2.1
    endloop
  endfacet
  facet normal 0 0 1
    outer loop
      vertex 6.5723 3.61315 2.1
      vertex -7.44086 0.939999 2.1
      vertex -0.327917 1.719 2.1
    endloop
  endfacet
  facet normal 0 0 1
    outer loop
      vertex 6.5723 3.61315 2.1
      vertex 0.54078 1.66435 2.1
      vertex 7.26437 1.86517 2.1
    endloop
  endfacet
  facet normal 0 0 1
    outer loop
      vertex 0.54078 1.66435 2.1
      vertex 0.937697 1.47757 2.1
      vertex 7.26437 1.86517 2.1
    endloop
  endfacet
  facet normal 0 0 1
    outer loop
      vertex 7.26437 1.86517 2.1
      vertex 1.53354 0.843069 2.1
      vertex 7.5 0 2.1
    endloop
  endfacet
  facet normal 0 0 1
    outer loop
      vertex 1.53354 0.843069 2.1
      vertex 1.69502 0.435207 2.1
      vertex 7.5 0 2.1
    endloop
  endfacet
  facet normal 0 0 1
    outer loop
      vertex 7.5 0 2.1
      vertex 1.75 0 2.1
      vertex 7.26437 -1.86517 2.1
    endloop
  endfacet
  facet normal 0 0 1
    outer loop
      vertex 1.75 0 2.1
      vertex 1.69502 -0.435207 2.1
      vertex 7.26437 -1.86517 2.1
    endloop
  endfacet
  facet normal 0 0 1
    outer loop
      vertex 7.26437 -1.86517 2.1
      vertex 1.53354 -0.843069 2.1
      vertex 6.5723 -3.61315 2.1
    endloop
  endfacet
  facet normal 0 0 1
    outer loop
      vertex 1.53354 -0.843069 2.1
      vertex 1.2757 -1.19796 2.1
      vertex 6.5723 -3.61315 2.1
    endloop
  endfacet
  facet normal 0 0 1
    outer loop
      vertex 6.5723 -3.61315 2.1
      vertex 0.54078 -1.66435 2.1
      vertex 5.46726 -5.1341 2.1
    endloop
  endfacet
  facet normal 0 0 1
    outer loop
      vertex 0.54078 -1.66435 2.1
      vertex 0.109883 -1.74655 2.1
      vertex 5.46726 -5.1341 2.1
    endloop
  endfacet
  facet normal 0 0 1
    outer loop
      vertex 0.109883 -1.74655 2.1
      vertex -0.327917 -1.719 2.1
      vertex 5.46726 -5.1341 2.1
    endloop
  endfacet
  facet normal 0 0 1
    outer loop
      vertex -0.327917 -1.719 2.1
      vertex -0.745114 -1.58345 2.1
      vertex 5.46726 -5.1341 2.1
    endloop
  endfacet
  facet normal 0 0 1
    outer loop
      vertex -1.11549 -1.3484 2.1
      vertex -1.41578 -1.02862 2.1
      vertex -7.44086 0.939999 2.1
    endloop
  endfacet
  facet normal 0 0 1
    outer loop
      vertex -1.7362 -0.219333 2.1
      vertex -7.44086 0.939999 2.1
      vertex -1.62711 -0.644218 2.1
    endloop
  endfacet
  facet normal 0 0 1
    outer loop
      vertex 1.2757 -1.19796 2.1
      vertex 0.937697 -1.47757 2.1
      vertex 6.5723 -3.61315 2.1
    endloop
  endfacet
  facet normal 0 0 1
    outer loop
      vertex -1.7362 -0.219333 2.1
      vertex -1.7362 0.219333 2.1
      vertex -7.44086 0.939999 2.1
    endloop
  endfacet
  facet normal 0 0 1
    outer loop
      vertex 0.937697 1.47757 2.1
      vertex 1.2757 1.19796 2.1
      vertex 7.26437 1.86517 2.1
    endloop
  endfacet
endsolid OpenSCAD_Model
