solid OpenSCAD_Model
  facet normal 0 0 -1
    outer loop
      vertex -5.70466 -0.720666 0
      vertex -5.70466 0.720666 0
      vertex -5.34621 -2.11672 0
    endloop
  endfacet
  facet normal 0 0 -1
    outer loop
      vertex -5.34621 -2.11672 0
      vertex -5.70466 0.720666 0
      vertex -5.34621 2.11672 0
    endloop
  endfacet
  facet normal 0 0 -1
    outer loop
      vertex -5.34621 -2.11672 0
      vertex -5.34621 2.11672 0
      vertex -4.65185 3.37976 0
    endloop
  endfacet
  facet normal 0 0 -1
    outer loop
      vertex -5.34621 -2.11672 0
      vertex -4.65185 3.37976 0
      vertex -3.66519 4.43045 0
    endloop
  endfacet
  facet normal 0 0 -1
    outer loop
      vertex -5.34621 -2.11672 0
      vertex -3.66519 4.43045 0
      vertex -2.44823 5.20276 0
    endloop
  endfacet
  facet normal 0 0 -1
    outer loop
      vertex -5.34621 -2.11672 0
      vertex -2.44823 5.20276 0
      vertex -1.07744 5.64815 0
    endloop
  endfacet
  facet normal 0 0 -1
    outer loop
      vertex -5.34621 -2.11672 0
      vertex -1.07744 5.64815 0
      vertex 0.361045 5.73865 0
    endloop
  endfacet
  facet normal 0 0 -1
    outer loop
      vertex -5.34621 -2.11672 0
      vertex 0.361045 5.73865 0
      vertex 1.77685 5.46857 0
    endloop
  endfacet
  facet normal 0 0 -1
    outer loop
      vertex -5.34621 -2.11672 0
      vertex 1.77685 5.46857 0
      vertex 3.081 4.85489 0
    endloop
  endfacet
  facet normal 0 0 -1
    outer loop
      vertex 0.54078 1.66435 0
      vertex 3.081 4.85489 0
      vertex 4.19157 3.93615 0
    endloop
  endfacet
  facet normal 0 0 -1
    outer loop
      vertex 1.2757 1.19796 0
      vertex 4.19157 3.93615 0
      vertex 5.03876 2.77008 0
    endloop
  endfacet
  facet normal 0 0 -1
    outer loop
      vertex 1.69502 0.435207 0
      vertex 5.03876 2.77008 0
      vertex 5.56935 1.42997 0
    endloop
  endfacet
  facet normal 0 0 -1
    outer loop
      vertex 1.69502 -0.435207 0
      vertex 5.56935 1.42997 0
      vertex 5.75 0 0
    endloop
  endfacet
  facet normal 0 0 -1
    outer loop
      vertex 1.2757 -1.19796 0
      vertex 5.75 0 0
      vertex 5.56935 -1.42997 0
    endloop
  endfacet
  facet normal 0 0 -1
    outer loop
      vertex -5.34621 -2.11672 0
      vertex 5.56935 -1.42997 0
      vertex 5.03876 -2.77008 0
    endloop
  endfacet
  facet normal 0 0 -1
    outer loop
      vertex -5.34621 -2.11672 0
      vertex 5.03876 -2.77008 0
      vertex 4.19157 -3.93615 0
    endloop
  endfacet
  facet normal 0 0 -1
    outer loop
      vertex -5.34621 -2.11672 0
      vertex 4.19157 -3.93615 0
      vertex 3.081 -4.85489 0
    endloop
  endfacet
  facet normal 0 0 -1
    outer loop
      vertex -5.34621 -2.11672 0
      vertex 3.081 -4.85489 0
      vertex 1.77685 -5.46857 0
    endloop
  endfacet
  facet normal 0 0 -1
    outer loop
      vertex -5.34621 -2.11672 0
      vertex 1.77685 -5.46857 0
      vertex 0.361045 -5.73865 0
    endloop
  endfacet
  facet normal 0 0 -1
    outer loop
      vertex -5.34621 -2.11672 0
      vertex 0.361045 -5.73865 0
      vertex -1.07744 -5.64815 0
    endloop
  endfacet
  facet normal 0 0 -1
    outer loop
      vertex -5.34621 -2.11672 0
      vertex -1.07744 -5.64815 0
      vertex -2.44823 -5.20276 0
    endloop
  endfacet
  facet normal 0 0 -1
    outer loop
      vertex -5.34621 -2.11672 0
      vertex -2.44823 -5.20276 0
      vertex -3.66519 -4.43045 0
    endloop
  endfacet
  facet normal 0 0 -1
    outer loop
      vertex -5.34621 -2.11672 0
      vertex -3.66519 -4.43045 0
      vertex -4.65185 -3.37976 0
    endloop
  endfacet
  facet normal 0 0 -1
    outer loop
      vertex -1.41578 1.02862 0
      vertex -5.34621 -2.11672 0
      vertex -1.11549 1.3484 0
    endloop
  endfacet
  facet normal 0 0 -1
    outer loop
      vertex -1.62711 -0.644218 0
      vertex -5.34621 -2.11672 0
      vertex -1.7362 -0.219333 0
    endloop
  endfacet
  facet normal 0 0 -1
    outer loop
      vertex -1.41578 -1.02862 0
      vertex -5.34621 -2.11672 0
      vertex -1.62711 -0.644218 0
    endloop
  endfacet
  facet normal 0 0 -1
    outer loop
      vertex -1.11549 -1.3484 0
      vertex -5.34621 -2.11672 0
      vertex -1.41578 -1.02862 0
    endloop
  endfacet
  facet normal 0 0 -1
    outer loop
      vertex 0.54078 -1.66435 0
      vertex 5.56935 -1.42997 0
      vertex 0.109883 -1.74655 0
    endloop
  endfacet
  facet normal 0 0 -1
    outer loop
      vertex -5.34621 -2.11672 0
      vertex -1.11549 -1.3484 0
      vertex -0.745114 -1.58345 0
    endloop
  endfacet
  facet normal 0 0 -1
    outer loop
      vertex -5.34621 -2.11672 0
      vertex -0.745114 -1.58345 0
      vertex -0.327917 -1.719 0
    endloop
  endfacet
  facet normal 0 0 -1
    outer loop
      vertex -5.34621 -2.11672 0
      vertex -0.327917 -1.719 0
      vertex 0.109883 -1.74655 0
    endloop
  endfacet
  facet normal 0 0 -1
    outer loop
      vertex -5.34621 -2.11672 0
      vertex 0.109883 -1.74655 0
      vertex 5.56935 -1.42997 0
    endloop
  endfacet
  facet normal 0 0 -1
    outer loop
      vertex 0.937697 -1.47757 0
      vertex 5.56935 -1.42997 0
      vertex 0.54078 -1.66435 0
    endloop
  endfacet
  facet normal 0 0 -1
    outer loop
      vertex 1.2757 -1.19796 0
      vertex 5.56935 -1.42997 0
      vertex 0.937697 -1.47757 0
    endloop
  endfacet
  facet normal 0 0 -1
    outer loop
      vertex 1.53354 -0.843069 0
      vertex 5.75 0 0
      vertex 1.2757 -1.19796 0
    endloop
  endfacet
  facet normal 0 0 -1
    outer loop
      vertex 1.69502 -0.435207 0
      vertex 5.75 0 0
      vertex 1.53354 -0.843069 0
    endloop
  endfacet
  facet normal 0 0 -1
    outer loop
      vertex 1.75 0 0
      vertex 5.56935 1.42997 0
      vertex 1.69502 -0.435207 0
    endloop
  endfacet
  facet normal 0 0 -1
    outer loop
      vertex 1.69502 0.435207 0
      vertex 5.56935 1.42997 0
      vertex 1.75 0 0
    endloop
  endfacet
  facet normal 0 0 -1
    outer loop
      vertex 1.53354 0.843069 0
      vertex 5.03876 2.77008 0
      vertex 1.69502 0.435207 0
    endloop
  endfacet
  facet normal 0 0 -1
    outer loop
      vertex 1.2757 1.19796 0
      vertex 5.03876 2.77008 0
      vertex 1.53354 0.843069 0
    endloop
  endfacet
  facet normal 0 0 -1
    outer loop
      vertex 0.937697 1.47757 0
      vertex 4.19157 3.93615 0
      vertex 1.2757 1.19796 0
    endloop
  endfacet
  facet normal 0 0 -1
    outer loop
      vertex 0.54078 1.66435 0
      vertex 4.19157 3.93615 0
      vertex 0.937697 1.47757 0
    endloop
  endfacet
  facet normal 0 0 -1
    outer loop
      vertex 0.109883 1.74655 0
      vertex 3.081 4.85489 0
      vertex 0.54078 1.66435 0
    endloop
  endfacet
  facet normal 0 0 -1
    outer loop
      vertex -0.327917 1.719 0
      vertex 3.081 4.85489 0
      vertex 0.109883 1.74655 0
    endloop
  endfacet
  facet normal 0 0 -1
    outer loop
      vertex -0.745114 1.58345 0
      vertex 3.081 4.85489 0
      vertex -0.327917 1.719 0
    endloop
  endfacet
  facet normal 0 0 -1
    outer loop
      vertex -1.11549 1.3484 0
      vertex 3.081 4.85489 0
      vertex -0.745114 1.58345 0
    endloop
  endfacet
  facet normal 0 0 -1
    outer loop
      vertex -5.34621 -2.11672 0
      vertex 3.081 4.85489 0
      vertex -1.11549 1.3484 0
    endloop
  endfacet
  facet normal 0 0 -1
    outer loop
      vertex -1.62711 0.644218 0
      vertex -5.34621 -2.11672 0
      vertex -1.41578 1.02862 0
    endloop
  endfacet
  facet normal 0 0 -1
    outer loop
      vertex -5.34621 -2.11672 0
      vertex -1.62711 0.644218 0
      vertex -1.7362 0.219333 0
    endloop
  endfacet
  facet normal 0 0 -1
    outer loop
      vertex -1.7362 -0.219333 0
      vertex -5.34621 -2.11672 0
      vertex -1.7362 0.219333 0
    endloop
  endfacet
  facet normal -1 0 0
    outer loop
      vertex -5.70466 -0.720666 0
      vertex -5.70466 -0.720666 16
      vertex -5.70466 0.720666 0
    endloop
  endfacet
  facet normal -1 0 0
    outer loop
      vertex -5.70466 0.720666 0
      vertex -5.70466 -0.720666 16
      vertex -5.70466 0.720666 16
    endloop
  endfacet
  facet normal -0.968583 -0.24869 0
    outer loop
      vertex -5.70466 -0.720666 0
      vertex -5.34621 -2.11672 0
      vertex -5.70466 -0.720666 16
    endloop
  endfacet
  facet normal -0.968583 -0.24869 0
    outer loop
      vertex -5.70466 -0.720666 16
      vertex -5.34621 -2.11672 0
      vertex -5.34621 -2.11672 16
    endloop
  endfacet
  facet normal -0.876307 -0.481754 0
    outer loop
      vertex -5.34621 -2.11672 0
      vertex -4.65185 -3.37976 0
      vertex -5.34621 -2.11672 16
    endloop
  endfacet
  facet normal -0.876307 -0.481754 0
    outer loop
      vertex -5.34621 -2.11672 16
      vertex -4.65185 -3.37976 0
      vertex -4.65185 -3.37976 16
    endloop
  endfacet
  facet normal -0.728969 -0.684547 0
    outer loop
      vertex -4.65185 -3.37976 0
      vertex -3.66519 -4.43045 0
      vertex -4.65185 -3.37976 16
    endloop
  endfacet
  facet normal -0.728969 -0.684547 0
    outer loop
      vertex -4.65185 -3.37976 16
      vertex -3.66519 -4.43045 0
      vertex -3.66519 -4.43045 16
    endloop
  endfacet
  facet normal -0.535827 -0.844328 0
    outer loop
      vertex -3.66519 -4.43045 16
      vertex -3.66519 -4.43045 0
      vertex -2.44823 -5.20276 0
    endloop
  endfacet
  facet normal -0.535827 -0.844328 0
    outer loop
      vertex -2.44823 -5.20276 16
      vertex -3.66519 -4.43045 16
      vertex -2.44823 -5.20276 0
    endloop
  endfacet
  facet normal -0.309017 -0.951057 0
    outer loop
      vertex -2.44823 -5.20276 16
      vertex -2.44823 -5.20276 0
      vertex -1.07744 -5.64815 0
    endloop
  endfacet
  facet normal -0.309017 -0.951057 0
    outer loop
      vertex -1.07744 -5.64815 16
      vertex -2.44823 -5.20276 16
      vertex -1.07744 -5.64815 0
    endloop
  endfacet
  facet normal -0.0627905 -0.998027 0
    outer loop
      vertex -1.07744 -5.64815 16
      vertex -1.07744 -5.64815 0
      vertex 0.361045 -5.73865 0
    endloop
  endfacet
  facet normal -0.0627905 -0.998027 0
    outer loop
      vertex 0.361045 -5.73865 16
      vertex -1.07744 -5.64815 16
      vertex 0.361045 -5.73865 0
    endloop
  endfacet
  facet normal 0.187381 -0.982287 0
    outer loop
      vertex 0.361045 -5.73865 16
      vertex 0.361045 -5.73865 0
      vertex 1.77685 -5.46857 0
    endloop
  endfacet
  facet normal 0.187381 -0.982287 0
    outer loop
      vertex 1.77685 -5.46857 16
      vertex 0.361045 -5.73865 16
      vertex 1.77685 -5.46857 0
    endloop
  endfacet
  facet normal 0.425779 -0.904827 0
    outer loop
      vertex 1.77685 -5.46857 16
      vertex 1.77685 -5.46857 0
      vertex 3.081 -4.85489 0
    endloop
  endfacet
  facet normal 0.425779 -0.904827 0
    outer loop
      vertex 3.081 -4.85489 16
      vertex 1.77685 -5.46857 16
      vertex 3.081 -4.85489 0
    endloop
  endfacet
  facet normal 0.637424 -0.770513 0
    outer loop
      vertex 3.081 -4.85489 16
      vertex 3.081 -4.85489 0
      vertex 4.19157 -3.93615 0
    endloop
  endfacet
  facet normal 0.637424 -0.770513 0
    outer loop
      vertex 4.19157 -3.93615 16
      vertex 3.081 -4.85489 16
      vertex 4.19157 -3.93615 0
    endloop
  endfacet
  facet normal 0.809017 -0.587785 0
    outer loop
      vertex 4.19157 -3.93615 16
      vertex 4.19157 -3.93615 0
      vertex 5.03876 -2.77008 0
    endloop
  endfacet
  facet normal 0.809017 -0.587785 0
    outer loop
      vertex 5.03876 -2.77008 16
      vertex 4.19157 -3.93615 16
      vertex 5.03876 -2.77008 0
    endloop
  endfacet
  facet normal 0.929776 -0.368125 0
    outer loop
      vertex 5.03876 -2.77008 16
      vertex 5.03876 -2.77008 0
      vertex 5.56935 -1.42997 0
    endloop
  endfacet
  facet normal 0.929776 -0.368125 0
    outer loop
      vertex 5.56935 -1.42997 16
      vertex 5.03876 -2.77008 16
      vertex 5.56935 -1.42997 0
    endloop
  endfacet
  facet normal 0.992115 -0.125333 0
    outer loop
      vertex 5.56935 -1.42997 16
      vertex 5.56935 -1.42997 0
      vertex 5.75 0 0
    endloop
  endfacet
  facet normal 0.992115 -0.125333 0
    outer loop
      vertex 5.75 0 16
      vertex 5.56935 -1.42997 16
      vertex 5.75 0 0
    endloop
  endfacet
  facet normal 0.992115 0.125333 0
    outer loop
      vertex 5.75 0 0
      vertex 5.56935 1.42997 0
      vertex 5.56935 1.42997 16
    endloop
  endfacet
  facet normal 0.992115 0.125333 0
    outer loop
      vertex 5.75 0 16
      vertex 5.75 0 0
      vertex 5.56935 1.42997 16
    endloop
  endfacet
  facet normal 0.929776 0.368125 0
    outer loop
      vertex 5.56935 1.42997 0
      vertex 5.03876 2.77008 0
      vertex 5.03876 2.77008 16
    endloop
  endfacet
  facet normal 0.929776 0.368125 0
    outer loop
      vertex 5.56935 1.42997 16
      vertex 5.56935 1.42997 0
      vertex 5.03876 2.77008 16
    endloop
  endfacet
  facet normal 0.809017 0.587785 0
    outer loop
      vertex 5.03876 2.77008 0
      vertex 4.19157 3.93615 0
      vertex 4.19157 3.93615 16
    endloop
  endfacet
  facet normal 0.809017 0.587785 0
    outer loop
      vertex 5.03876 2.77008 16
      vertex 5.03876 2.77008 0
      vertex 4.19157 3.93615 16
    endloop
  endfacet
  facet normal 0.637424 0.770513 0
    outer loop
      vertex 3.081 4.85489 0
      vertex 3.081 4.85489 16
      vertex 4.19157 3.93615 0
    endloop
  endfacet
  facet normal 0.637424 0.770513 0
    outer loop
      vertex 4.19157 3.93615 0
      vertex 3.081 4.85489 16
      vertex 4.19157 3.93615 16
    endloop
  endfacet
  facet normal 0.425779 0.904827 0
    outer loop
      vertex 1.77685 5.46857 0
      vertex 1.77685 5.46857 16
      vertex 3.081 4.85489 0
    endloop
  endfacet
  facet normal 0.425779 0.904827 0
    outer loop
      vertex 3.081 4.85489 0
      vertex 1.77685 5.46857 16
      vertex 3.081 4.85489 16
    endloop
  endfacet
  facet normal 0.187381 0.982287 0
    outer loop
      vertex 0.361045 5.73865 0
      vertex 0.361045 5.73865 16
      vertex 1.77685 5.46857 0
    endloop
  endfacet
  facet normal 0.187381 0.982287 0
    outer loop
      vertex 1.77685 5.46857 0
      vertex 0.361045 5.73865 16
      vertex 1.77685 5.46857 16
    endloop
  endfacet
  facet normal -0.0627905 0.998027 0
    outer loop
      vertex -1.07744 5.64815 0
      vertex -1.07744 5.64815 16
      vertex 0.361045 5.73865 0
    endloop
  endfacet
  facet normal -0.0627905 0.998027 0
    outer loop
      vertex 0.361045 5.73865 0
      vertex -1.07744 5.64815 16
      vertex 0.361045 5.73865 16
    endloop
  endfacet
  facet normal -0.309017 0.951057 0
    outer loop
      vertex -2.44823 5.20276 0
      vertex -2.44823 5.20276 16
      vertex -1.07744 5.64815 0
    endloop
  endfacet
  facet normal -0.309017 0.951057 0
    outer loop
      vertex -1.07744 5.64815 0
      vertex -2.44823 5.20276 16
      vertex -1.07744 5.64815 16
    endloop
  endfacet
  facet normal -0.535827 0.844328 0
    outer loop
      vertex -3.66519 4.43045 0
      vertex -3.66519 4.43045 16
      vertex -2.44823 5.20276 0
    endloop
  endfacet
  facet normal -0.535827 0.844328 0
    outer loop
      vertex -2.44823 5.20276 0
      vertex -3.66519 4.43045 16
      vertex -2.44823 5.20276 16
    endloop
  endfacet
  facet normal -0.728969 0.684547 0
    outer loop
      vertex -4.65185 3.37976 0
      vertex -4.65185 3.37976 16
      vertex -3.66519 4.43045 0
    endloop
  endfacet
  facet normal -0.728969 0.684547 0
    outer loop
      vertex -3.66519 4.43045 0
      vertex -4.65185 3.37976 16
      vertex -3.66519 4.43045 16
    endloop
  endfacet
  facet normal -0.876307 0.481754 0
    outer loop
      vertex -5.34621 2.11672 0
      vertex -5.34621 2.11672 16
      vertex -4.65185 3.37976 0
    endloop
  endfacet
  facet normal -0.876307 0.481754 0
    outer loop
      vertex -4.65185 3.37976 0
      vertex -5.34621 2.11672 16
      vertex -4.65185 3.37976 16
    endloop
  endfacet
  facet normal -0.968583 0.24869 0
    outer loop
      vertex -5.70466 0.720666 0
      vertex -5.70466 0.720666 16
      vertex -5.34621 2.11672 0
    endloop
  endfacet
  facet normal -0.968583 0.24869 0
    outer loop
      vertex -5.34621 2.11672 0
      vertex -5.70466 0.720666 16
      vertex -5.34621 2.11672 16
    endloop
  endfacet
  facet normal 0.968583 -0.24869 0
    outer loop
      vertex -1.62711 0.644218 0
      vertex -1.62711 0.644218 16
      vertex -1.7362 0.219333 16
    endloop
  endfacet
  facet normal 0.968583 -0.24869 0
    outer loop
      vertex -1.7362 0.219333 0
      vertex -1.62711 0.644218 0
      vertex -1.7362 0.219333 16
    endloop
  endfacet
  facet normal 1 0 0
    outer loop
      vertex -1.7362 0.219333 0
      vertex -1.7362 0.219333 16
      vertex -1.7362 -0.219333 16
    endloop
  endfacet
  facet normal 1 0 0
    outer loop
      vertex -1.7362 -0.219333 0
      vertex -1.7362 0.219333 0
      vertex -1.7362 -0.219333 16
    endloop
  endfacet
  facet normal 0.876307 -0.481754 0
    outer loop
      vertex -1.41578 1.02862 0
      vertex -1.41578 1.02862 16
      vertex -1.62711 0.644218 16
    endloop
  endfacet
  facet normal 0.876307 -0.481754 0
    outer loop
      vertex -1.62711 0.644218 0
      vertex -1.41578 1.02862 0
      vertex -1.62711 0.644218 16
    endloop
  endfacet
  facet normal 0.728968 -0.684547 0
    outer loop
      vertex -1.11549 1.3484 0
      vertex -1.11549 1.3484 16
      vertex -1.41578 1.02862 16
    endloop
  endfacet
  facet normal 0.728968 -0.684547 0
    outer loop
      vertex -1.41578 1.02862 0
      vertex -1.11549 1.3484 0
      vertex -1.41578 1.02862 16
    endloop
  endfacet
  facet normal 0.535827 -0.844328 0
    outer loop
      vertex -0.745114 1.58345 0
      vertex -0.745114 1.58345 16
      vertex -1.11549 1.3484 16
    endloop
  endfacet
  facet normal 0.535827 -0.844328 0
    outer loop
      vertex -1.11549 1.3484 0
      vertex -0.745114 1.58345 0
      vertex -1.11549 1.3484 16
    endloop
  endfacet
  facet normal 0.309018 -0.951056 0
    outer loop
      vertex -0.327917 1.719 0
      vertex -0.327917 1.719 16
      vertex -0.745114 1.58345 16
    endloop
  endfacet
  facet normal 0.309018 -0.951056 0
    outer loop
      vertex -0.745114 1.58345 0
      vertex -0.327917 1.719 0
      vertex -0.745114 1.58345 16
    endloop
  endfacet
  facet normal 0.0627904 -0.998027 0
    outer loop
      vertex 0.109883 1.74655 0
      vertex 0.109883 1.74655 16
      vertex -0.327917 1.719 16
    endloop
  endfacet
  facet normal 0.0627904 -0.998027 0
    outer loop
      vertex -0.327917 1.719 0
      vertex 0.109883 1.74655 0
      vertex -0.327917 1.719 16
    endloop
  endfacet
  facet normal -0.187381 -0.982287 0
    outer loop
      vertex 0.54078 1.66435 0
      vertex 0.54078 1.66435 16
      vertex 0.109883 1.74655 16
    endloop
  endfacet
  facet normal -0.187381 -0.982287 0
    outer loop
      vertex 0.109883 1.74655 0
      vertex 0.54078 1.66435 0
      vertex 0.109883 1.74655 16
    endloop
  endfacet
  facet normal -0.425779 -0.904827 0
    outer loop
      vertex 0.937697 1.47757 0
      vertex 0.937697 1.47757 16
      vertex 0.54078 1.66435 16
    endloop
  endfacet
  facet normal -0.425779 -0.904827 0
    outer loop
      vertex 0.54078 1.66435 0
      vertex 0.937697 1.47757 0
      vertex 0.54078 1.66435 16
    endloop
  endfacet
  facet normal -0.637425 -0.770512 0
    outer loop
      vertex 1.2757 1.19796 0
      vertex 1.2757 1.19796 16
      vertex 0.937697 1.47757 16
    endloop
  endfacet
  facet normal -0.637425 -0.770512 0
    outer loop
      vertex 0.937697 1.47757 0
      vertex 1.2757 1.19796 0
      vertex 0.937697 1.47757 16
    endloop
  endfacet
  facet normal -0.809016 -0.587786 0
    outer loop
      vertex 1.53354 0.843069 16
      vertex 1.2757 1.19796 16
      vertex 1.53354 0.843069 0
    endloop
  endfacet
  facet normal -0.809016 -0.587786 0
    outer loop
      vertex 1.53354 0.843069 0
      vertex 1.2757 1.19796 16
      vertex 1.2757 1.19796 0
    endloop
  endfacet
  facet normal -0.929776 -0.368125 0
    outer loop
      vertex 1.69502 0.435207 16
      vertex 1.53354 0.843069 16
      vertex 1.69502 0.435207 0
    endloop
  endfacet
  facet normal -0.929776 -0.368125 0
    outer loop
      vertex 1.69502 0.435207 0
      vertex 1.53354 0.843069 16
      vertex 1.53354 0.843069 0
    endloop
  endfacet
  facet normal -0.992115 -0.125332 0
    outer loop
      vertex 1.75 0 16
      vertex 1.69502 0.435207 16
      vertex 1.75 0 0
    endloop
  endfacet
  facet normal -0.992115 -0.125332 0
    outer loop
      vertex 1.75 0 0
      vertex 1.69502 0.435207 16
      vertex 1.69502 0.435207 0
    endloop
  endfacet
  facet normal -0.992115 0.125332 0
    outer loop
      vertex 1.75 0 16
      vertex 1.75 0 0
      vertex 1.69502 -0.435207 16
    endloop
  endfacet
  facet normal -0.992115 0.125332 0
    outer loop
      vertex 1.69502 -0.435207 16
      vertex 1.75 0 0
      vertex 1.69502 -0.435207 0
    endloop
  endfacet
  facet normal -0.929776 0.368125 0
    outer loop
      vertex 1.69502 -0.435207 16
      vertex 1.69502 -0.435207 0
      vertex 1.53354 -0.843069 16
    endloop
  endfacet
  facet normal -0.929776 0.368125 0
    outer loop
      vertex 1.53354 -0.843069 16
      vertex 1.69502 -0.435207 0
      vertex 1.53354 -0.843069 0
    endloop
  endfacet
  facet normal -0.809016 0.587786 0
    outer loop
      vertex 1.53354 -0.843069 16
      vertex 1.53354 -0.843069 0
      vertex 1.2757 -1.19796 16
    endloop
  endfacet
  facet normal -0.809016 0.587786 0
    outer loop
      vertex 1.2757 -1.19796 16
      vertex 1.53354 -0.843069 0
      vertex 1.2757 -1.19796 0
    endloop
  endfacet
  facet normal -0.637425 0.770512 0
    outer loop
      vertex 1.2757 -1.19796 16
      vertex 1.2757 -1.19796 0
      vertex 0.937697 -1.47757 16
    endloop
  endfacet
  facet normal -0.637425 0.770512 0
    outer loop
      vertex 0.937697 -1.47757 16
      vertex 1.2757 -1.19796 0
      vertex 0.937697 -1.47757 0
    endloop
  endfacet
  facet normal -0.425779 0.904827 0
    outer loop
      vertex 0.937697 -1.47757 16
      vertex 0.937697 -1.47757 0
      vertex 0.54078 -1.66435 16
    endloop
  endfacet
  facet normal -0.425779 0.904827 0
    outer loop
      vertex 0.54078 -1.66435 16
      vertex 0.937697 -1.47757 0
      vertex 0.54078 -1.66435 0
    endloop
  endfacet
  facet normal -0.187381 0.982287 0
    outer loop
      vertex 0.54078 -1.66435 16
      vertex 0.54078 -1.66435 0
      vertex 0.109883 -1.74655 16
    endloop
  endfacet
  facet normal -0.187381 0.982287 0
    outer loop
      vertex 0.109883 -1.74655 16
      vertex 0.54078 -1.66435 0
      vertex 0.109883 -1.74655 0
    endloop
  endfacet
  facet normal 0.0627904 0.998027 0
    outer loop
      vertex 0.109883 -1.74655 16
      vertex 0.109883 -1.74655 0
      vertex -0.327917 -1.719 16
    endloop
  endfacet
  facet normal 0.0627904 0.998027 0
    outer loop
      vertex -0.327917 -1.719 16
      vertex 0.109883 -1.74655 0
      vertex -0.327917 -1.719 0
    endloop
  endfacet
  facet normal 0.309018 0.951056 0
    outer loop
      vertex -0.327917 -1.719 16
      vertex -0.327917 -1.719 0
      vertex -0.745114 -1.58345 16
    endloop
  endfacet
  facet normal 0.309018 0.951056 0
    outer loop
      vertex -0.745114 -1.58345 16
      vertex -0.327917 -1.719 0
      vertex -0.745114 -1.58345 0
    endloop
  endfacet
  facet normal 0.535827 0.844328 0
    outer loop
      vertex -0.745114 -1.58345 16
      vertex -0.745114 -1.58345 0
      vertex -1.11549 -1.3484 16
    endloop
  endfacet
  facet normal 0.535827 0.844328 0
    outer loop
      vertex -1.11549 -1.3484 16
      vertex -0.745114 -1.58345 0
      vertex -1.11549 -1.3484 0
    endloop
  endfacet
  facet normal 0.728968 0.684547 0
    outer loop
      vertex -1.41578 -1.02862 16
      vertex -1.11549 -1.3484 16
      vertex -1.11549 -1.3484 0
    endloop
  endfacet
  facet normal 0.728968 0.684547 0
    outer loop
      vertex -1.41578 -1.02862 0
      vertex -1.41578 -1.02862 16
      vertex -1.11549 -1.3484 0
    endloop
  endfacet
  facet normal 0.876307 0.481754 0
    outer loop
      vertex -1.62711 -0.644218 16
      vertex -1.41578 -1.02862 16
      vertex -1.41578 -1.02862 0
    endloop
  endfacet
  facet normal 0.876307 0.481754 0
    outer loop
      vertex -1.62711 -0.644218 0
      vertex -1.62711 -0.644218 16
      vertex -1.41578 -1.02862 0
    endloop
  endfacet
  facet normal 0.968583 0.24869 0
    outer loop
      vertex -1.7362 -0.219333 16
      vertex -1.62711 -0.644218 16
      vertex -1.62711 -0.644218 0
    endloop
  endfacet
  facet normal 0.968583 0.24869 0
    outer loop
      vertex -1.7362 -0.219333 0
      vertex -1.7362 -0.219333 16
      vertex -1.62711 -0.644218 0
    endloop
  endfacet
  facet normal 0 0 1
    outer loop
      vertex -5.70466 0.720666 16
      vertex -5.70466 -0.720666 16
      vertex -5.34621 -2.11672 16
    endloop
  endfacet
  facet normal 0 0 1
    outer loop
      vertex -3.66519 -4.43045 16
      vertex -5.70466 0.720666 16
      vertex -4.65185 -3.37976 16
    endloop
  endfacet
  facet normal 0 0 1
    outer loop
      vertex -4.65185 -3.37976 16
      vertex -5.70466 0.720666 16
      vertex -5.34621 -2.11672 16
    endloop
  endfacet
  facet normal 0 0 1
    outer loop
      vertex -2.44823 -5.20276 16
      vertex -5.70466 0.720666 16
      vertex -3.66519 -4.43045 16
    endloop
  endfacet
  facet normal 0 0 1
    outer loop
      vertex -1.07744 -5.64815 16
      vertex -5.70466 0.720666 16
      vertex -2.44823 -5.20276 16
    endloop
  endfacet
  facet normal 0 0 1
    outer loop
      vertex 0.361045 -5.73865 16
      vertex -5.70466 0.720666 16
      vertex -1.07744 -5.64815 16
    endloop
  endfacet
  facet normal 0 0 1
    outer loop
      vertex 1.77685 -5.46857 16
      vertex -5.70466 0.720666 16
      vertex 0.361045 -5.73865 16
    endloop
  endfacet
  facet normal 0 0 1
    outer loop
      vertex 3.081 -4.85489 16
      vertex -5.70466 0.720666 16
      vertex 1.77685 -5.46857 16
    endloop
  endfacet
  facet normal 0 0 1
    outer loop
      vertex 4.19157 -3.93615 16
      vertex -5.70466 0.720666 16
      vertex 3.081 -4.85489 16
    endloop
  endfacet
  facet normal 0 0 1
    outer loop
      vertex -0.745114 -1.58345 16
      vertex -5.70466 0.720666 16
      vertex 4.19157 -3.93615 16
    endloop
  endfacet
  facet normal 0 0 1
    outer loop
      vertex 1.2757 -1.19796 16
      vertex 0.937697 -1.47757 16
      vertex 5.03876 -2.77008 16
    endloop
  endfacet
  facet normal 0 0 1
    outer loop
      vertex 4.19157 3.93615 16
      vertex -5.70466 0.720666 16
      vertex 5.03876 2.77008 16
    endloop
  endfacet
  facet normal 0 0 1
    outer loop
      vertex 3.081 4.85489 16
      vertex -5.70466 0.720666 16
      vertex 4.19157 3.93615 16
    endloop
  endfacet
  facet normal 0 0 1
    outer loop
      vertex 1.77685 5.46857 16
      vertex -5.70466 0.720666 16
      vertex 3.081 4.85489 16
    endloop
  endfacet
  facet normal 0 0 1
    outer loop
      vertex 0.361045 5.73865 16
      vertex -5.70466 0.720666 16
      vertex 1.77685 5.46857 16
    endloop
  endfacet
  facet normal 0 0 1
    outer loop
      vertex -1.07744 5.64815 16
      vertex -5.70466 0.720666 16
      vertex 0.361045 5.73865 16
    endloop
  endfacet
  facet normal 0 0 1
    outer loop
      vertex -2.44823 5.20276 16
      vertex -5.70466 0.720666 16
      vertex -1.07744 5.64815 16
    endloop
  endfacet
  facet normal 0 0 1
    outer loop
      vertex -3.66519 4.43045 16
      vertex -5.70466 0.720666 16
      vertex -2.44823 5.20276 16
    endloop
  endfacet
  facet normal 0 0 1
    outer loop
      vertex -4.65185 3.37976 16
      vertex -5.70466 0.720666 16
      vertex -3.66519 4.43045 16
    endloop
  endfacet
  facet normal 0 0 1
    outer loop
      vertex -5.34621 2.11672 16
      vertex -5.70466 0.720666 16
      vertex -4.65185 3.37976 16
    endloop
  endfacet
  facet normal 0 0 1
    outer loop
      vertex -0.745114 -1.58345 16
      vertex -1.11549 -1.3484 16
      vertex -5.70466 0.720666 16
    endloop
  endfacet
  facet normal 0 0 1
    outer loop
      vertex -1.7362 0.219333 16
      vertex -1.62711 0.644218 16
      vertex -5.70466 0.720666 16
    endloop
  endfacet
  facet normal 0 0 1
    outer loop
      vertex -1.62711 0.644218 16
      vertex -1.41578 1.02862 16
      vertex -5.70466 0.720666 16
    endloop
  endfacet
  facet normal 0 0 1
    outer loop
      vertex 1.69502 -0.435207 16
      vertex 1.53354 -0.843069 16
      vertex 5.56935 -1.42997 16
    endloop
  endfacet
  facet normal 0 0 1
    outer loop
      vertex -0.327917 1.719 16
      vertex 0.109883 1.74655 16
      vertex 5.03876 2.77008 16
    endloop
  endfacet
  facet normal 0 0 1
    outer loop
      vertex 1.69502 0.435207 16
      vertex 1.75 0 16
      vertex 5.75 0 16
    endloop
  endfacet
  facet normal 0 0 1
    outer loop
      vertex -1.11549 1.3484 16
      vertex -5.70466 0.720666 16
      vertex -1.41578 1.02862 16
    endloop
  endfacet
  facet normal 0 0 1
    outer loop
      vertex -0.745114 1.58345 16
      vertex -5.70466 0.720666 16
      vertex -1.11549 1.3484 16
    endloop
  endfacet
  facet normal 0 0 1
    outer loop
      vertex -0.327917 1.719 16
      vertex -5.70466 0.720666 16
      vertex -0.745114 1.58345 16
    endloop
  endfacet
  facet normal 0 0 1
    outer loop
      vertex 0.109883 1.74655 16
      vertex 0.54078 1.66435 16
      vertex 5.03876 2.77008 16
    endloop
  endfacet
  facet normal 0 0 1
    outer loop
      vertex 5.03876 2.77008 16
      vertex -5.70466 0.720666 16
      vertex -0.327917 1.719 16
    endloop
  endfacet
  facet normal 0 0 1
    outer loop
      vertex 0.54078 1.66435 16
      vertex 0.937697 1.47757 16
      vertex 5.03876 2.77008 16
    endloop
  endfacet
  facet normal 0 0 1
    outer loop
      vertex 5.03876 2.77008 16
      vertex 0.937697 1.47757 16
      vertex 5.56935 1.42997 16
    endloop
  endfacet
  facet normal 0 0 1
    outer loop
      vertex 0.937697 1.47757 16
      vertex 1.2757 1.19796 16
      vertex 5.56935 1.42997 16
    endloop
  endfacet
  facet normal 0 0 1
    outer loop
      vertex 5.56935 1.42997 16
      vertex 1.53354 0.843069 16
      vertex 5.75 0 16
    endloop
  endfacet
  facet normal 0 0 1
    outer loop
      vertex 1.53354 0.843069 16
      vertex 1.69502 0.435207 16
      vertex 5.75 0 16
    endloop
  endfacet
  facet normal 0 0 1
    outer loop
      vertex 5.75 0 16
      vertex 1.75 0 16
      vertex 5.56935 -1.42997 16
    endloop
  endfacet
  facet normal 0 0 1
    outer loop
      vertex 1.75 0 16
      vertex 1.69502 -0.435207 16
      vertex 5.56935 -1.42997 16
    endloop
  endfacet
  facet normal 0 0 1
    outer loop
      vertex 5.56935 -1.42997 16
      vertex 1.53354 -0.843069 16
      vertex 5.03876 -2.77008 16
    endloop
  endfacet
  facet normal 0 0 1
    outer loop
      vertex 1.53354 -0.843069 16
      vertex 1.2757 -1.19796 16
      vertex 5.03876 -2.77008 16
    endloop
  endfacet
  facet normal 0 0 1
    outer loop
      vertex 5.03876 -2.77008 16
      vertex 0.937697 -1.47757 16
      vertex 4.19157 -3.93615 16
    endloop
  endfacet
  facet normal 0 0 1
    outer loop
      vertex -1.7362 -0.219333 16
      vertex -1.7362 0.219333 16
      vertex -5.70466 0.720666 16
    endloop
  endfacet
  facet normal 0 0 1
    outer loop
      vertex 0.937697 -1.47757 16
      vertex 0.54078 -1.66435 16
      vertex 4.19157 -3.93615 16
    endloop
  endfacet
  facet normal 0 0 1
    outer loop
      vertex 0.54078 -1.66435 16
      vertex 0.109883 -1.74655 16
      vertex 4.19157 -3.93615 16
    endloop
  endfacet
  facet normal 0 0 1
    outer loop
      vertex 0.109883 -1.74655 16
      vertex -0.327917 -1.719 16
      vertex 4.19157 -3.93615 16
    endloop
  endfacet
  facet normal 0 0 1
    outer loop
      vertex -0.327917 -1.719 16
      vertex -0.745114 -1.58345 16
      vertex 4.19157 -3.93615 16
    endloop
  endfacet
  facet normal 0 0 1
    outer loop
      vertex -1.11549 -1.3484 16
      vertex -1.41578 -1.02862 16
      vertex -5.70466 0.720666 16
    endloop
  endfacet
  facet normal 0 0 1
    outer loop
      vertex -1.41578 -1.02862 16
      vertex -1.62711 -0.644218 16
      vertex -5.70466 0.720666 16
    endloop
  endfacet
  facet normal 0 0 1
    outer loop
      vertex 1.2757 1.19796 16
      vertex 1.53354 0.843069 16
      vertex 5.56935 1.42997 16
    endloop
  endfacet
  facet normal 0 0 1
    outer loop
      vertex -1.62711 -0.644218 16
      vertex -1.7362 -0.219333 16
      vertex -5.70466 0.720666 16
    endloop
  endfacet
endsolid OpenSCAD_Model
